<svg xmlns="http://www.w3.org/2000/svg" viewBox="0 0 256 256"><path fill="none" d="M0 0h256v256H0z"/><path d="M48 40a8 8 0 0 0-8 8v160a8 8 0 0 0 8 8h136V40Zm64 104a24 24 0 1 1 24-24 24 24 0 0 1-24 24" opacity=".2"/><path fill="none" stroke="currentColor" stroke-linecap="round" stroke-linejoin="round" stroke-width="16" d="M184 160h32M184 96h32"/><rect width="176" height="176" x="40" y="40" fill="none" stroke="currentColor" stroke-linecap="round" stroke-linejoin="round" stroke-width="16" rx="8"/><circle cx="112" cy="120" r="24" fill="none" stroke="currentColor" stroke-linecap="round" stroke-linejoin="round" stroke-width="16"/><path fill="none" stroke="currentColor" stroke-linecap="round" stroke-linejoin="round" stroke-width="16" d="M80 168c3.55-13.8 17.09-24 32-24s28.46 10.19 32 24M184 40v176"/></svg>