<svg xmlns="http://www.w3.org/2000/svg" viewBox="0 0 256 256"><path fill="none" d="M0 0h256v256H0z"/><path d="M66.19 160a8 8 0 0 1-7.52-5.27l-26.18-72A8 8 0 0 1 40 72h176a8 8 0 0 1 7.52 10.73l-26.18 72a8 8 0 0 1-7.52 5.27Z" opacity=".2"/><path fill="none" stroke="currentColor" stroke-linecap="round" stroke-linejoin="round" stroke-width="16" d="M128 72V24M104 24h48M168 72l-16 88v72M88 72l16 88v72"/><path fill="none" stroke="currentColor" stroke-linecap="round" stroke-linejoin="round" stroke-width="16" d="M66.19 160a8 8 0 0 1-7.52-5.27l-26.18-72A8 8 0 0 1 40 72h176a8 8 0 0 1 7.52 10.73l-26.18 72a8 8 0 0 1-7.52 5.27Z"/></svg>