<svg xmlns="http://www.w3.org/2000/svg" viewBox="0 0 256 256"><path fill="none" d="M0 0h256v256H0z"/><path d="M208 48H48a16 16 0 0 0-16 16v112a16 16 0 0 0 16 16h52.57L128 160l27.43 32H208a16 16 0 0 0 16-16V64a16 16 0 0 0-16-16" opacity=".2"/><path fill="none" stroke="currentColor" stroke-linecap="round" stroke-linejoin="round" stroke-width="16" d="m128 160 48 56H80z"/><path fill="none" stroke="currentColor" stroke-linecap="round" stroke-linejoin="round" stroke-width="16" d="M56 192h-8a16 16 0 0 1-16-16V64a16 16 0 0 1 16-16h160a16 16 0 0 1 16 16v112a16 16 0 0 1-16 16h-8"/></svg>