<svg xmlns="http://www.w3.org/2000/svg" viewBox="0 0 256 256"><path fill="none" d="M0 0h256v256H0z"/><path d="M144 104h64a32 32 0 0 1 32 32v24H61.06a32 32 0 0 1-30.65-22.8L16.34 90.3A8 8 0 0 1 24 80h8l24 24h36.91L80.42 66.53A8 8 0 0 1 88 56h8Z" opacity=".2"/><path fill="none" stroke="currentColor" stroke-linecap="round" stroke-linejoin="round" stroke-width="16" d="M72 216h144M144 104h64a32 32 0 0 1 32 32v24H61.06a32 32 0 0 1-30.65-22.8L16.34 90.3A8 8 0 0 1 24 80h8l24 24h36.91L80.42 66.53A8 8 0 0 1 88 56h8Z"/></svg>