<svg xmlns="http://www.w3.org/2000/svg" viewBox="0 0 256 256"><path fill="none" d="M0 0h256v256H0z"/><path d="M88 116.51 58.65 88a8 8 0 0 1 2.2-13.3L68 72l57.53 21.17 54.84-32.75a32 32 0 0 1 41 7.32L240 91.64l-147.41 88a32 32 0 0 1-38-4.32L18.53 140a8 8 0 0 1 2.32-13.19l3.15-1.54L55.79 136Z" opacity=".2"/><path fill="none" stroke="currentColor" stroke-linecap="round" stroke-linejoin="round" stroke-width="16" d="M24 216h144M88 116.51 58.65 88a8 8 0 0 1 2.2-13.3L68 72l57.53 21.17 54.84-32.75a32 32 0 0 1 41 7.32L240 91.64l-147.41 88a32 32 0 0 1-38-4.32L18.53 140a8 8 0 0 1 2.32-13.19l3.15-1.54L55.79 136Z"/></svg>