<svg xmlns="http://www.w3.org/2000/svg" viewBox="0 0 256 256"><path fill="none" d="M0 0h256v256H0z"/><path d="M128 24a88 88 0 0 0-88 88c0 48.6 56 120 88 120s88-71.4 88-120a88 88 0 0 0-88-88m-24 120a32 32 0 0 1-32-32 8 8 0 0 1 8-8 32 32 0 0 1 32 32 8 8 0 0 1-8 8m48 0a8 8 0 0 1-8-8 32 32 0 0 1 32-32 8 8 0 0 1 8 8 32 32 0 0 1-32 32" opacity=".2"/><path fill="none" stroke="currentColor" stroke-linecap="round" stroke-linejoin="round" stroke-width="16" d="M216 112c0 48.6-56 120-88 120s-88-71.4-88-120a88 88 0 0 1 176 0"/><path fill="none" stroke="currentColor" stroke-linecap="round" stroke-linejoin="round" stroke-width="16" d="M104 144a32 32 0 0 1-32-32h0a8 8 0 0 1 8-8h0a32 32 0 0 1 32 32h0a8 8 0 0 1-8 8M176 104a8 8 0 0 1 8 8v0a32 32 0 0 1-32 32h0a8 8 0 0 1-8-8v0a32 32 0 0 1 32-32M112 184h32"/></svg>