<svg xmlns="http://www.w3.org/2000/svg" viewBox="0 0 256 256"><path fill="none" d="M0 0h256v256H0z"/><path d="M24 184v-22.87C24 103.65 70.15 56.2 127.63 56A104 104 0 0 1 232 160v24a8 8 0 0 1-8 8H32a8 8 0 0 1-8-8" opacity=".2"/><circle cx="164" cy="148" r="12"/><circle cx="92" cy="148" r="12"/><path fill="none" stroke="currentColor" stroke-linecap="round" stroke-linejoin="round" stroke-width="16" d="M24 184v-22.87C24 103.65 70.15 56.2 127.63 56A104 104 0 0 1 232 160v24a8 8 0 0 1-8 8H32a8 8 0 0 1-8-8M32 48l31.07 31.07M224 48l-30.9 30.9"/></svg>