<svg xmlns="http://www.w3.org/2000/svg" viewBox="0 0 256 256"><path fill="none" d="M0 0h256v256H0z"/><path d="M216 73.52C204.53 62.66 185 56 168 56a63.72 63.72 0 0 0-40 14 63.7 63.7 0 0 0-39.12-14C52 55.5 23.06 86.3 24 123.19a119.62 119.62 0 0 0 37.65 84.12A31.92 31.92 0 0 0 83.6 216h87.7a31.75 31.75 0 0 0 23.26-10c15.85-17 21.44-33.2 21.44-33.2-16.79-11.53-24-30.87-24-52.78 0-18.3 11.68-34.81 24-46.48Z" opacity=".2"/><path fill="none" stroke="currentColor" stroke-linecap="round" stroke-linejoin="round" stroke-width="16" d="M216 73.52C204.53 62.66 185 56 168 56a63.72 63.72 0 0 0-40 14h0a63.7 63.7 0 0 0-39.12-14C52 55.5 23.06 86.3 24 123.19a119.62 119.62 0 0 0 37.65 84.12A31.92 31.92 0 0 0 83.6 216h87.7a31.75 31.75 0 0 0 23.26-10c15.85-17 21.44-33.2 21.44-33.2h0c-16.79-11.53-24-30.87-24-52.78 0-18.3 11.68-34.81 24-46.48ZM168 8h-1a32 32 0 0 0-31 24"/></svg>