<svg xmlns="http://www.w3.org/2000/svg" viewBox="0 0 256 256"><path fill="none" d="M0 0h256v256H0z"/><path d="M208 160v40a8 8 0 0 1-8 8H56a8 8 0 0 1-8-8v-40a32 32 0 0 1 0-64V72a32 32 0 0 1 32-32h96a32 32 0 0 1 32 32v24a32 32 0 0 1 0 64" opacity=".2"/><path fill="none" stroke="currentColor" stroke-linecap="round" stroke-linejoin="round" stroke-width="16" d="M80 136h96M48 96V72a32 32 0 0 1 32-32h96a32 32 0 0 1 32 32v24"/><path fill="none" stroke="currentColor" stroke-linecap="round" stroke-linejoin="round" stroke-width="16" d="M80 168v-40a32 32 0 1 0-32 32h0v40a8 8 0 0 0 8 8h144a8 8 0 0 0 8-8v-40h0a32 32 0 1 0-32-32v40"/></svg>