<svg xmlns="http://www.w3.org/2000/svg" viewBox="0 0 256 256"><path fill="none" d="M0 0h256v256H0z"/><path d="M88 48v8a32 32 0 0 1-32 32H32v-8a32 32 0 0 1 32-32Z" opacity=".2"/><path fill="none" stroke="currentColor" stroke-linecap="round" stroke-linejoin="round" stroke-width="16" d="M128 24v208M160 166.11a24 24 0 0 1 8 17.89h0a24 24 0 0 1-24 24H96M160 48h17a31 31 0 0 1 31 31v1a32 32 0 0 1-32 32H96a24 24 0 0 0-24 24h0a24 24 0 0 0 24 24M88 48v8a32 32 0 0 1-32 32H32v-8a32 32 0 0 1 32-32h32"/></svg>