<svg xmlns="http://www.w3.org/2000/svg" viewBox="0 0 256 256"><path fill="none" d="M0 0h256v256H0z"/><path d="m203.45 133.33-29.82-84.28a48 48 0 0 0-90.9-1l-29.54 83.54a80 80 0 1 0 150.26 1.74M128 200a40 40 0 1 1 40-40 40 40 0 0 1-40 40" opacity=".2"/><circle cx="128" cy="160" r="40" fill="none" stroke="currentColor" stroke-linecap="round" stroke-linejoin="round" stroke-width="16"/><path fill="none" stroke="currentColor" stroke-linecap="round" stroke-linejoin="round" stroke-width="16" d="M82.73 48a48 48 0 0 1 90.9 1l29.82 84.28a80 80 0 1 1-150.26-1.74Z"/></svg>