<svg xmlns="http://www.w3.org/2000/svg" viewBox="0 0 256 256"><path fill="none" d="M0 0h256v256H0z"/><path d="M144 112V48a8 8 0 0 1 8-8h8a72 72 0 0 1 72 72z" opacity=".2"/><path fill="none" stroke="currentColor" stroke-linecap="round" stroke-linejoin="round" stroke-width="16" d="M48 112h184v0a72 72 0 0 1-72 72h-40a72 72 0 0 1-72-72M144 112V48a8 8 0 0 1 8-8h8a72 72 0 0 1 72 72h0M16 80a32 32 0 0 1 32 32"/><circle cx="88" cy="224" r="16"/><circle cx="192" cy="224" r="16"/><path fill="none" stroke="currentColor" stroke-linecap="round" stroke-linejoin="round" stroke-width="16" d="m144 112 65.43-52.35"/></svg>