<svg xmlns="http://www.w3.org/2000/svg" viewBox="0 0 256 256"><path fill="none" d="M0 0h256v256H0z"/><path d="M160 48H96a48 48 0 0 0-48 48v120a8 8 0 0 0 8 8h24v-72a16 16 0 0 1 16-16h64a16 16 0 0 1 16 16v72h24a8 8 0 0 0 8-8V96a48 48 0 0 0-48-48" opacity=".2"/><path fill="none" stroke="currentColor" stroke-linecap="round" stroke-linejoin="round" stroke-width="16" d="M96 48h64a48 48 0 0 1 48 48v120a8 8 0 0 1-8 8H56a8 8 0 0 1-8-8V96a48 48 0 0 1 48-48"/><path fill="none" stroke="currentColor" stroke-linecap="round" stroke-linejoin="round" stroke-width="16" d="M80 224v-72a16 16 0 0 1 16-16h64a16 16 0 0 1 16 16v72M96 48V32a16 16 0 0 1 16-16h32a16 16 0 0 1 16 16v16M112 88h32M80 168h96M144 168v16"/></svg>