<svg xmlns="http://www.w3.org/2000/svg" viewBox="0 0 256 256"><path fill="none" d="M0 0h256v256H0z"/><ellipse cx="60.66" cy="128" opacity=".2" rx="28.66" ry="68.42"/><circle cx="128" cy="128" r="96" fill="none" stroke="currentColor" stroke-linecap="round" stroke-linejoin="round" stroke-width="16"/><ellipse cx="195.34" cy="128" opacity=".2" rx="28.66" ry="68.42"/><path fill="none" stroke="currentColor" stroke-linecap="round" stroke-linejoin="round" stroke-width="16" d="M88 144a95 95 0 0 1-4.14 16M83.86 96A95 95 0 0 1 88 112M60.66 59.58A95 95 0 0 1 68.27 68M68.27 188a95 95 0 0 1-7.61 8.42M168 144a95 95 0 0 0 4.14 16M172.14 96a95 95 0 0 0-4.14 16M195.34 59.58a95 95 0 0 0-7.61 8.42M187.73 188a95 95 0 0 0 7.61 8.42"/></svg>