<svg xmlns="http://www.w3.org/2000/svg" viewBox="0 0 256 256"><path fill="none" d="M0 0h256v256H0z"/><path d="M60.06 195.91a96 96 0 0 1-.12-135.65 95.7 95.7 0 0 1 28 67.76 95.74 95.74 0 0 1-28 67.77ZM196.06 195.91a96 96 0 0 1-.12-135.65 96 96 0 0 1 0 135.53Z" opacity=".2"/><circle cx="128" cy="128" r="96" fill="none" stroke="currentColor" stroke-linecap="round" stroke-linejoin="round" stroke-width="16"/><path fill="none" stroke="currentColor" stroke-linecap="round" stroke-linejoin="round" stroke-width="16" d="M60 60.24A95.7 95.7 0 0 1 88 128a95.7 95.7 0 0 1-28 67.76M196 60.24a96 96 0 0 0 0 135.52M32 128h192M128 32v192"/></svg>