<svg xmlns="http://www.w3.org/2000/svg" viewBox="0 0 256 256"><path fill="none" d="M0 0h256v256H0z"/><path d="M200 104v40h-64v-40H16v40a48 48 0 0 0 48 48h128a48 48 0 0 0 48-48v-40Z" opacity=".2"/><path fill="none" stroke="currentColor" stroke-linecap="round" stroke-linejoin="round" stroke-width="16" d="M72 192v24M184 192v24M136 96h64v48h-64z"/><path fill="none" stroke="currentColor" stroke-linecap="round" stroke-linejoin="round" stroke-width="16" d="M200 104h40v40a48 48 0 0 1-48 48H64a48 48 0 0 1-48-48v-40h120M56 104V52a20 20 0 0 1 20-20 20.44 20.44 0 0 1 20 16"/></svg>