<svg xmlns="http://www.w3.org/2000/svg" viewBox="0 0 256 256"><path fill="none" d="M0 0h256v256H0z"/><path d="M79.26 45.27a96.4 96.4 0 0 1 68.68-11.2 191.9 191.9 0 0 1 13.29 59.29 191.1 191.1 0 0 0-81.97-48.09M210.73 176.73a191 191 0 0 0-48.09-82 192.2 192.2 0 0 1 59.29 13.29 96.37 96.37 0 0 1-11.2 68.67ZM161.31 94.69a191.56 191.56 0 0 1-40.5 129 96 96 0 0 1-88.54-88.54 191.56 191.56 0 0 1 129.04-40.46" opacity=".2"/><circle cx="128" cy="128" r="96" fill="none" stroke="currentColor" stroke-linecap="round" stroke-linejoin="round" stroke-width="16"/><path fill="none" stroke="currentColor" stroke-linecap="round" stroke-linejoin="round" stroke-width="16" d="M147.93 34.08a192.17 192.17 0 0 1-27.12 189.65"/><path fill="none" stroke="currentColor" stroke-linecap="round" stroke-linejoin="round" stroke-width="16" d="M32.27 135.19a192.17 192.17 0 0 1 189.65-27.12"/><path fill="none" stroke="currentColor" stroke-linecap="round" stroke-linejoin="round" stroke-width="16" d="M79.25 45.27a191.14 191.14 0 0 1 82.69 48.79 191.14 191.14 0 0 1 48.79 82.69"/></svg>