<svg xmlns="http://www.w3.org/2000/svg" viewBox="0 0 256 256"><path fill="none" d="M0 0h256v256H0z"/><path fill="none" stroke="currentColor" stroke-linecap="round" stroke-linejoin="round" stroke-width="16" d="M96 224h64"/><path d="M56 112a72 72 0 0 1 144 0c0 35.82 8.3 56.6 14.9 68a8 8 0 0 1-6.9 12H48a8 8 0 0 1-6.88-12C47.71 168.6 56 147.81 56 112" opacity=".2"/><path fill="none" stroke="currentColor" stroke-linecap="round" stroke-linejoin="round" stroke-width="16" d="M184 24a102.7 102.7 0 0 1 36.29 40M35.71 64A102.7 102.7 0 0 1 72 24M56 112a72 72 0 0 1 144 0c0 35.82 8.3 56.6 14.9 68a8 8 0 0 1-6.9 12H48a8 8 0 0 1-6.88-12C47.71 168.6 56 147.81 56 112"/></svg>