<svg xmlns="http://www.w3.org/2000/svg" viewBox="0 0 256 256"><path fill="none" d="M0 0h256v256H0z"/><path d="M104 99.52V76.89c0-28.77 23-52.75 51.74-52.89a52 52 0 0 1 50.59 38.89L232 80l-24 16v24a96 96 0 0 1-96 96H24a8 8 0 0 1-6.25-13Z" opacity=".2"/><circle cx="164" cy="68" r="12"/><path fill="none" stroke="currentColor" stroke-linecap="round" stroke-linejoin="round" stroke-width="16" d="M104 99.52V76.89c0-28.77 23-52.75 51.74-52.89a52 52 0 0 1 50.59 38.89L232 80l-24 16v24a96 96 0 0 1-96 96H24a8 8 0 0 1-6.25-13ZM128 128l-73.33 88"/></svg>