<svg xmlns="http://www.w3.org/2000/svg" viewBox="0 0 256 256"><path fill="none" d="M0 0h256v256H0z"/><path d="M56.32 199.68a28 28 0 1 1 10.51-51.42 8 8 0 0 0 10-1.07l70.38-70.38a8 8 0 0 0 1.07-10A28 28 0 1 1 199.7 56.3a28 28 0 1 1-10.51 51.42 8 8 0 0 0-10 1.07l-70.38 70.38a8 8 0 0 0-1.07 10 28 28 0 1 1-51.42 10.51" opacity=".2"/><path fill="none" stroke="currentColor" stroke-linecap="round" stroke-linejoin="round" stroke-width="16" d="M56.32 199.68a28 28 0 1 1 10.51-51.42 8 8 0 0 0 10-1.07l70.38-70.38a8 8 0 0 0 1.07-10A28 28 0 1 1 199.7 56.3a28 28 0 1 1-10.51 51.42 8 8 0 0 0-10 1.07l-70.38 70.38a8 8 0 0 0-1.07 10 28 28 0 1 1-51.42 10.51"/></svg>