<svg xmlns="http://www.w3.org/2000/svg" viewBox="0 0 256 256"><path fill="none" d="M0 0h256v256H0z"/><path d="M192 32H96a8 8 0 0 0-8 8v24h72a8 8 0 0 1 8 8v97.15L200 192V40a8 8 0 0 0-8-8" opacity=".2"/><path fill="none" stroke="currentColor" stroke-linecap="round" stroke-linejoin="round" stroke-width="16" d="m168 224-56-40-56 40V72a8 8 0 0 1 8-8h96a8 8 0 0 1 8 8Z"/><path fill="none" stroke="currentColor" stroke-linecap="round" stroke-linejoin="round" stroke-width="16" d="M88 64V40a8 8 0 0 1 8-8h96a8 8 0 0 1 8 8v152l-32-22.85"/></svg>