<svg xmlns="http://www.w3.org/2000/svg" viewBox="0 0 256 256"><path fill="none" d="M0 0h256v256H0z"/><path d="M48 72h64v112H48z" opacity=".2"/><rect width="64" height="176" x="48" y="40" fill="none" stroke="currentColor" stroke-linecap="round" stroke-linejoin="round" stroke-width="16" rx="8"/><path fill="none" stroke="currentColor" stroke-linecap="round" stroke-linejoin="round" stroke-width="16" d="m217.67 205.77-46.81 10a8 8 0 0 1-9.5-6.21L128.18 51.8a8.07 8.07 0 0 1 6.15-9.57l46.81-10a8 8 0 0 1 9.5 6.21l33.18 157.76a8.07 8.07 0 0 1-6.15 9.57M48 72h64M48 184h64M133.16 75.48l62.45-13.42M139.79 107.04l62.46-13.42M156.39 185.94l62.45-13.42"/><path d="m139.79 107 62.46-13.42-11.61-55.19a8 8 0 0 0-9.5-6.21l-46.81 10a8.07 8.07 0 0 0-6.15 9.57Z" opacity=".2"/></svg>