<svg xmlns="http://www.w3.org/2000/svg" viewBox="0 0 256 256"><path fill="none" d="M0 0h256v256H0z"/><path d="M176 32v96l-32-24-32 24V32H72a24 24 0 0 0-24 24v160a24 24 0 0 1 24-24h136V32Z" opacity=".2"/><path fill="none" stroke="currentColor" stroke-linecap="round" stroke-linejoin="round" stroke-width="16" d="M48 216v8h144M176 32v96l-32.01-24L112 128V32"/><path fill="none" stroke="currentColor" stroke-linecap="round" stroke-linejoin="round" stroke-width="16" d="M48 216a24 24 0 0 1 24-24h136V32H72a24 24 0 0 0-24 24Z"/></svg>