<svg xmlns="http://www.w3.org/2000/svg" viewBox="0 0 256 256"><path fill="none" d="M0 0h256v256H0z"/><path d="M240 168a48 48 0 0 0-48-48h-40V56a8 8 0 0 0-8-8H32c12 31.35 9.22 87.94 0 120Z" opacity=".2"/><path fill="none" stroke="currentColor" stroke-linecap="round" stroke-linejoin="round" stroke-width="16" d="M152 120h-40M152 88h-40M240 168v32a8 8 0 0 1-8 8h-26.11a8.1 8.1 0 0 1-3.58-.84l-12.62-6.32a8.1 8.1 0 0 0-3.58-.84h-16.22a8.1 8.1 0 0 0-3.58.84l-12.62 6.32a8.1 8.1 0 0 1-3.58.84h-28.22a8.1 8.1 0 0 1-3.58-.84l-12.62-6.32a8.1 8.1 0 0 0-3.58-.84H85.89a8.1 8.1 0 0 0-3.58.84l-12.62 6.32a8.1 8.1 0 0 1-3.58.84H40a8 8 0 0 1-8-8v-32c9.22-32.06 12-88.65 0-120h112a8 8 0 0 1 8 8v64h40a48 48 0 0 1 48 48M32 168h208"/></svg>