<svg xmlns="http://www.w3.org/2000/svg" viewBox="0 0 256 256"><path fill="none" d="M0 0h256v256H0z"/><path d="M88 207.3A96 96 0 0 1 32 120h192a96 96 0 0 1-56 87.3v8.7a8 8 0 0 1-8 8H96a8 8 0 0 1-8-8Z" opacity=".2"/><path fill="none" stroke="currentColor" stroke-linecap="round" stroke-linejoin="round" stroke-width="16" d="M88 207.3A96 96 0 0 1 32 120h192a96 96 0 0 1-56 87.3v8.7a8 8 0 0 1-8 8H96a8 8 0 0 1-8-8ZM168 88s-18-5.6 0-28 0-28 0-28M128 88s-18-5.6 0-28 0-28 0-28M88 88s-18-5.6 0-28 0-28 0-28"/></svg>