<svg xmlns="http://www.w3.org/2000/svg" viewBox="0 0 256 256"><path fill="none" d="M0 0h256v256H0z"/><path d="M88 199.3A96 96 0 0 1 32 112h192a96 96 0 0 1-56 87.3v8.7a8 8 0 0 1-8 8H96a8 8 0 0 1-8-8Z" opacity=".2"/><path fill="none" stroke="currentColor" stroke-linecap="round" stroke-linejoin="round" stroke-width="16" d="M48 112a80 80 0 0 1 160 0"/><path fill="none" stroke="currentColor" stroke-linecap="round" stroke-linejoin="round" stroke-width="16" d="M89.6 112A80 80 0 0 1 168 48a82 82 0 0 1 8.61.46M134.66 112A80.13 80.13 0 0 1 193 65.4M88 199.3A96 96 0 0 1 32 112h192a96 96 0 0 1-56 87.3v8.7a8 8 0 0 1-8 8H96a8 8 0 0 1-8-8Z"/></svg>