<svg xmlns="http://www.w3.org/2000/svg" viewBox="0 0 256 256"><path fill="none" d="M0 0h256v256H0z"/><path d="M216 72v136a8 8 0 0 1-8 8H48a8 8 0 0 1-8-8V72Z" opacity=".2"/><path fill="none" stroke="currentColor" stroke-linecap="round" stroke-linejoin="round" stroke-width="16" d="M208 216H48a8 8 0 0 1-8-8V72l16-32h144l16 32v136a8 8 0 0 1-8 8M40 72h176M128 104v80"/><path fill="none" stroke="currentColor" stroke-linecap="round" stroke-linejoin="round" stroke-width="16" d="m96 136 32-32 32 32"/></svg>