<svg xmlns="http://www.w3.org/2000/svg" viewBox="0 0 256 256"><path fill="none" d="M0 0h256v256H0z"/><path d="M168 24h-48a48 48 0 0 0-48 48v8H56a24 24 0 0 0-24 24v29.19a8 8 0 0 0 1.75 5L72 176v40a8 8 0 0 0 8 8h112a8 8 0 0 0 8-8v-40l15.69-54.92a7.9 7.9 0 0 0 .31-2.2V72a48 48 0 0 0-48-48" opacity=".2"/><path fill="none" stroke="currentColor" stroke-linecap="round" stroke-linejoin="round" stroke-width="16" d="M72 104V72a48 48 0 0 1 48-48h48a48 48 0 0 1 48 48v46.88a7.9 7.9 0 0 1-.31 2.2L200 176v40a8 8 0 0 1-8 8H80a8 8 0 0 1-8-8v-40l-38.25-37.81a8 8 0 0 1-1.75-5V104a24 24 0 0 1 24-24h16M104 160l64 32M168 160l-64 32"/></svg>