<svg xmlns="http://www.w3.org/2000/svg" viewBox="0 0 256 256"><path fill="none" d="M0 0h256v256H0z"/><path d="M208 78.73V72a40 40 0 0 0-80 0 40 40 0 0 0-80 0v6.73a48 48 0 0 0 0 90.54V176a40 40 0 0 0 80 0 40 40 0 0 0 80 0v-6.73a48 48 0 0 0 0-90.54" opacity=".2"/><path fill="none" stroke="currentColor" stroke-linecap="round" stroke-linejoin="round" stroke-width="16" d="M88 136a40 40 0 1 1-40 40v-6.73"/><path fill="none" stroke="currentColor" stroke-linecap="round" stroke-linejoin="round" stroke-width="16" d="M168 136a40 40 0 1 0 40 40v-6.73"/><path fill="none" stroke="currentColor" stroke-linecap="round" stroke-linejoin="round" stroke-width="16" d="M72 172h-8a48 48 0 0 1-16-93.27V72a40 40 0 0 1 80 0v104M184 172h8a48 48 0 0 0 16-93.27V72a40 40 0 0 0-80 0"/><path fill="none" stroke="currentColor" stroke-linecap="round" stroke-linejoin="round" stroke-width="16" d="M200 112h-4a28 28 0 0 1-28-28v-4M56 112h4a28 28 0 0 0 28-28v-4"/></svg>