<svg xmlns="http://www.w3.org/2000/svg" viewBox="0 0 256 256"><path fill="none" d="M0 0h256v256H0z"/><path d="M208 111a32 32 0 0 0-8-63h-56a32 32 0 0 1 8 63v89a8 8 0 0 1-8 8h56a8 8 0 0 0 8-8Z" opacity=".2"/><path fill="none" stroke="currentColor" stroke-linecap="round" stroke-linejoin="round" stroke-width="16" d="M48 112a32 32 0 0 1 0-64h96a32 32 0 0 1 0 64"/><path fill="none" stroke="currentColor" stroke-linecap="round" stroke-linejoin="round" stroke-width="16" d="M128 48h72a32 32 0 0 1 0 64M152 111v89a8 8 0 0 1-8 8H48a8 8 0 0 1-8-8v-89"/><path fill="none" stroke="currentColor" stroke-linecap="round" stroke-linejoin="round" stroke-width="16" d="M208 111v89a8 8 0 0 1-8 8h-56"/></svg>