<svg xmlns="http://www.w3.org/2000/svg" viewBox="0 0 256 256"><path fill="none" d="M0 0h256v256H0z"/><path d="M32 104h192V72a8 8 0 0 0-8-8H40a8 8 0 0 0-8 8ZM32 168h192v32a8 8 0 0 1-8 8H40a8 8 0 0 1-8-8Z" opacity=".2"/><rect width="192" height="144" x="32" y="64" fill="none" stroke="currentColor" stroke-linecap="round" stroke-linejoin="round" stroke-width="16" rx="8"/><path fill="none" stroke="currentColor" stroke-linecap="round" stroke-linejoin="round" stroke-width="16" d="M168 64V48a16 16 0 0 0-16-16h-48a16 16 0 0 0-16 16v16M32 168h192M32 104h192"/></svg>