<svg xmlns="http://www.w3.org/2000/svg" viewBox="0 0 256 256"><path fill="none" d="M0 0h256v256H0z"/><path d="M216 48H72a8 8 0 0 0-8 8v24h120a8 8 0 0 1 8 8v88h24a8 8 0 0 0 8-8V56a8 8 0 0 0-8-8" opacity=".2"/><rect width="160" height="128" x="32" y="80" fill="none" stroke="currentColor" stroke-linecap="round" stroke-linejoin="round" stroke-width="16" rx="8"/><path fill="none" stroke="currentColor" stroke-linecap="round" stroke-linejoin="round" stroke-width="16" d="M64 80V56a8 8 0 0 1 8-8h144a8 8 0 0 1 8 8v112a8 8 0 0 1-8 8h-24M32 112h160"/></svg>