<svg xmlns="http://www.w3.org/2000/svg" viewBox="0 0 256 256"><path fill="none" d="M0 0h256v256H0z"/><rect width="184" height="64" x="8" y="144" opacity=".2" rx="32"/><rect width="184" height="64" x="8" y="144" fill="none" stroke="currentColor" stroke-linecap="round" stroke-linejoin="round" stroke-width="16" rx="32"/><path fill="none" stroke="currentColor" stroke-linecap="round" stroke-linejoin="round" stroke-width="16" d="M56 48v96M248 144h-8a16 16 0 0 0-16 16v32a16 16 0 0 0 16 16h8M192 176h32M40 176h120M16 154.83V56a8 8 0 0 1 8-8h90.67a8 8 0 0 1 7.38 4.92L160 144"/></svg>