<svg xmlns="http://www.w3.org/2000/svg" viewBox="0 0 256 256"><path fill="none" d="M0 0h256v256H0z"/><path d="M96 216v-80H84a60 60 0 0 1-60-60 20 20 0 0 1 20-20 20 20 0 0 1 20 20 20 20 0 0 0 20 20h12V56a32 32 0 0 1 32-32 32 32 0 0 1 32 32v80h12a20 20 0 0 0 20-20 20 20 0 0 1 20-20 20 20 0 0 1 20 20 60 60 0 0 1-60 60h-12v40Z" opacity=".2"/><path fill="none" stroke="currentColor" stroke-linecap="round" stroke-linejoin="round" stroke-width="16" d="M40 216h176M96 216v-80H84a60 60 0 0 1-60-60h0a20 20 0 0 1 20-20h0a20 20 0 0 1 20 20h0a20 20 0 0 0 20 20h12V56a32 32 0 0 1 32-32h0a32 32 0 0 1 32 32v80h12a20 20 0 0 0 20-20h0a20 20 0 0 1 20-20h0a20 20 0 0 1 20 20h0a60 60 0 0 1-60 60h-12v40"/></svg>