<svg xmlns="http://www.w3.org/2000/svg" viewBox="0 0 256 256"><path fill="none" d="M0 0h256v256H0z"/><path d="M208 64h-32l-16-24H96L80 64H48a16 16 0 0 0-16 16v112a16 16 0 0 0 16 16h160a16 16 0 0 0 16-16V80a16 16 0 0 0-16-16m-80 104a36 36 0 1 1 36-36 36 36 0 0 1-36 36" opacity=".2"/><path fill="none" stroke="currentColor" stroke-linecap="round" stroke-linejoin="round" stroke-width="16" d="m48 40 160 176M154.14 156.75a36 36 0 1 1-48.3-53.12M94 43l2-3h64l16 24h32a16 16 0 0 1 16 16v106"/><path fill="none" stroke="currentColor" stroke-linecap="round" stroke-linejoin="round" stroke-width="16" d="M200.73 208H48a16 16 0 0 1-16-16V80a16 16 0 0 1 16-16h21.82"/></svg>