<svg xmlns="http://www.w3.org/2000/svg" viewBox="0 0 256 256"><path fill="none" d="M0 0h256v256H0z"/><path d="M208 208H48a16 16 0 0 1-16-16V80a16 16 0 0 1 16-16h32l16-24h64l16 24h32a16 16 0 0 1 16 16v112a16 16 0 0 1-16 16" opacity=".2"/><path fill="none" stroke="currentColor" stroke-linecap="round" stroke-linejoin="round" stroke-width="16" d="M208 208H48a16 16 0 0 1-16-16V80a16 16 0 0 1 16-16h32l16-24h64l16 24h32a16 16 0 0 1 16 16v112a16 16 0 0 1-16 16"/><path fill="none" stroke="currentColor" stroke-linecap="round" stroke-linejoin="round" stroke-width="16" d="M168 96v24h-24M112 144H88v24"/><path fill="none" stroke="currentColor" stroke-linecap="round" stroke-linejoin="round" stroke-width="16" d="m168 120-11.72-12.28A40 40 0 0 0 104 104M152 160a40 40 0 0 1-52.28-3.73L88 144"/></svg>