<svg xmlns="http://www.w3.org/2000/svg" viewBox="0 0 256 256"><path fill="none" d="M0 0h256v256H0z"/><path d="M128 32s-52 32-52 76a52 52 0 0 0 52 52 24 24 0 0 1-24-24c0-24 24-40 24-40s24 16 24 40a24 24 0 0 1-24 24 52 52 0 0 0 52-52c0-44-52-76-52-76" opacity=".2"/><path fill="none" stroke="currentColor" stroke-linecap="round" stroke-linejoin="round" stroke-width="16" d="M180 108a52 52 0 0 1-104 0c0-44 52-76 52-76s52 32 52 76M40 168l176 56M216 168 40 224"/><path fill="none" stroke="currentColor" stroke-linecap="round" stroke-linejoin="round" stroke-width="16" d="M152 136a24 24 0 0 1-48 0c0-24 24-40 24-40s24 16 24 40"/></svg>