<svg xmlns="http://www.w3.org/2000/svg" viewBox="0 0 256 256"><path fill="none" d="M0 0h256v256H0z"/><path d="M224 176v24a8 8 0 0 1-8 8h-24a8 8 0 0 1-8-8v-24ZM72 176v24a8 8 0 0 1-8 8H40a8 8 0 0 1-8-8v-24ZM224 112l-29.89-67.25A8 8 0 0 0 186.8 40H69.2a8 8 0 0 0-7.31 4.75L32 112Z" opacity=".2"/><path fill="none" stroke="currentColor" stroke-linecap="round" stroke-linejoin="round" stroke-width="16" d="M16 112h224M224 176v24a8 8 0 0 1-8 8h-24a8 8 0 0 1-8-8v-24M72 176v24a8 8 0 0 1-8 8H40a8 8 0 0 1-8-8v-24M64 144h16M176 144h16"/><path fill="none" stroke="currentColor" stroke-linecap="round" stroke-linejoin="round" stroke-width="16" d="m224 112-29.89-67.25A8 8 0 0 0 186.8 40H69.2a8 8 0 0 0-7.31 4.75L32 112v64h192Z"/></svg>