<svg xmlns="http://www.w3.org/2000/svg" viewBox="0 0 256 256"><path fill="none" d="M0 0h256v256H0z"/><rect width="208" height="112" x="24" y="80" opacity=".2" rx="8"/><path fill="none" stroke="currentColor" stroke-linecap="round" stroke-linejoin="round" stroke-width="16" d="M152 136h32M168 120v32M72 136h32"/><rect width="208" height="112" x="24" y="80" fill="none" stroke="currentColor" stroke-linecap="round" stroke-linejoin="round" stroke-width="16" rx="8"/><path fill="none" stroke="currentColor" stroke-linecap="round" stroke-linejoin="round" stroke-width="16" d="M56 80V56a8 8 0 0 1 8-8h32a8 8 0 0 1 8 8v24M152 80V56a8 8 0 0 1 8-8h32a8 8 0 0 1 8 8v24"/></svg>