<svg xmlns="http://www.w3.org/2000/svg" viewBox="0 0 256 256"><path fill="none" d="M0 0h256v256H0z"/><path d="M43.81 223A8 8 0 0 1 33 212.19S64 112 104.4 72.4a56 56 0 0 1 79.2 79.2C144 192 43.81 223 43.81 223" opacity=".2"/><path fill="none" stroke="currentColor" stroke-linecap="round" stroke-linejoin="round" stroke-width="16" d="m224 32-40.4 40.4M43.81 223A8 8 0 0 1 33 212.19S64 112 104.4 72.4a56 56 0 0 1 79.2 79.2C144 192 43.81 223 43.81 223M232 72h-48.81M184 72.81V24M112 152l29.7 29.7M104.4 72.4 144 112"/></svg>