<svg xmlns="http://www.w3.org/2000/svg" viewBox="0 0 256 256"><path fill="none" d="M0 0h256v256H0z"/><path d="m24 160 22.49-89.94A8 8 0 0 1 54.25 64h147.5a8 8 0 0 1 7.76 6.06L232 160Z" opacity=".2"/><path fill="none" stroke="currentColor" stroke-linecap="round" stroke-linejoin="round" stroke-width="16" d="M232 160H24M24 160l22.49-89.94A8 8 0 0 1 54.25 64h147.5a8 8 0 0 1 7.76 6.06L232 160v32a8 8 0 0 1-8 8H32a8 8 0 0 1-8-8ZM72 96h16M120 96h16M168 96h16M72 128h16M120 128h16M168 128h16M72 64V40a8 8 0 0 1 8-8h40a8 8 0 0 1 8 8v24"/></svg>