<svg xmlns="http://www.w3.org/2000/svg" viewBox="0 0 256 256"><path fill="none" d="M0 0h256v256H0z"/><path d="M192 224V112l13.66-13.66a8 8 0 0 0 2.34-5.65V48a8 8 0 0 0-8-8h-24v32h-32V40h-32v32H80V40H56a8 8 0 0 0-8 8v44.69a8 8 0 0 0 2.34 5.65L64 112v112h40v-56a24 24 0 0 1 48 0v56Z" opacity=".2"/><path fill="none" stroke="currentColor" stroke-linecap="round" stroke-linejoin="round" stroke-width="16" d="M192 224V112l13.66-13.66a8 8 0 0 0 2.34-5.65V48a8 8 0 0 0-8-8h-24v32h-32V40h-32v32H80V40H56a8 8 0 0 0-8 8v44.69a8 8 0 0 0 2.34 5.65L64 112v112"/><path fill="none" stroke="currentColor" stroke-linecap="round" stroke-linejoin="round" stroke-width="16" d="M104 224v-56a24 24 0 0 1 48 0v56M40 224h176"/></svg>