<svg xmlns="http://www.w3.org/2000/svg" viewBox="0 0 256 256"><path fill="none" d="M0 0h256v256H0z"/><path d="M67.6 67.6a102.87 102.87 0 0 1 120.8 0l21.94-25.24A8 8 0 0 1 224 48v88c0 48.6-43 88-96 88s-96-39.4-96-88V48a8 8 0 0 1 13.66-5.66Z" opacity=".2"/><path fill="none" stroke="currentColor" stroke-linecap="round" stroke-linejoin="round" stroke-width="16" d="M128 192v32"/><circle cx="84" cy="140" r="12"/><circle cx="172" cy="140" r="12"/><path fill="none" stroke="currentColor" stroke-linecap="round" stroke-linejoin="round" stroke-width="16" d="M128 48v40M144 176l-16 16-16-16M96 53.01V88M160 53.01V88"/><path fill="none" stroke="currentColor" stroke-linecap="round" stroke-linejoin="round" stroke-width="16" d="M67.6 67.6a102.87 102.87 0 0 1 120.8 0h0l21.94-25.24A8 8 0 0 1 224 48v88c0 48.6-43 88-96 88s-96-39.4-96-88V48a8 8 0 0 1 13.66-5.66Z"/></svg>