<svg xmlns="http://www.w3.org/2000/svg" viewBox="0 0 256 256"><path fill="none" d="M0 0h256v256H0z"/><circle cx="104" cy="144" r="32" fill="none" stroke="currentColor" stroke-linecap="round" stroke-linejoin="round" stroke-width="16"/><path d="M72 144a32 32 0 1 1 32 32h88V80H64v64Z" opacity=".2"/><path fill="none" stroke="currentColor" stroke-linecap="round" stroke-linejoin="round" stroke-width="16" d="M53.39 208a56 56 0 0 1 101.22 0H216a8 8 0 0 0 8-8V56a8 8 0 0 0-8-8H40a8 8 0 0 0-8 8v144a8 8 0 0 0 8 8Z"/><path fill="none" stroke="currentColor" stroke-linecap="round" stroke-linejoin="round" stroke-width="16" d="M176 176h16V80H64v16"/></svg>