<svg xmlns="http://www.w3.org/2000/svg" viewBox="0 0 256 256"><path fill="none" d="M0 0h256v256H0z"/><path d="M80 144v40a8 8 0 0 0 8 8h96.42L224 224V96a8 8 0 0 0-8-8h-40v48a8 8 0 0 1-8 8Z" opacity=".2"/><path fill="none" stroke="currentColor" stroke-linecap="round" stroke-linejoin="round" stroke-width="16" d="M71.58 144 32 176V48a8 8 0 0 1 8-8h128a8 8 0 0 1 8 8v88a8 8 0 0 1-8 8Z"/><path fill="none" stroke="currentColor" stroke-linecap="round" stroke-linejoin="round" stroke-width="16" d="M80 144v40a8 8 0 0 0 8 8h96.42L224 224V96a8 8 0 0 0-8-8h-40"/></svg>