<svg xmlns="http://www.w3.org/2000/svg" viewBox="0 0 256 256"><path fill="none" d="M0 0h256v256H0z"/><path d="M163.94 80.11A71.8 71.8 0 0 1 168 104a72 72 0 0 1-72 72h-3.9a72 72 0 0 0 67.9 48h64a8 8 0 0 0 8-8v-64a72 72 0 0 0-68.06-71.89" opacity=".2"/><path fill="none" stroke="currentColor" stroke-linecap="round" stroke-linejoin="round" stroke-width="16" d="M96 176H32a8 8 0 0 1-8-8v-64a72 72 0 0 1 72-72h0a72 72 0 0 1 72 72h0a72 72 0 0 1-72 72"/><path fill="none" stroke="currentColor" stroke-linecap="round" stroke-linejoin="round" stroke-width="16" d="M92.1 176a72 72 0 0 0 67.9 48h64a8 8 0 0 0 8-8v-64a72 72 0 0 0-68.06-71.89"/></svg>