<svg xmlns="http://www.w3.org/2000/svg" viewBox="0 0 256 256"><path fill="none" d="M0 0h256v256H0z"/><path d="M132 216H48a8 8 0 0 1-8-8v-84a92 92 0 0 1 92-92 92 92 0 0 1 92 92 92 92 0 0 1-92 92" opacity=".2"/><path fill="none" stroke="currentColor" stroke-linecap="round" stroke-linejoin="round" stroke-width="16" d="M132 216H48a8 8 0 0 1-8-8v-84a92 92 0 0 1 92-92h0a92 92 0 0 1 92 92h0a92 92 0 0 1-92 92"/><circle cx="132" cy="128" r="12"/><circle cx="88" cy="128" r="12"/><circle cx="176" cy="128" r="12"/></svg>