<svg xmlns="http://www.w3.org/2000/svg" viewBox="0 0 256 256"><path fill="none" d="M0 0h256v256H0z"/><path d="m104 147.43 98.34-97.09a8 8 0 0 1 11.32 0l24 23.6a8 8 0 0 1 0 11.32l-128.4 128.4a8 8 0 0 1-11.32 0l-71.6-72a8 8 0 0 1 0-11.31l24-24a8 8 0 0 1 11.32 0Z" opacity=".2"/><path fill="none" stroke="currentColor" stroke-linecap="round" stroke-linejoin="round" stroke-width="16" d="m104 147.43 98.34-97.09a8 8 0 0 1 11.32 0l24 23.6a8 8 0 0 1 0 11.32l-128.4 128.4a8 8 0 0 1-11.32 0l-71.6-72a8 8 0 0 1 0-11.31l24-24a8 8 0 0 1 11.32 0Z"/></svg>