<svg xmlns="http://www.w3.org/2000/svg" viewBox="0 0 256 256"><path fill="none" d="M0 0h256v256H0z"/><path d="m64 216-24-24V48a8 8 0 0 1 8-8h160a8 8 0 0 1 8 8v160a8 8 0 0 1-8 8Z" opacity=".2"/><path fill="none" stroke="currentColor" stroke-linecap="round" stroke-linejoin="round" stroke-width="16" d="M40 144V48a8 8 0 0 1 8-8h160a8 8 0 0 1 8 8v160a8 8 0 0 1-8 8h-72"/><path fill="none" stroke="currentColor" stroke-linecap="round" stroke-linejoin="round" stroke-width="16" d="m40 192 24 24 56-56"/></svg>