<svg xmlns="http://www.w3.org/2000/svg" viewBox="0 0 256 256"><path fill="none" d="M0 0h256v256H0z"/><path d="M184 40 24 88v24h8a24 24 0 0 1 24 23.54C56.25 149 44.91 160 31.46 160H24v32h56v-8a32 32 0 0 1 64 0v8h80a8 8 0 0 0 8-8V88a48 48 0 0 0-48-48m-16 96a32 32 0 0 1-27.72-48h55.44A32 32 0 0 1 168 136" opacity=".2"/><path fill="none" stroke="currentColor" stroke-linecap="round" stroke-linejoin="round" stroke-width="16" d="M24 160h7.46c13.45 0 24.79-11 24.54-24.46A24 24 0 0 0 32 112h-8V88h208v96a8 8 0 0 1-8 8H24ZM24 88l160-48a48 48 0 0 1 48 48"/><path fill="none" stroke="currentColor" stroke-linecap="round" stroke-linejoin="round" stroke-width="16" d="M80 192v-8a32 32 0 0 1 64 0v8M195.72 88a32 32 0 1 1-55.44 0"/></svg>