<svg xmlns="http://www.w3.org/2000/svg" viewBox="0 0 256 256"><path fill="none" d="M0 0h256v256H0z"/><path d="M75.23 62.81a307.7 307.7 0 0 0-18.13 48.9 32 32 0 1 0 61.82 16.56 332 332 0 0 0 8-52.54ZM179.94 85a311 311 0 0 1 19 50.69 32 32 0 1 1-61.82 16.56c-5-18.72-7.46-38-8.59-54.39Z" opacity=".2"/><path fill="none" stroke="currentColor" stroke-linecap="round" stroke-linejoin="round" stroke-width="16" d="m128 56 32-8s26.48 41.35 38.9 87.71a32 32 0 1 1-61.82 16.56C124.66 105.91 128 56 128 56M176.27 174.9l14.36 53.57M216 221.67l-48 12.86"/><path fill="none" stroke="currentColor" stroke-linecap="round" stroke-linejoin="round" stroke-width="16" d="m128 32-32-8s-26.48 41.35-38.9 87.71a32 32 0 1 0 61.82 16.56C130.29 81.8 128 32 128 32M79.73 150.9l-14.36 53.57M40 197.67l48 12.86M128.49 97.88 179.94 85M126.92 75.73 75.23 62.81M192 40l16-8M208 72h16M56 32l-16-8M40 64H24"/></svg>