<svg xmlns="http://www.w3.org/2000/svg" viewBox="0 0 256 256"><path fill="none" d="M0 0h256v256H0z"/><path d="M184 64a48.3 48.3 0 0 0-10.35 1.12 48 48 0 0 0-91.28 0A48 48 0 1 0 72 160h112a48 48 0 0 0 0-96" opacity=".2"/><path fill="none" stroke="currentColor" stroke-linecap="round" stroke-linejoin="round" stroke-width="16" d="m96 160-8-32M160 160l8-32M128 160v-32M173.65 65.12A48 48 0 1 1 184 160H72a48 48 0 1 1 10.35-94.88"/><path fill="none" stroke="currentColor" stroke-linecap="round" stroke-linejoin="round" stroke-width="16" d="M80 80a48 48 0 0 1 96 0M200 157.27V208a8 8 0 0 1-8 8H64a8 8 0 0 1-8-8v-50.73"/></svg>