<svg xmlns="http://www.w3.org/2000/svg" viewBox="0 0 256 256"><path fill="none" d="M0 0h256v256H0z"/><path d="M208 40H48a8 8 0 0 0-8 8v160a8 8 0 0 0 8 8h160a8 8 0 0 0 8-8V48a8 8 0 0 0-8-8M88 184a16 16 0 1 1 16-16 16 16 0 0 1-16 16m80-64a16 16 0 1 1 16-16 16 16 0 0 1-16 16" opacity=".2"/><circle cx="168" cy="104" r="16" fill="none" stroke="currentColor" stroke-linecap="round" stroke-linejoin="round" stroke-width="16"/><circle cx="88" cy="168" r="16" fill="none" stroke="currentColor" stroke-linecap="round" stroke-linejoin="round" stroke-width="16"/><path fill="none" stroke="currentColor" stroke-linecap="round" stroke-linejoin="round" stroke-width="16" d="M152 216v-56L88 96V40M88 152V96"/><rect width="176" height="176" x="40" y="40" fill="none" stroke="currentColor" stroke-linecap="round" stroke-linejoin="round" stroke-width="16" rx="8"/><path fill="none" stroke="currentColor" stroke-linecap="round" stroke-linejoin="round" stroke-width="16" d="M136 40v32l20.69 20.69"/></svg>