<svg xmlns="http://www.w3.org/2000/svg" viewBox="0 0 256 256"><path fill="none" d="M0 0h256v256H0z"/><path d="M160 40a39.83 39.83 0 0 1 8 24v8H88v-8a39.83 39.83 0 0 1 8-24H56a8 8 0 0 0-8 8v168a8 8 0 0 0 8 8h144a8 8 0 0 0 8-8V48a8 8 0 0 0-8-8Z" opacity=".2"/><path fill="none" stroke="currentColor" stroke-linecap="round" stroke-linejoin="round" stroke-width="16" d="M96 152h64M96 120h64M160 40h40a8 8 0 0 1 8 8v168a8 8 0 0 1-8 8H56a8 8 0 0 1-8-8V48a8 8 0 0 1 8-8h40"/><path fill="none" stroke="currentColor" stroke-linecap="round" stroke-linejoin="round" stroke-width="16" d="M88 72v-8a40 40 0 0 1 80 0v8Z"/></svg>