<svg xmlns="http://www.w3.org/2000/svg" viewBox="0 0 256 256"><path fill="none" d="M0 0h256v256H0z"/><path d="M160 48a80 80 0 0 0-74.1 49.84v-.1A56 56 0 1 0 72 208h88a80 80 0 0 0 0-160" opacity=".2"/><path fill="none" stroke="currentColor" stroke-linecap="round" stroke-linejoin="round" stroke-width="16" d="m48 40 160 176M193.89 200.49A79.7 79.7 0 0 1 160 208H72A56 56 0 1 1 85.92 97.74M112.63 63.52a80 80 0 0 1 107.05 117.76"/><path fill="none" stroke="currentColor" stroke-linecap="round" stroke-linejoin="round" stroke-width="16" d="M80 128a79.7 79.7 0 0 1 11.07-40.63"/></svg>