<svg xmlns="http://www.w3.org/2000/svg" viewBox="0 0 256 256"><path fill="none" d="M0 0h256v256H0z"/><path d="M156 24a68.16 68.16 0 0 0-65.81 50.45v-.11A44 44 0 1 0 76 160h80a68 68 0 0 0 0-136" opacity=".2"/><circle cx="76" cy="196" r="12"/><circle cx="116" cy="212" r="12"/><circle cx="164" cy="196" r="12"/><circle cx="68" cy="236" r="12"/><circle cx="156" cy="236" r="12"/><path fill="none" stroke="currentColor" stroke-linecap="round" stroke-linejoin="round" stroke-width="16" d="M88 88a68.06 68.06 0 1 1 68 72H76a44 44 0 1 1 14.2-85.66"/></svg>