<svg xmlns="http://www.w3.org/2000/svg" viewBox="0 0 256 256"><path fill="none" d="M0 0h256v256H0z"/><g opacity=".2"><path d="M128 24c-90 0 0 96 0 96s90-96 0-96M32 120c0 90 96 0 96 0s-96-90-96 0M128 216c90 0 0-96 0-96s-90 96 0 96M128 120s96 90 96 0-96 0-96 0"/></g><path fill="none" stroke="currentColor" stroke-linecap="round" stroke-linejoin="round" stroke-width="16" d="M128 120s90-96 0-96 0 96 0 96M128 120s-96-90-96 0 96 0 96 0M128 120s-90 96 0 96 0-96 0-96M128 120s96 90 96 0-96 0-96 0"/><path fill="none" stroke="currentColor" stroke-linecap="round" stroke-linejoin="round" stroke-width="16" d="M128 120s64 56 80 120"/></svg>