<svg xmlns="http://www.w3.org/2000/svg" viewBox="0 0 256 256"><path fill="none" d="M0 0h256v256H0z"/><path d="M176 176a48 48 0 1 1 25.85-88.64A4 4 0 0 0 208 84V48a8 8 0 0 0-8-8H56a8 8 0 0 0-8 8v160a8 8 0 0 0 8 8h144a8 8 0 0 0 8-8v-36a4 4 0 0 0-6.12-3.38c-7.98 5.12-15.61 7.79-25.88 7.38" opacity=".2"/><path fill="none" stroke="currentColor" stroke-linecap="round" stroke-linejoin="round" stroke-width="16" d="M176 176a48 48 0 1 1 25.85-88.64A4 4 0 0 0 208 84V48a8 8 0 0 0-8-8H56a8 8 0 0 0-8 8v160a8 8 0 0 0 8 8h144a8 8 0 0 0 8-8v-36a4 4 0 0 0-6.12-3.38c-7.98 5.12-15.61 7.79-25.88 7.38"/></svg>