<svg xmlns="http://www.w3.org/2000/svg" viewBox="0 0 256 256"><path fill="none" d="M0 0h256v256H0z"/><path d="M80 206.84V152l-48-26.27v50.09a8 8 0 0 0 4.16 7ZM219.84 182.84a8 8 0 0 0 4.16-7v-50.1L176 152v54.84ZM172.86 47.44 131.84 25a8 8 0 0 0-7.68 0l-41 22.46L128 72Z" opacity=".2"/><path fill="none" stroke="currentColor" stroke-linecap="round" stroke-linejoin="round" stroke-width="16" d="m131.84 25 88 48.18a8 8 0 0 1 4.16 7v95.64a8 8 0 0 1-4.16 7l-88 48.18a8 8 0 0 1-7.68 0l-88-48.18a8 8 0 0 1-4.16-7V80.18a8 8 0 0 1 4.16-7l88-48.18a8 8 0 0 1 7.68 0M128 128v104"/><path fill="none" stroke="currentColor" stroke-linecap="round" stroke-linejoin="round" stroke-width="16" d="M32.03 125.73 80 152v54.84M224 125.72 176 152v54.84M83.14 47.44 128 72l44.86-24.56M33.14 76.06 128 128l94.86-51.94"/></svg>