<svg xmlns="http://www.w3.org/2000/svg" viewBox="0 0 256 256"><path fill="none" d="M0 0h256v256H0z"/><path d="M83.3 216A88 88 0 0 1 32 136V88h176v48a88 88 0 0 1-51.3 80Z" opacity=".2"/><path fill="none" stroke="currentColor" stroke-linecap="round" stroke-linejoin="round" stroke-width="16" d="M83.3 216A88 88 0 0 1 32 136V88h176v48a88 88 0 0 1-51.3 80M88 24v32M120 24v32M152 24v32M32 216h176"/><path fill="none" stroke="currentColor" stroke-linecap="round" stroke-linejoin="round" stroke-width="16" d="M208 88a32 32 0 0 1 32 32v8a32 32 0 0 1-32 32h-3.38"/></svg>