<svg xmlns="http://www.w3.org/2000/svg" viewBox="0 0 256 256"><path fill="none" d="M0 0h256v256H0z"/><path d="M180 48a28 28 0 0 1 28 28 28 28 0 0 1-28 28h-28V76a28 28 0 0 1 28-28M104 104H76a28 28 0 0 1-28-28 28 28 0 0 1 28-28 28 28 0 0 1 28 28zM152 152h28a28 28 0 0 1 28 28 28 28 0 0 1-28 28 28 28 0 0 1-28-28zM76 208a28 28 0 0 1-28-28 28 28 0 0 1 28-28h28v28a28 28 0 0 1-28 28" opacity=".2"/><path fill="none" stroke="currentColor" stroke-linecap="round" stroke-linejoin="round" stroke-width="16" d="M76 208a28 28 0 0 1-28-28h0a28 28 0 0 1 28-28h28v28a28 28 0 0 1-28 28M180 48a28 28 0 0 1 28 28v0a28 28 0 0 1-28 28h-28 0V76a28 28 0 0 1 28-28M104 104H76a28 28 0 0 1-28-28h0a28 28 0 0 1 28-28h0a28 28 0 0 1 28 28zM152 152h28a28 28 0 0 1 28 28v0a28 28 0 0 1-28 28h0a28 28 0 0 1-28-28zM104 104h48v48h-48z"/></svg>