<svg xmlns="http://www.w3.org/2000/svg" viewBox="0 0 256 256"><path fill="none" d="M0 0h256v256H0z"/><path d="M152 104 128 8l-24 96-96 24 96 24 24 96 24-96 96-24z" opacity=".2"/><path fill="none" stroke="currentColor" stroke-linecap="round" stroke-linejoin="round" stroke-width="16" d="m128 8-24 96 24 24 24-24zM128 248l-24-96 24-24 24 24zM152 104l96 24-96 24M104 152 8 128l96-24"/><path fill="none" stroke="currentColor" stroke-linecap="round" stroke-linejoin="round" stroke-width="16" d="M40.37 119.91a88 88 0 0 1 79.54-79.54M119.91 215.63a88 88 0 0 1-79.54-79.54M215.63 136.09a88 88 0 0 1-79.54 79.54M136.09 40.37a88 88 0 0 1 79.54 79.54"/></svg>