<svg xmlns="http://www.w3.org/2000/svg" viewBox="0 0 256 256"><path fill="none" d="M0 0h256v256H0z"/><path d="m101.11 197.11-42.22-42.22-18.4 50.63a7.79 7.79 0 0 0 10 10ZM78.09 102.09l75.82 75.82 41-14.9a7.79 7.79 0 0 0 2.85-12.84l-91.93-91.88A7.79 7.79 0 0 0 93 61.14Z" opacity=".2"/><path fill="none" stroke="currentColor" stroke-linecap="round" stroke-linejoin="round" stroke-width="16" d="M40.49 205.52 93 61.14a7.79 7.79 0 0 1 12.84-2.85l91.88 91.88a7.79 7.79 0 0 1-2.86 12.83L50.48 215.51a7.79 7.79 0 0 1-9.99-9.99M168 72s0-24 24-24 24-24 24-24M144 16v24M216 112l16 16M216 80l24-8M78.09 102.09l75.82 75.82M101.11 197.11l-42.22-42.22"/></svg>