<svg xmlns="http://www.w3.org/2000/svg" viewBox="0 0 256 256"><path fill="none" d="M0 0h256v256H0z"/><path d="M224 128a48 48 0 0 1-48-48 48 48 0 0 1-48-48 96 96 0 1 0 96 96" opacity=".2"/><circle cx="156" cy="172" r="12"/><circle cx="92" cy="164" r="12"/><circle cx="84" cy="108" r="12"/><circle cx="132" cy="124" r="12"/><path fill="none" stroke="currentColor" stroke-linecap="round" stroke-linejoin="round" stroke-width="16" d="M224 128a48 48 0 0 1-48-48 48 48 0 0 1-48-48 96 96 0 1 0 96 96"/></svg>