<svg xmlns="http://www.w3.org/2000/svg" viewBox="0 0 256 256"><path fill="none" d="M0 0h256v256H0z"/><path d="M232 112V72a8 8 0 0 0-8-8H32a8 8 0 0 0-8 8v40a8 8 0 0 0-8 8v48a8 8 0 0 0 8 8h208a8 8 0 0 0 8-8v-48a8 8 0 0 0-8-8" opacity=".2"/><path fill="none" stroke="currentColor" stroke-linecap="round" stroke-linejoin="round" stroke-width="16" d="M24 112V72a8 8 0 0 1 8-8h192a8 8 0 0 1 8 8v40M216 176v24M40 176v24M208 144v-24a8 8 0 0 1 8-8h16a8 8 0 0 1 8 8v48a8 8 0 0 1-8 8H24a8 8 0 0 1-8-8v-48a8 8 0 0 1 8-8h16a8 8 0 0 1 8 8v24ZM128 64v80"/></svg>