<svg xmlns="http://www.w3.org/2000/svg" viewBox="0 0 256 256"><path fill="none" d="M0 0h256v256H0z"/><rect width="160" height="64" x="48" y="160" opacity=".2" rx="32"/><path d="M64 104a32 32 0 0 1 32-32H63.22a48 48 0 0 0-47.07 38.53A8 8 0 0 0 24 120h40ZM239.85 110.53A48 48 0 0 0 192.78 72H160a32 32 0 0 1 32 32v16h40a8 8 0 0 0 7.85-9.47" opacity=".2"/><path fill="none" stroke="currentColor" stroke-linecap="round" stroke-linejoin="round" stroke-width="16" d="M56 24a48 48 0 0 0 48 48h48a48 48 0 0 0 48-48h0"/><rect width="160" height="64" x="48" y="160" fill="none" stroke="currentColor" stroke-linecap="round" stroke-linejoin="round" stroke-width="16" rx="32"/><path fill="none" stroke="currentColor" stroke-linecap="round" stroke-linejoin="round" stroke-width="16" d="M80 192h16M160 192h16"/><circle cx="100" cy="124" r="12"/><circle cx="156" cy="124" r="12"/><path fill="none" stroke="currentColor" stroke-linecap="round" stroke-linejoin="round" stroke-width="16" d="M160 72h32.78a48 48 0 0 1 47.07 38.53A8 8 0 0 1 232 120h-40M96 72H63.22a48 48 0 0 0-47.07 38.53A8 8 0 0 0 24 120h40"/><path fill="none" stroke="currentColor" stroke-linecap="round" stroke-linejoin="round" stroke-width="16" d="M64 164.28V104a32 32 0 0 1 32-32h64a32 32 0 0 1 32 32v60.28"/></svg>