<svg xmlns="http://www.w3.org/2000/svg" viewBox="0 0 256 256"><path fill="none" d="M0 0h256v256H0z"/><path d="M65.47 160.18C97.87 192 128 192 128 192s30.13 0 62.53-31.82L185.94 136H70.06Z" opacity=".2"/><path fill="none" stroke="currentColor" stroke-linecap="round" stroke-linejoin="round" stroke-width="16" d="M40 128c40 64 88 64 88 64s48 0 88-64a32 32 0 0 1 0 64H40a32 32 0 0 1 0-64"/><path fill="none" stroke="currentColor" stroke-linecap="round" stroke-linejoin="round" stroke-width="16" d="M65.47 160.18 85.54 54.53a8 8 0 0 1 12.86-4.77L123 70.25a8 8 0 0 0 10 0l24.6-20.49a8 8 0 0 1 12.86 4.77l20.07 105.65M70.06 136h115.88"/></svg>