<svg xmlns="http://www.w3.org/2000/svg" viewBox="0 0 256 256"><path fill="none" d="M0 0h256v256H0z"/><path d="M112 24h32a8 8 0 0 1 8 8v48h48a8 8 0 0 1 8 8v32a8 8 0 0 1-8 8h-48v96a8 8 0 0 1-8 8h-32a8 8 0 0 1-8-8v-96H56a8 8 0 0 1-8-8V88a8 8 0 0 1 8-8h48V32a8 8 0 0 1 8-8" opacity=".2"/><path fill="none" stroke="currentColor" stroke-linecap="round" stroke-linejoin="round" stroke-width="16" d="M112 24h32a8 8 0 0 1 8 8v48h48a8 8 0 0 1 8 8v32a8 8 0 0 1-8 8h-48v96a8 8 0 0 1-8 8h-32a8 8 0 0 1-8-8v-96H56a8 8 0 0 1-8-8V88a8 8 0 0 1 8-8h48V32a8 8 0 0 1 8-8"/></svg>