<svg xmlns="http://www.w3.org/2000/svg" viewBox="0 0 256 256"><path fill="none" d="M0 0h256v256H0z"/><path d="M24 116a52 52 0 0 1 52-52c28.72 0 52 19.28 52 48 0-28.72 23.28-48 52-48a52 52 0 0 1 52 52c0 52-48 68-48 68v24a8 8 0 0 1-8 8H80a8 8 0 0 1-8-8v-24s-48-16-48-68" opacity=".2"/><path fill="none" stroke="currentColor" stroke-linecap="round" stroke-linejoin="round" stroke-width="16" d="M128 176V8M104 32h48M24 116a52 52 0 0 1 52-52c28.72 0 52 19.28 52 48 0-28.72 23.28-48 52-48a52 52 0 0 1 52 52c0 52-48 68-48 68v24a8 8 0 0 1-8 8H80a8 8 0 0 1-8-8v-24s-48-16-48-68"/></svg>