<svg xmlns="http://www.w3.org/2000/svg" viewBox="0 0 256 256"><path fill="none" d="M0 0h256v256H0z"/><path d="M207.41 95.53 168 144l-32-73.65a20 20 0 0 1-15.92 0L88 144 48.61 95.52a19.8 19.8 0 0 1-9.22 4.16h-.08l15.6 93.59a8 8 0 0 0 7.87 6.73h130.44a8 8 0 0 0 7.89-6.68l15.6-93.59h-.08a19.8 19.8 0 0 1-9.22-4.2" opacity=".2"/><circle cx="128" cy="52" r="20" fill="none" stroke="currentColor" stroke-linecap="round" stroke-linejoin="round" stroke-width="16"/><circle cx="220" cy="80" r="20" fill="none" stroke="currentColor" stroke-linecap="round" stroke-linejoin="round" stroke-width="16"/><circle cx="36" cy="80" r="20" fill="none" stroke="currentColor" stroke-linecap="round" stroke-linejoin="round" stroke-width="16"/><path fill="none" stroke="currentColor" stroke-linecap="round" stroke-linejoin="round" stroke-width="16" d="M120.02 70.35 88 144 48.61 95.52M207.39 95.52 168 144l-32.02-73.65"/><path fill="none" stroke="currentColor" stroke-linecap="round" stroke-linejoin="round" stroke-width="16" d="m39.29 99.73 15.6 93.59a8 8 0 0 0 7.89 6.68h130.44a8 8 0 0 0 7.89-6.68l15.6-93.59"/></svg>