<svg xmlns="http://www.w3.org/2000/svg" viewBox="0 0 256 256"><path fill="none" d="M0 0h256v256H0z"/><path d="M54.71 200h146.58a8 8 0 0 0 7.88-6.61l22.7-104A8 8 0 0 0 218 82.76L176 128l-40.74-91.35a8 8 0 0 0-14.52 0L80 128 38 82.76a8 8 0 0 0-13.9 6.66l22.7 104a8 8 0 0 0 7.91 6.58" opacity=".2"/><path fill="none" stroke="currentColor" stroke-linecap="round" stroke-linejoin="round" stroke-width="16" d="M54.71 200h146.58a8 8 0 0 0 7.88-6.61l22.7-104A8 8 0 0 0 218 82.76L176 128l-40.74-91.35a8 8 0 0 0-14.52 0L80 128 38 82.76a8 8 0 0 0-13.9 6.66l22.7 104a8 8 0 0 0 7.91 6.58"/></svg>