<svg xmlns="http://www.w3.org/2000/svg" viewBox="0 0 256 256"><path fill="none" d="M0 0h256v256H0z"/><path d="M128 129.09V232a8 8 0 0 1-3.84-1l-88-48.16a8 8 0 0 1-4.16-7V80.2a8 8 0 0 1 .7-3.27Z" opacity=".2"/><path fill="none" stroke="currentColor" stroke-linecap="round" stroke-linejoin="round" stroke-width="16" d="m32.7 76.92 95.3 52.16 95.3-52.16"/><path fill="none" stroke="currentColor" stroke-linecap="round" stroke-linejoin="round" stroke-width="16" d="m131.84 25 88 48.18a8 8 0 0 1 4.16 7v95.64a8 8 0 0 1-4.16 7l-88 48.18a8 8 0 0 1-7.68 0l-88-48.18a8 8 0 0 1-4.16-7V80.18a8 8 0 0 1 4.16-7l88-48.18a8 8 0 0 1 7.68 0M128 129.09V232"/></svg>