<svg xmlns="http://www.w3.org/2000/svg" viewBox="0 0 256 256"><path fill="none" d="M0 0h256v256H0z"/><circle cx="76" cy="180" r="28" opacity=".2"/><circle cx="180" cy="180" r="28" opacity=".2"/><path d="m40 120 49.89-68.71a8 8 0 0 1 12.7-.29l12.94 15a16 16 0 0 0 24.94 0l12.94-15a8 8 0 0 1 12.7.29L216 120Z" opacity=".2"/><path fill="none" stroke="currentColor" stroke-linecap="round" stroke-linejoin="round" stroke-width="16" d="M8 120h240"/><circle cx="76" cy="180" r="28" fill="none" stroke="currentColor" stroke-linecap="round" stroke-linejoin="round" stroke-width="16"/><circle cx="180" cy="180" r="28" fill="none" stroke="currentColor" stroke-linecap="round" stroke-linejoin="round" stroke-width="16"/><path fill="none" stroke="currentColor" stroke-linecap="round" stroke-linejoin="round" stroke-width="16" d="M103.72 184h48.56M40 120l49.89-68.71a8 8 0 0 1 12.7-.29l12.94 15a16 16 0 0 0 24.94 0l12.94-15a8 8 0 0 1 12.7.29L216 120"/></svg>