<svg xmlns="http://www.w3.org/2000/svg" viewBox="0 0 256 256"><path fill="none" d="M0 0h256v256H0z"/><path d="M160 96a16 16 0 0 1 16-16h24V64a16 16 0 0 0-16-16H40a16 16 0 0 0-16 16v96a16 16 0 0 0 16 16h120Z" opacity=".2"/><rect width="128" height="80" x="136" y="104" fill="none" stroke="currentColor" stroke-linecap="round" stroke-linejoin="round" stroke-width="16" rx="16" transform="rotate(90 200 144)"/><path fill="none" stroke="currentColor" stroke-linecap="round" stroke-linejoin="round" stroke-width="16" d="M128 208H88M160 176H40a16 16 0 0 1-16-16V64a16 16 0 0 1 16-16h144a16 16 0 0 1 16 16v16M192 112h16"/></svg>