<svg xmlns="http://www.w3.org/2000/svg" viewBox="0 0 256 256"><path fill="none" d="M0 0h256v256H0z"/><path d="M112 232s32-24 32-80h48a80 80 0 0 1-80 80M80 152c0-56 32-80 32-80s32 24 32 80Z" opacity=".2"/><path fill="none" stroke="currentColor" stroke-linecap="round" stroke-linejoin="round" stroke-width="16" d="M112 16v56"/><circle cx="112" cy="152" r="80" fill="none" stroke="currentColor" stroke-linecap="round" stroke-linejoin="round" stroke-width="16"/><path fill="none" stroke="currentColor" stroke-linecap="round" stroke-linejoin="round" stroke-width="16" d="M144 152c0 56-32 80-32 80s-32-24-32-80 32-80 32-80 32 24 32 80M32 152h160M232 72v32M248 88h-32M184 16v48M208 40h-48"/></svg>