<svg xmlns="http://www.w3.org/2000/svg" viewBox="0 0 256 256"><path fill="none" d="M0 0h256v256H0z"/><path d="M64 208v-3.5a72 72 0 0 1 39.8-64.4l48.4-24.2A72 72 0 0 0 192 51.5V48H64v3.5a72 72 0 0 0 39.8 64.4l48.4 24.2a72 72 0 0 1 39.8 64.4v3.5Z" opacity=".2"/><path fill="none" stroke="currentColor" stroke-linecap="round" stroke-linejoin="round" stroke-width="16" d="M96 48h96M64 24v27.5a72 72 0 0 0 39.8 64.4l48.4 24.2a72 72 0 0 1 39.8 64.4V232M64 208h96M107.89 80h78.23M69.88 176h78.23M93.38 146.47A72 72 0 0 0 64 204.5V232M192 24v27.5a72 72 0 0 1-29.38 58"/></svg>