<svg xmlns="http://www.w3.org/2000/svg" viewBox="0 0 256 256"><path fill="none" d="M0 0h256v256H0z"/><path d="M104 48h48l56 72.38V184a32 32 0 0 1-32 32H80a32 32 0 0 1-32-32v-63.62Z" opacity=".2"/><path fill="none" stroke="currentColor" stroke-linecap="round" stroke-linejoin="round" stroke-width="16" d="M128 192v24M144 176l-16 16-16-16M104 48h48M104 48 50.37 32.24a8 8 0 0 0-9.8 6.29l-16.42 88c-1.54 8.23 9 13 14.16 6.42ZM152 48l53.63-15.76a8 8 0 0 1 9.8 6.29l16.42 88c1.54 8.23-9 13-14.16 6.42Z"/><circle cx="92" cy="140" r="12"/><circle cx="164" cy="140" r="12"/><path fill="none" stroke="currentColor" stroke-linecap="round" stroke-linejoin="round" stroke-width="16" d="M208 120.38V184a32 32 0 0 1-32 32H80a32 32 0 0 1-32-32v-63.62"/></svg>