<svg xmlns="http://www.w3.org/2000/svg" viewBox="0 0 256 256"><path fill="none" d="M0 0h256v256H0z"/><path d="M200 224a8 8 0 0 0 7.35-11.15L160 112l22.86-35.88a8 8 0 0 0 0-8.24L160 35.22 153 44a32 32 0 0 1-50 0l-7-8.77-22.86 32.65a8 8 0 0 0 0 8.24L96 112 48.66 212.85A8 8 0 0 0 56 224Z" opacity=".2"/><path fill="none" stroke="currentColor" stroke-linecap="round" stroke-linejoin="round" stroke-width="16" d="M160 35.22V8M96 8v27.22M200 224a8 8 0 0 0 7.35-11.15L160 112l22.86-35.88a8 8 0 0 0 0-8.24L160 35.22 153 44a32 32 0 0 1-50 0l-7-8.77-22.86 32.65a8 8 0 0 0 0 8.24L96 112 48.66 212.85A8 8 0 0 0 56 224ZM96 112h64"/></svg>