<svg xmlns="http://www.w3.org/2000/svg" viewBox="0 0 256 256"><path fill="none" d="M0 0h256v256H0z"/><circle cx="76" cy="76" r="36" opacity=".2"/><circle cx="180" cy="76" r="36" opacity=".2"/><circle cx="76" cy="180" r="36" opacity=".2"/><circle cx="180" cy="180" r="36" opacity=".2"/><path fill="none" stroke="currentColor" stroke-linecap="round" stroke-linejoin="round" stroke-width="16" d="m152 104 32-32M72 184l32-32M152 152l32 32M72 72l32 32M146.05 64A36 36 0 1 1 192 110M192 146.05A36 36 0 1 1 146.05 192M110 192a36 36 0 1 1-46-45.95M64 110a36 36 0 1 1 46-46M104 104h48v48h-48z"/></svg>