<svg xmlns="http://www.w3.org/2000/svg" viewBox="0 0 256 256"><path fill="none" d="M0 0h256v256H0z"/><path d="M160 216c-8.07 9.77-18.34 16-32 16a44 44 0 0 1-44-44c0-41.49-36-28-36-84a80 80 0 0 1 160 0c0 40-14.44 72-48 112" opacity=".2"/><path fill="none" stroke="currentColor" stroke-linecap="round" stroke-linejoin="round" stroke-width="16" d="M160 216c-8.07 9.77-18.34 16-32 16a44 44 0 0 1-44-44c0-41.49-36-28-36-84a80 80 0 0 1 160 0"/><path fill="none" stroke="currentColor" stroke-linecap="round" stroke-linejoin="round" stroke-width="16" d="M173.86 168a16 16 0 0 1-29.86-8c0-24 24-32 24-56a40 40 0 0 0-80 0"/></svg>