<svg xmlns="http://www.w3.org/2000/svg" viewBox="0 0 256 256"><path fill="none" d="M0 0h256v256H0z"/><path d="M160 216c-8.07 9.77-18.34 16-32 16a44 44 0 0 1-44-44c0-41.49-36-28-36-84a80 80 0 0 1 160 0c0 40-14.44 72-48 112" opacity=".2"/><path fill="none" stroke="currentColor" stroke-linecap="round" stroke-linejoin="round" stroke-width="16" d="m48 40 160 176M87 35.3A80 80 0 0 1 208 104M160 216c-8.07 9.77-18.34 16-32 16a44 44 0 0 1-44-44c0-41.49-36-28-36-84a79.63 79.63 0 0 1 15.34-47.12"/><path fill="none" stroke="currentColor" stroke-linecap="round" stroke-linejoin="round" stroke-width="16" d="M91.43 87.77A39.8 39.8 0 0 0 88 104M164 120a34 34 0 0 0 4-16 40 40 0 0 0-53-37.85M169.07 173.18A16 16 0 0 1 144 160a33.2 33.2 0 0 1 2.2-12"/></svg>