<svg xmlns="http://www.w3.org/2000/svg" viewBox="0 0 256 256"><path fill="none" d="M0 0h256v256H0z"/><path d="M32 216V56a8 8 0 0 1 8-8h176a8 8 0 0 1 8 8v160l-32-16-32 16-32-16-32 16-32-16Z" opacity=".2"/><path fill="none" stroke="currentColor" stroke-linecap="round" stroke-linejoin="round" stroke-width="16" d="M32 216V56a8 8 0 0 1 8-8h176a8 8 0 0 1 8 8v160l-32-16-32 16-32-16-32 16-32-16Z"/><path fill="none" stroke="currentColor" stroke-linecap="round" stroke-linejoin="round" stroke-width="16" d="m64 160 32-64 32 64M72 144h48M144 128h48M168 104v48"/></svg>