<svg xmlns="http://www.w3.org/2000/svg" viewBox="0 0 256 256"><path fill="none" d="M0 0h256v256H0z"/><path d="M88 160a72 72 0 0 1 72-72 73 73 0 0 1 7.6.4 72 72 0 1 0-79.2 79.2 73 73 0 0 1-.4-7.6" opacity=".2"/><path d="M167.6 88.4a73 73 0 0 1 .4 7.6 72 72 0 0 1-72 72 73 73 0 0 1-7.6-.4 72 72 0 1 0 79.2-79.2" opacity=".2"/><circle cx="96" cy="96" r="72" fill="none" stroke="currentColor" stroke-linecap="round" stroke-linejoin="round" stroke-width="16"/><circle cx="160" cy="160" r="72" fill="none" stroke="currentColor" stroke-linecap="round" stroke-linejoin="round" stroke-width="16"/></svg>