<svg xmlns="http://www.w3.org/2000/svg" viewBox="0 0 256 256"><path fill="none" d="M0 0h256v256H0z"/><path d="M128 56c-80 0-112 72-112 72s32 72 112 72 112-72 112-72-32-72-112-72m0 112a40 40 0 1 1 40-40 40 40 0 0 1-40 40" opacity=".2"/><path fill="none" stroke="currentColor" stroke-linecap="round" stroke-linejoin="round" stroke-width="16" d="M128 56c-80 0-112 72-112 72s32 72 112 72 112-72 112-72-32-72-112-72"/><circle cx="128" cy="128" r="40" fill="none" stroke="currentColor" stroke-linecap="round" stroke-linejoin="round" stroke-width="16"/></svg>