<svg xmlns="http://www.w3.org/2000/svg" viewBox="0 0 256 256"><path fill="none" d="M0 0h256v256H0z"/><path d="M40 77.09a8 8 0 0 1 5.27-7.52l80-29.09a8 8 0 0 1 5.46 0l80 29.09a8 8 0 0 1 5.27 7.52V136c0 56-88 72-88 72s-88-16-88-72Z" opacity=".2"/><path fill="none" stroke="currentColor" stroke-linecap="round" stroke-linejoin="round" stroke-width="16" d="M40 77.09a8 8 0 0 1 5.27-7.52l80-29.09a8 8 0 0 1 5.46 0l80 29.09a8 8 0 0 1 5.27 7.52V136c0 56-88 72-88 72s-88-16-88-72ZM88 104h80M88 136h80"/><path fill="none" stroke="currentColor" stroke-linecap="round" stroke-linejoin="round" stroke-width="16" d="M213.41 152H224a24 24 0 0 0 24-24v-24a24 24 0 0 0-24-24h-8M42.59 152H32a24 24 0 0 1-24-24v-24a24 24 0 0 1 24-24h8"/></svg>