<svg xmlns="http://www.w3.org/2000/svg" viewBox="0 0 256 256"><path fill="none" d="M0 0h256v256H0z"/><path d="M144 32 80 80v46.14a254 254 0 0 1 40 12.5V96h48v32.08a254.7 254.7 0 0 1 40-7V80Z" opacity=".2"/><path d="M24 216v-96a255.5 255.5 0 0 1 199.85 96Z" opacity=".2"/><path fill="none" stroke="currentColor" stroke-linecap="round" stroke-linejoin="round" stroke-width="16" d="M128 142a255 255 0 0 1 104-22M164.89 162.23A223.8 223.8 0 0 1 232 152M196.89 187.2A193.5 193.5 0 0 1 232 184M24 184a191.1 191.1 0 0 1 106.17 32M24 152a223.28 223.28 0 0 1 156.77 64"/><path fill="none" stroke="currentColor" stroke-linecap="round" stroke-linejoin="round" stroke-width="16" d="M24 120a255.5 255.5 0 0 1 199.85 96"/><path fill="none" stroke="currentColor" stroke-linecap="round" stroke-linejoin="round" stroke-width="16" d="M80 126.14V80l64-48 64 48v41.11"/><path fill="none" stroke="currentColor" stroke-linecap="round" stroke-linejoin="round" stroke-width="16" d="M120 138.61V96h48v32.06"/></svg>