<svg xmlns="http://www.w3.org/2000/svg" viewBox="0 0 256 256"><path fill="none" d="M0 0h256v256H0z"/><path d="M176 192h24a8 8 0 0 0 8-8V72l-40-40H88a8 8 0 0 0-8 8v24h56l40 40Z" opacity=".2"/><path fill="none" stroke="currentColor" stroke-linecap="round" stroke-linejoin="round" stroke-width="16" d="M168 224H56a8 8 0 0 1-8-8V72a8 8 0 0 1 8-8h80l40 40v112a8 8 0 0 1-8 8"/><path fill="none" stroke="currentColor" stroke-linecap="round" stroke-linejoin="round" stroke-width="16" d="M80 64V40a8 8 0 0 1 8-8h80l40 40v112a8 8 0 0 1-8 8h-24M88 152h48M88 184h48"/></svg>