<svg xmlns="http://www.w3.org/2000/svg" viewBox="0 0 256 256"><path fill="none" d="M0 0h256v256H0z"/><path fill="none" stroke="currentColor" stroke-linecap="round" stroke-linejoin="round" stroke-width="16" d="M104 192h16a20 20 0 0 0 0-40h-16v56"/><path d="M152 32v56h56z" opacity=".2"/><path fill="none" stroke="currentColor" stroke-linecap="round" stroke-linejoin="round" stroke-width="16" d="M48 112V40a8 8 0 0 1 8-8h96l56 56v24"/><path fill="none" stroke="currentColor" stroke-linecap="round" stroke-linejoin="round" stroke-width="16" d="M152 32v56h56M200 184h8v16.87a22.12 22.12 0 0 1-16 7.13c-13.25 0-24-12.54-24-28s10.75-28 24-28a21.3 21.3 0 0 1 12 3.75M36 190a18 18 0 0 0 36 0v-38"/></svg>