<svg xmlns="http://www.w3.org/2000/svg" viewBox="0 0 256 256"><path fill="none" d="M0 0h256v256H0z"/><path d="M152 32v56h56zM108 136a44 44 0 0 0-42.34 32H60a28 28 0 0 0 0 56h48a44 44 0 0 0 0-88" opacity=".2"/><path fill="none" stroke="currentColor" stroke-linecap="round" stroke-linejoin="round" stroke-width="16" d="M152 32v56h56"/><path fill="none" stroke="currentColor" stroke-linecap="round" stroke-linejoin="round" stroke-width="16" d="M176 224h24a8 8 0 0 0 8-8V88l-56-56H56a8 8 0 0 0-8 8v88"/><path fill="none" stroke="currentColor" stroke-linecap="round" stroke-linejoin="round" stroke-width="16" d="M65.66 168H60a28 28 0 0 0 0 56h48a44 44 0 1 0-43.82-48"/></svg>