<svg xmlns="http://www.w3.org/2000/svg" viewBox="0 0 256 256"><path fill="none" d="M0 0h256v256H0z"/><path d="M152 32v56h56z" opacity=".2"/><path fill="none" stroke="currentColor" stroke-linecap="round" stroke-linejoin="round" stroke-width="16" d="M48 112V40a8 8 0 0 1 8-8h96l56 56v24"/><path fill="none" stroke="currentColor" stroke-linecap="round" stroke-linejoin="round" stroke-width="16" d="M152 32v56h56M36 152v56h16a28 28 0 0 0 0-56ZM216 200.87a22.12 22.12 0 0 1-16 7.13c-13.26 0-24-12.54-24-28s10.74-28 24-28a22.12 22.12 0 0 1 16 7.13"/><ellipse cx="128" cy="180" fill="none" stroke="currentColor" stroke-linecap="round" stroke-linejoin="round" stroke-width="16" rx="24" ry="28"/></svg>