<svg xmlns="http://www.w3.org/2000/svg" viewBox="0 0 256 256"><path fill="none" d="M0 0h256v256H0z"/><path d="M48 200v-40h24l24-24v88l-24-24z" opacity=".2"/><path fill="none" stroke="currentColor" stroke-linecap="round" stroke-linejoin="round" stroke-width="16" d="M48 200v-40h24l24-24v88l-24-24zM128 152a32.5 32.5 0 0 1 0 56"/><path d="M152 32v56h56z" opacity=".2"/><path fill="none" stroke="currentColor" stroke-linecap="round" stroke-linejoin="round" stroke-width="16" d="M152 32v56h56"/><path fill="none" stroke="currentColor" stroke-linecap="round" stroke-linejoin="round" stroke-width="16" d="M168 224h32a8 8 0 0 0 8-8V88l-56-56H56a8 8 0 0 0-8 8v80"/></svg>