<svg xmlns="http://www.w3.org/2000/svg" viewBox="0 0 256 256"><path fill="none" d="M0 0h256v256H0z"/><path d="M152 32v56h56zM120 172v-12a8 8 0 0 0-8-8H48a8 8 0 0 0-8 8v48a8 8 0 0 0 8 8h64a8 8 0 0 0 8-8v-12l32 20v-64Z" opacity=".2"/><path fill="none" stroke="currentColor" stroke-linecap="round" stroke-linejoin="round" stroke-width="16" d="M152 32v56h56"/><path fill="none" stroke="currentColor" stroke-linecap="round" stroke-linejoin="round" stroke-width="16" d="M192 224h8a8 8 0 0 0 8-8V88l-56-56H56a8 8 0 0 0-8 8v72"/><rect width="80" height="64" x="40" y="152" fill="none" stroke="currentColor" stroke-linecap="round" stroke-linejoin="round" stroke-width="16" rx="8"/><path fill="none" stroke="currentColor" stroke-linecap="round" stroke-linejoin="round" stroke-width="16" d="m120 172 32-20v64l-32-20"/></svg>