<svg xmlns="http://www.w3.org/2000/svg" viewBox="0 0 256 256"><path fill="none" d="M0 0h256v256H0z"/><path d="m115.5 92.19-47.79-27.6-29.86 7.88A7.76 7.76 0 0 0 32.27 82l8.16 30ZM126.61 49.05l47.79 27.59 33.6-8.87-8.16-30a7.9 7.9 0 0 0-9.66-5.49Z" opacity=".2"/><path fill="none" stroke="currentColor" stroke-linecap="round" stroke-linejoin="round" stroke-width="16" d="M40 112h176v88a8 8 0 0 1-8 8H48a8 8 0 0 1-8-8zM40.43 112 208 67.77l-8.16-30a7.9 7.9 0 0 0-9.66-5.49L37.85 72.47A7.76 7.76 0 0 0 32.27 82ZM67.71 64.59l47.79 27.6M126.61 49.05l47.79 27.59"/></svg>