<svg xmlns="http://www.w3.org/2000/svg" viewBox="0 0 256 256"><path fill="none" d="M0 0h256v256H0z"/><path d="M32 176h192v24a8 8 0 0 1-8 8H40a8 8 0 0 1-8-8ZM224 80H32V56a8 8 0 0 1 8-8h176a8 8 0 0 1 8 8Z" opacity=".2"/><rect width="192" height="160" x="32" y="48" fill="none" stroke="currentColor" stroke-linecap="round" stroke-linejoin="round" stroke-width="16" rx="8"/><path fill="none" stroke="currentColor" stroke-linecap="round" stroke-linejoin="round" stroke-width="16" d="M128 48v160M32 80h192M32 176h192M80 48v32M176 48v32M80 176v32M176 176v32"/></svg>