<svg xmlns="http://www.w3.org/2000/svg" viewBox="0 0 256 256"><path fill="none" d="M0 0h256v256H0z"/><circle cx="128" cy="128" r="96" opacity=".2"/><path fill="none" stroke="currentColor" stroke-linecap="round" stroke-linejoin="round" stroke-width="16" d="M176 128a239.3 239.3 0 0 1-18 91.21M163.75 96A48 48 0 0 0 80 128a143.4 143.4 0 0 1-18 69.73"/><path fill="none" stroke="currentColor" stroke-linecap="round" stroke-linejoin="round" stroke-width="16" d="M96 37.46A96.07 96.07 0 0 1 224 128a289 289 0 0 1-7.14 64M23.27 168A95.7 95.7 0 0 0 32 128a95.78 95.78 0 0 1 32-71.55M110.56 208q-3 6.63-6.57 13M128 128a192.8 192.8 0 0 1-6 48"/></svg>