<svg xmlns="http://www.w3.org/2000/svg" viewBox="0 0 256 256"><path fill="none" d="M0 0h256v256H0z"/><circle cx="128" cy="128" r="96" opacity=".2"/><path fill="none" stroke="currentColor" stroke-linecap="round" stroke-linejoin="round" stroke-width="16" d="M50.69 184.92A127.5 127.5 0 0 0 64 128a63.85 63.85 0 0 1 24-50M128 128a191.1 191.1 0 0 1-24 93"/><path fill="none" stroke="currentColor" stroke-linecap="round" stroke-linejoin="round" stroke-width="16" d="M96 128a32 32 0 0 1 64 0 223.1 223.1 0 0 1-21.28 95.41"/><path fill="none" stroke="currentColor" stroke-linecap="round" stroke-linejoin="round" stroke-width="16" d="M218.56 184a289.5 289.5 0 0 0 5.44-56 96 96 0 0 0-192 0 95.8 95.8 0 0 1-5.47 32"/><path fill="none" stroke="currentColor" stroke-linecap="round" stroke-linejoin="round" stroke-width="16" d="M92.81 160a158.9 158.9 0 0 1-18.12 47.84M120 64.5a66 66 0 0 1 8-.49 64 64 0 0 1 64 64 260 260 0 0 1-2 32M183.94 192q-2.28 8.88-5.18 17.5"/></svg>