<svg xmlns="http://www.w3.org/2000/svg" viewBox="0 0 256 256"><path fill="none" d="M0 0h256v256H0z"/><path d="M208 48a24 24 0 0 0-24 24H72a24 24 0 0 0-48 0v80a64 64 0 0 0 64 64h80a64 64 0 0 0 64-64V72a24 24 0 0 0-24-24m-8 104a32 32 0 0 1-32 32H88a32 32 0 0 1-32-32v-8a32 32 0 0 1 32-32h80a32 32 0 0 1 32 32Z" opacity=".2"/><rect width="144" height="72" x="56" y="112" fill="none" stroke="currentColor" stroke-linecap="round" stroke-linejoin="round" stroke-width="16" rx="32"/><path fill="none" stroke="currentColor" stroke-linecap="round" stroke-linejoin="round" stroke-width="16" d="M24 72a24 24 0 0 1 48 0h112a24 24 0 0 1 48 0v80a64 64 0 0 1-64 64H88a64 64 0 0 1-64-64Z"/><circle cx="92" cy="148" r="12"/><circle cx="164" cy="148" r="12"/></svg>