<svg xmlns="http://www.w3.org/2000/svg" viewBox="0 0 256 256"><path fill="none" d="M0 0h256v256H0z"/><path d="M176 168v64a8 8 0 0 1-8 8h-64a8 8 0 0 1-8-8v-64Z" opacity=".2"/><path fill="none" stroke="currentColor" stroke-linecap="round" stroke-linejoin="round" stroke-width="16" d="M168 240h-64a8 8 0 0 1-8-8V104a40 40 0 0 1 40-40h0a40 40 0 0 1 40 40v128a8 8 0 0 1-8 8M64 168h112M136 64V32M184 8l-48 24 80 24"/><path fill="none" stroke="currentColor" stroke-linecap="round" stroke-linejoin="round" stroke-width="16" d="M64 208V104a72 72 0 0 1 72-72h0"/></svg>