<svg xmlns="http://www.w3.org/2000/svg" viewBox="0 0 256 256"><path fill="none" d="M0 0h256v256H0z"/><path d="M192 77.33a8 8 0 0 1-1.6 4.8l-20.8 27.74a8 8 0 0 0-1.6 4.8V224a8 8 0 0 1-8 8H96a8 8 0 0 1-8-8V114.67a8 8 0 0 0-1.6-4.8L65.6 82.13a8 8 0 0 1-1.6-4.8V64h128Z" opacity=".2"/><path fill="none" stroke="currentColor" stroke-linecap="round" stroke-linejoin="round" stroke-width="16" d="M72 24h112a8 8 0 0 1 8 8v45.33a8 8 0 0 1-1.6 4.8l-20.8 27.74a8 8 0 0 0-1.6 4.8V224a8 8 0 0 1-8 8H96a8 8 0 0 1-8-8V114.67a8 8 0 0 0-1.6-4.8L65.6 82.13a8 8 0 0 1-1.6-4.8V32a8 8 0 0 1 8-8M128 120v32M64 64h128"/></svg>