<svg xmlns="http://www.w3.org/2000/svg" viewBox="0 0 256 256"><path fill="none" d="M0 0h256v256H0z"/><path d="m213.66 77.66-35.32-35.32a8 8 0 0 0-5.65-2.34H48a8 8 0 0 0-8 8v160a8 8 0 0 0 8 8h32v-64a8 8 0 0 1 8-8h80a8 8 0 0 1 8 8v64h32a8 8 0 0 0 8-8V83.31a8 8 0 0 0-2.34-5.65" opacity=".2"/><path fill="none" stroke="currentColor" stroke-linecap="round" stroke-linejoin="round" stroke-width="16" d="M216 83.31V208a8 8 0 0 1-8 8H48a8 8 0 0 1-8-8V48a8 8 0 0 1 8-8h124.69a8 8 0 0 1 5.65 2.34l35.32 35.32a8 8 0 0 1 2.34 5.65"/><path fill="none" stroke="currentColor" stroke-linecap="round" stroke-linejoin="round" stroke-width="16" d="M80 216v-64a8 8 0 0 1 8-8h80a8 8 0 0 1 8 8v64M152 72H96"/></svg>