<svg xmlns="http://www.w3.org/2000/svg" viewBox="0 0 256 256"><path fill="none" d="M0 0h256v256H0z"/><path d="M128 136a80 80 0 0 1 41.23-70C156 38 128 24 128 24s-28 14-41.23 42A80 80 0 0 1 128 136" opacity=".2"/><path fill="none" stroke="currentColor" stroke-linecap="round" stroke-linejoin="round" stroke-width="16" d="M48 56a80 80 0 0 1 80 80v40h0a80 80 0 0 1-80-80zM128 176v-40a80 80 0 0 1 80-80h0v40a80 80 0 0 1-80 80M80 208l48 24 48-24"/><path fill="none" stroke="currentColor" stroke-linecap="round" stroke-linejoin="round" stroke-width="16" d="M86.77 66C100 38 128 24 128 24s28 14 41.23 42M128 232v-56"/></svg>