<svg xmlns="http://www.w3.org/2000/svg" viewBox="0 0 256 256"><path fill="none" d="M0 0h256v256H0z"/><path fill="none" stroke="currentColor" stroke-linecap="round" stroke-linejoin="round" stroke-width="16" d="M160 224c3.67-13.8 16.6-24 32-24s28.33 10.2 32 24"/><circle cx="192" cy="176" r="24" opacity=".2"/><circle cx="192" cy="176" r="24" fill="none" stroke="currentColor" stroke-linecap="round" stroke-linejoin="round" stroke-width="16"/><path fill="none" stroke="currentColor" stroke-linecap="round" stroke-linejoin="round" stroke-width="16" d="M120 208H40a8 8 0 0 1-8-8V64a8 8 0 0 1 8-8h53.33a8 8 0 0 1 4.8 1.6l27.74 20.8a8 8 0 0 0 4.8 1.6H216a8 8 0 0 1 8 8v32"/></svg>