<svg xmlns="http://www.w3.org/2000/svg" viewBox="0 0 256 256"><path fill="none" d="M0 0h256v256H0z"/><path d="M224 72h-72l-29.87-22.4a8 8 0 0 0-4.8-1.6H72a8 8 0 0 0-8 8v24h21.33a8 8 0 0 1 4.8 1.6L120 104h72a8 8 0 0 1 8 8v64h24.89a7.11 7.11 0 0 0 7.11-7.11V80a8 8 0 0 0-8-8" opacity=".2"/><path fill="none" stroke="currentColor" stroke-linecap="round" stroke-linejoin="round" stroke-width="16" d="M200 112v88.89a7.11 7.11 0 0 1-7.11 7.11H40a8 8 0 0 1-8-8V88a8 8 0 0 1 8-8h45.33a8 8 0 0 1 4.8 1.6L120 104h72a8 8 0 0 1 8 8"/><path fill="none" stroke="currentColor" stroke-linecap="round" stroke-linejoin="round" stroke-width="16" d="M64 80V56a8 8 0 0 1 8-8h45.33a8 8 0 0 1 4.8 1.6L152 72h72a8 8 0 0 1 8 8v88.89a7.11 7.11 0 0 1-7.11 7.11H200"/></svg>