<svg xmlns="http://www.w3.org/2000/svg" viewBox="0 0 256 256"><path fill="none" d="M0 0h256v256H0z"/><circle cx="192" cy="176" r="24" opacity=".2"/><path fill="none" stroke="currentColor" stroke-linecap="round" stroke-linejoin="round" stroke-width="16" d="M160 224c3.67-13.8 16.6-24 32-24s28.33 10.2 32 24"/><circle cx="192" cy="176" r="24" fill="none" stroke="currentColor" stroke-linecap="round" stroke-linejoin="round" stroke-width="16"/><path fill="none" stroke="currentColor" stroke-linecap="round" stroke-linejoin="round" stroke-width="16" d="M32 80V56a8 8 0 0 1 8-8h52.69a8 8 0 0 1 5.65 2.34L128 80M120.56 208H39.38a7.4 7.4 0 0 1-7.38-7.38V80h184a8 8 0 0 1 8 8v32"/></svg>