<svg xmlns="http://www.w3.org/2000/svg" viewBox="0 0 256 256"><path fill="none" d="M0 0h256v256H0z"/><path d="M152 168h72v40h-72zM32 80V56a8 8 0 0 1 8-8h52.69a8 8 0 0 1 5.65 2.34L128 80Z" opacity=".2"/><path fill="none" stroke="currentColor" stroke-linecap="round" stroke-linejoin="round" stroke-width="16" d="M32 80V56a8 8 0 0 1 8-8h52.69a8 8 0 0 1 5.65 2.34L128 80M152 168h72v40h-72z"/><path fill="none" stroke="currentColor" stroke-linecap="round" stroke-linejoin="round" stroke-width="16" d="M112.56 208H39.38a7.4 7.4 0 0 1-7.38-7.38V80h184a8 8 0 0 1 8 8v16"/><path fill="none" stroke="currentColor" stroke-linecap="round" stroke-linejoin="round" stroke-width="16" d="M168 168v-12a20 20 0 0 1 40 0v12"/></svg>