<svg xmlns="http://www.w3.org/2000/svg" viewBox="0 0 256 256"><path fill="none" d="M0 0h256v256H0z"/><path d="M224 88v112.89a7.11 7.11 0 0 1-7.11 7.11H40a8 8 0 0 1-8-8V64a8 8 0 0 1 8-8h53.33a8 8 0 0 1 4.8 1.6l27.74 20.8a8 8 0 0 0 4.8 1.6H216a8 8 0 0 1 8 8" opacity=".2"/><path fill="none" stroke="currentColor" stroke-linecap="round" stroke-linejoin="round" stroke-width="16" d="M32 80V64a8 8 0 0 1 8-8h53.33a8 8 0 0 1 4.8 1.6L128 80M88 208H39.38a7.4 7.4 0 0 1-7.38-7.38V192M160 208h-32M224 152v48.89a7.11 7.11 0 0 1-7.11 7.11H200M168 80h48a8 8 0 0 1 8 8v24M32 120v32"/></svg>