<svg xmlns="http://www.w3.org/2000/svg" viewBox="0 0 256 256"><path fill="none" d="M0 0h256v256H0z"/><path d="M152 192h56v12a28 28 0 0 1-56 0ZM48 168h56v12a28 28 0 0 1-56 0ZM50.74 136C24.54 104 51.48 24 76 24s51.46 80 25.26 112ZM154.74 160c-26.2-32 .74-112 25.26-112s51.46 80 25.26 112Z" opacity=".2"/><path fill="none" stroke="currentColor" stroke-linecap="round" stroke-linejoin="round" stroke-width="16" d="M152 192h56v12a28 28 0 0 1-56 0ZM48 168h56v12a28 28 0 0 1-56 0ZM50.74 136C24.54 104 51.48 24 76 24s51.46 80 25.26 112ZM154.74 160c-26.2-32 .74-112 25.26-112s51.46 80 25.26 112Z"/></svg>