<svg xmlns="http://www.w3.org/2000/svg" viewBox="0 0 256 256"><path fill="none" d="M0 0h256v256H0z"/><path d="M239.57 175.14 223.21 91A51.94 51.94 0 0 1 172 152h-21.91l42.11 47.8a28 28 0 0 0 47.37-24.66" opacity=".2"/><path fill="none" stroke="currentColor" stroke-linecap="round" stroke-linejoin="round" stroke-width="16" d="M152 104h24M72 104h32M88 88v32M105.91 152 63.8 199.8a28 28 0 0 1-47.37-24.66L32.79 91a52 52 0 0 1 51.1-43H172a52 52 0 1 1 0 104Z"/><path fill="none" stroke="currentColor" stroke-linecap="round" stroke-linejoin="round" stroke-width="16" d="m150.09 152 42.11 47.8a28 28 0 0 0 47.37-24.66L223.21 91"/></svg>