<svg xmlns="http://www.w3.org/2000/svg" viewBox="0 0 256 256"><path fill="none" d="M0 0h256v256H0z"/><path d="M123.31 32H200a8 8 0 0 1 8 8v176a8 8 0 0 1-8 8H56a8 8 0 0 1-8-8V107.31a8 8 0 0 1 2.34-5.65l67.32-67.32a8 8 0 0 1 5.65-2.34" opacity=".2"/><path fill="none" stroke="currentColor" stroke-linecap="round" stroke-linejoin="round" stroke-width="16" d="M123.31 32H200a8 8 0 0 1 8 8v176a8 8 0 0 1-8 8H56a8 8 0 0 1-8-8V107.31a8 8 0 0 1 2.34-5.65l67.32-67.32a8 8 0 0 1 5.65-2.34M136 64h40M80 120l96 72M176 120l-96 72M66.34 85.66l-16-16a8 8 0 0 1 0-11.32l24-24a8 8 0 0 1 11.32 0l16 16"/></svg>