<svg xmlns="http://www.w3.org/2000/svg" viewBox="0 0 256 256"><path fill="none" d="M0 0h256v256H0z"/><rect width="106.51" height="38.63" x="50.75" y="44.69" opacity=".2" rx="8" transform="rotate(-45 103.997 63.993)"/><rect width="106.51" height="38.63" x="138.75" y="132.69" opacity=".2" rx="8" transform="rotate(-45 191.997 151.992)"/><rect width="106.51" height="38.63" x="50.75" y="44.69" fill="none" stroke="currentColor" stroke-linecap="round" stroke-linejoin="round" stroke-width="16" rx="8" transform="rotate(-45 103.997 63.993)"/><rect width="106.51" height="38.63" x="138.75" y="132.69" fill="none" stroke="currentColor" stroke-linecap="round" stroke-linejoin="round" stroke-width="16" rx="8" transform="rotate(-45 191.997 151.992)"/><path fill="none" stroke="currentColor" stroke-linecap="round" stroke-linejoin="round" stroke-width="16" d="m145.66 49.66 60.68 60.68M89.66 105.66l60.68 60.68M132 148l-71 71a17 17 0 0 1-24 0h0a17 17 0 0 1 0-24l71-71"/></svg>