<svg xmlns="http://www.w3.org/2000/svg" viewBox="0 0 256 256"><path fill="none" d="M0 0h256v256H0z"/><path d="m230.1 108.76-31.85-18.14c-.64-1.16-1.31-2.29-2-3.41l-.12-36A104.6 104.6 0 0 0 162 32l-32 17.89h-4L94 32a104.6 104.6 0 0 0-34.11 19.25l-.16 36c-.7 1.12-1.37 2.26-2 3.41l-31.84 18.1a99.2 99.2 0 0 0 0 38.46l31.85 18.14c.64 1.16 1.31 2.29 2 3.41l.12 36A104.6 104.6 0 0 0 94 224l32-17.87h4L162 224a104.6 104.6 0 0 0 34.08-19.25l.16-36c.7-1.12 1.37-2.26 2-3.41l31.84-18.1a99.2 99.2 0 0 0 .02-38.48M128 168a40 40 0 1 1 40-40 40 40 0 0 1-40 40" opacity=".2"/><circle cx="128" cy="128" r="40" fill="none" stroke="currentColor" stroke-linecap="round" stroke-linejoin="round" stroke-width="16"/><path fill="none" stroke="currentColor" stroke-linecap="round" stroke-linejoin="round" stroke-width="16" d="M130.05 206.11h-4L94 224a104.6 104.6 0 0 1-34.11-19.2l-.12-36c-.71-1.12-1.38-2.25-2-3.41L25.9 147.24a99.2 99.2 0 0 1 0-38.46l31.84-18.1c.65-1.15 1.32-2.29 2-3.41l.16-36A104.6 104.6 0 0 1 94 32l32 17.89h4L162 32a104.6 104.6 0 0 1 34.11 19.2l.12 36c.71 1.12 1.38 2.25 2 3.41l31.85 18.14a99.2 99.2 0 0 1 0 38.46l-31.84 18.1c-.65 1.15-1.32 2.29-2 3.41l-.16 36A104.6 104.6 0 0 1 162 224Z"/></svg>