<svg xmlns="http://www.w3.org/2000/svg" viewBox="0 0 256 256"><path fill="none" d="M0 0h256v256H0z"/><path d="m207.86 123.18 16.78-21a99.1 99.1 0 0 0-10.07-24.29l-26.7-3a81 81 0 0 0-6.81-6.81l-3-26.71a99.4 99.4 0 0 0-24.3-10l-21 16.77a82 82 0 0 0-9.64 0l-21-16.78a99.1 99.1 0 0 0-24.21 10.07l-3 26.7a81 81 0 0 0-6.81 6.81l-26.71 3a99.4 99.4 0 0 0-10 24.3l16.77 21a82 82 0 0 0 0 9.64l-16.78 21a99.1 99.1 0 0 0 10.07 24.29l26.7 3a81 81 0 0 0 6.81 6.81l3 26.71a99.4 99.4 0 0 0 24.3 10l21-16.77a82 82 0 0 0 9.64 0l21 16.78a99.1 99.1 0 0 0 24.29-10.07l3-26.7a81 81 0 0 0 6.81-6.81l26.71-3a99.4 99.4 0 0 0 10-24.3l-16.77-21a82 82 0 0 0-.08-9.64M128 168a40 40 0 1 1 40-40 40 40 0 0 1-40 40" opacity=".2"/><circle cx="128" cy="128" r="40" fill="none" stroke="currentColor" stroke-linecap="round" stroke-linejoin="round" stroke-width="16"/><path fill="none" stroke="currentColor" stroke-linecap="round" stroke-linejoin="round" stroke-width="16" d="M41.43 178.09a99.1 99.1 0 0 1-10.07-24.29l16.78-21a82 82 0 0 1 0-9.64l-16.77-21a99.4 99.4 0 0 1 10.05-24.3l26.71-3a81 81 0 0 1 6.81-6.81l3-26.7a99.1 99.1 0 0 1 24.26-9.99l21 16.78a82 82 0 0 1 9.64 0l21-16.77a99.4 99.4 0 0 1 24.3 10.05l3 26.71a81 81 0 0 1 6.81 6.81l26.7 3a99.1 99.1 0 0 1 10.07 24.29l-16.78 21a82 82 0 0 1 0 9.64l16.77 21a99.4 99.4 0 0 1-10 24.3l-26.71 3a81 81 0 0 1-6.81 6.81l-3 26.7a99.1 99.1 0 0 1-24.29 10.07l-21-16.78a82 82 0 0 1-9.64 0l-21 16.77a99.4 99.4 0 0 1-24.3-10l-3-26.71a81 81 0 0 1-6.81-6.81Z"/></svg>