<svg xmlns="http://www.w3.org/2000/svg" viewBox="0 0 256 256"><path fill="none" d="M0 0h256v256H0z"/><path d="M35.77 110.84 53.5 43a3.93 3.93 0 0 1 7.5-.38L80.65 96h94.7L195 42.62a3.93 3.93 0 0 1 7.53.38l17.73 67.84L128 176Z" opacity=".2"/><path fill="none" stroke="currentColor" stroke-linecap="round" stroke-linejoin="round" stroke-width="16" d="M175.35 96 195 42.62a3.93 3.93 0 0 1 7.53.38l19.89 76.12a49 49 0 0 1-18.87 52.4l-73.26 51.76a3.91 3.91 0 0 1-4.52 0l-73.29-51.76a49 49 0 0 1-18.87-52.4L53.5 43a3.93 3.93 0 0 1 7.5-.38L80.65 96ZM220.23 110.84l-126.82 89.6M162.59 200.44l-126.82-89.6"/></svg>