<svg xmlns="http://www.w3.org/2000/svg" viewBox="0 0 256 256"><path fill="none" d="M0 0h256v256H0z"/><path d="M160.71 140.26a8.1 8.1 0 0 0-3.12-1.11l-22.82-3.08a8 8 0 0 0-8.38 4.67l-13.7 30.74a8 8 0 0 0 1.44 8.69l19.74 20.33a8 8 0 0 1 2 6.95l-3.17 16.44a96 96 0 0 0 80.41-51.41Z" opacity=".2"/><circle cx="128" cy="128" r="96" fill="none" stroke="currentColor" stroke-linecap="round" stroke-linejoin="round" stroke-width="16"/><path fill="none" stroke="currentColor" stroke-linecap="round" stroke-linejoin="round" stroke-width="16" d="M75.88 123.26 89.2 100a8 8 0 0 1 6.94-4h16.71a7.9 7.9 0 0 0 3.86-1L129 88.24a7.1 7.1 0 0 0 1.49-1.07l26.92-24.33A8 8 0 0 0 159 53l-10.5-18.81"/><path fill="none" stroke="currentColor" stroke-linecap="round" stroke-linejoin="round" stroke-width="16" d="M67.78 53.23 56 81.08a8 8 0 0 0-.12 5.92l11.5 30.67a8 8 0 0 0 5.81 5l21.43 4.61a8 8 0 0 1 5.52 4.33l3.8 7.87a8 8 0 0 0 7.2 4.51h13.8"/><path d="M75.88 123.26 89.2 100a8 8 0 0 1 6.94-4h16.71a7.9 7.9 0 0 0 3.86-1L129 88.24a7.1 7.1 0 0 0 1.49-1.07l26.92-24.33A8 8 0 0 0 159 53l-10.5-18.81A96.6 96.6 0 0 0 128 32a95.6 95.6 0 0 0-60.22 21.23L56 81.08a8 8 0 0 0-.12 5.92l11.5 30.67a8 8 0 0 0 5.81 5Z" opacity=".2"/><path fill="none" stroke="currentColor" stroke-linecap="round" stroke-linejoin="round" stroke-width="16" d="m213.09 172.48-52.38-32.22a8.1 8.1 0 0 0-3.12-1.11l-22.82-3.08a8 8 0 0 0-8.38 4.67l-13.7 30.74a8 8 0 0 0 1.44 8.69l19.74 20.33a8 8 0 0 1 2 6.95l-3.17 16.44"/></svg>