<svg xmlns="http://www.w3.org/2000/svg" viewBox="0 0 256 256"><path fill="none" d="M0 0h256v256H0z"/><path d="M215 168.71a96.4 96.4 0 0 1-30.54 37l-9.36-9.37a8 8 0 0 0-3.63-2.09L150 188.59a8 8 0 0 1-5.88-8.9l2.38-16.2a8 8 0 0 1 4.85-6.22l30.45-12.66a8 8 0 0 1 8.47 1.49ZM184 74a8 8 0 0 1-1.94 5.22L159.89 105a8 8 0 0 1-5 2.71l-31.46 4.26a8.06 8.06 0 0 1-5.77-1.45l-19.81-13a8 8 0 0 0-11.34 2l-20.94 31.3a8.06 8.06 0 0 0-1.35 4.41L64 171.49a8 8 0 0 1-3.61 6.64l-9.92 6.52A96 96 0 0 1 184 50Z" opacity=".2"/><circle cx="128" cy="128" r="96" fill="none" stroke="currentColor" stroke-linecap="round" stroke-linejoin="round" stroke-width="16"/><path fill="none" stroke="currentColor" stroke-linecap="round" stroke-linejoin="round" stroke-width="16" d="m184.42 205.68-9.36-9.37a8 8 0 0 0-3.63-2.09L150 188.59a8 8 0 0 1-5.88-8.9l2.38-16.2a8 8 0 0 1 4.85-6.22l30.45-12.66a8 8 0 0 1 8.47 1.49L215 168.71M50.49 184.65l9.92-6.52a8 8 0 0 0 3.59-6.64l.21-36.23a8.06 8.06 0 0 1 1.35-4.41l20.94-31.3a8 8 0 0 1 11.34-2l19.81 13a8.06 8.06 0 0 0 5.77 1.45l31.46-4.26a8 8 0 0 0 5-2.71l22.18-25.83A8 8 0 0 0 184 74V50"/></svg>