<svg xmlns="http://www.w3.org/2000/svg" viewBox="0 0 256 256"><path fill="none" d="M0 0h256v256H0z"/><path d="M224 56H32a8 8 0 0 0-8 8v128a8 8 0 0 0 8 8h64l26.34-26.34a8 8 0 0 1 11.32 0L160 200h64a8 8 0 0 0 8-8V64a8 8 0 0 0-8-8M80 152a24 24 0 1 1 24-24 24 24 0 0 1-24 24m96 0a24 24 0 1 1 24-24 24 24 0 0 1-24 24" opacity=".2"/><path fill="none" stroke="currentColor" stroke-linecap="round" stroke-linejoin="round" stroke-width="16" d="M24 192V64a8 8 0 0 1 8-8h192a8 8 0 0 1 8 8v128a8 8 0 0 1-8 8h-64l-26.34-26.34a8 8 0 0 0-11.32 0L96 200H32a8 8 0 0 1-8-8"/><circle cx="80" cy="128" r="24" fill="none" stroke="currentColor" stroke-linecap="round" stroke-linejoin="round" stroke-width="16"/><circle cx="176" cy="128" r="24" fill="none" stroke="currentColor" stroke-linecap="round" stroke-linejoin="round" stroke-width="16"/></svg>