<svg xmlns="http://www.w3.org/2000/svg" viewBox="0 0 256 256"><path fill="none" d="M0 0h256v256H0z"/><path d="m128 160-88-46.93v53.22a8 8 0 0 0 2 5.31c11.3 12.59 38.9 36.4 86 36.4s74.68-23.81 86-36.4a8 8 0 0 0 2-5.31v-53.22Z" opacity=".2"/><path fill="none" stroke="currentColor" stroke-linecap="round" stroke-linejoin="round" stroke-width="16" d="m8 96 120-64 120 64-120 64z"/><path fill="none" stroke="currentColor" stroke-linecap="round" stroke-linejoin="round" stroke-width="16" d="m128 96 56 29.87V240"/><path fill="none" stroke="currentColor" stroke-linecap="round" stroke-linejoin="round" stroke-width="16" d="M216 113.07v53.22a8 8 0 0 1-2 5.31c-11.3 12.59-38.9 36.4-86 36.4s-74.68-23.81-86-36.4a8 8 0 0 1-2-5.31v-53.22"/></svg>