<svg xmlns="http://www.w3.org/2000/svg" viewBox="0 0 256 256"><path fill="none" d="M0 0h256v256H0z"/><path d="M172 72.59C160.39 40.19 128 24 128 24S95.62 40.19 84.05 72.56A79.7 79.7 0 0 0 48 64v56a80 80 0 0 1 80 80 80 80 0 0 1 80-80V64a79.6 79.6 0 0 0-36 8.59" opacity=".2"/><path fill="none" stroke="currentColor" stroke-linecap="round" stroke-linejoin="round" stroke-width="16" d="M128 224a80 80 0 0 1-80-80v-24h0a80 80 0 0 1 80 80ZM48 40l160 176M208 120V64h0a79.89 79.89 0 0 0-64.83 33.12M205.14 165.28A80.3 80.3 0 0 0 208 144v-24h0a79.6 79.6 0 0 0-36.18 8.63"/><path fill="none" stroke="currentColor" stroke-linecap="round" stroke-linejoin="round" stroke-width="16" d="M146.71 148.58A79.68 79.68 0 0 0 128 200v24h0a79.86 79.86 0 0 0 61.29-28.58M48 120V64h0a79.9 79.9 0 0 1 25.63 4.19M98.5 48A104.7 104.7 0 0 1 128 24s32.39 16.19 44 48.58"/></svg>