<svg xmlns="http://www.w3.org/2000/svg" viewBox="0 0 256 256"><path fill="none" d="M0 0h256v256H0z"/><path d="M172 72.59C160.39 40.19 128 24 128 24S95.62 40.19 84.05 72.56A79.7 79.7 0 0 0 48 64v56a80 80 0 0 1 80 80 80 80 0 0 1 80-80V64a79.6 79.6 0 0 0-36 8.59" opacity=".2"/><path fill="none" stroke="currentColor" stroke-linecap="round" stroke-linejoin="round" stroke-width="16" d="M128 224a80 80 0 0 1-80-80v-24h0a80 80 0 0 1 80 80ZM128 224v-24a80 80 0 0 1 80-80h0v24a80 80 0 0 1-80 80"/><path fill="none" stroke="currentColor" stroke-linecap="round" stroke-linejoin="round" stroke-width="16" d="M208 120V64h0a80 80 0 0 0-80 80v56M48 120V64h0a80 80 0 0 1 80 80v56"/><path fill="none" stroke="currentColor" stroke-linecap="round" stroke-linejoin="round" stroke-width="16" d="M84.05 72.57C95.62 40.19 128 24 128 24s32.38 16.19 44 48.58"/></svg>