<svg xmlns="http://www.w3.org/2000/svg" viewBox="0 0 256 256"><path fill="none" d="M0 0h256v256H0z"/><path d="M232 56H16v128h216a8 8 0 0 0 8-8V64a8 8 0 0 0-8-8M80 152a32 32 0 1 1 32-32 32 32 0 0 1-32 32m96 0a32 32 0 1 1 32-32 32 32 0 0 1-32 32" opacity=".2"/><path fill="none" stroke="currentColor" stroke-linecap="round" stroke-linejoin="round" stroke-width="16" d="M16 184h216a8 8 0 0 0 8-8V64a8 8 0 0 0-8-8H16v152"/><circle cx="176" cy="120" r="32" fill="none" stroke="currentColor" stroke-linecap="round" stroke-linejoin="round" stroke-width="16"/><path fill="none" stroke="currentColor" stroke-linecap="round" stroke-linejoin="round" stroke-width="16" d="M80 208v-24M48 184v24M112 208v-24M153.37 97.37l45.26 45.26"/><circle cx="80" cy="120" r="32" fill="none" stroke="currentColor" stroke-linecap="round" stroke-linejoin="round" stroke-width="16"/><path fill="none" stroke="currentColor" stroke-linecap="round" stroke-linejoin="round" stroke-width="16" d="m57.37 97.37 45.26 45.26"/></svg>