<svg xmlns="http://www.w3.org/2000/svg" viewBox="0 0 256 256"><path fill="none" d="M0 0h256v256H0z"/><path d="M155.2 100.8c-23-23-55.57-27.63-72.8-10.4a34.2 34.2 0 0 0-7.61 11.66 16.23 16.23 0 0 1-14.72 10C48 112.44 37 116.61 28.8 124.8 7.6 146 13.33 186.12 41.6 214.4s68.39 34 89.6 12.8c8.19-8.2 12.36-19.2 12.8-31.27a16.23 16.23 0 0 1 10-14.72 34.2 34.2 0 0 0 11.66-7.61c17.17-17.23 12.51-49.82-10.46-72.8M112 168a24 24 0 1 1 24-24 24 24 0 0 1-24 24" opacity=".2"/><path fill="none" stroke="currentColor" stroke-linecap="round" stroke-linejoin="round" stroke-width="16" d="m204 12 40 40M176 56l24 24M60.07 112a16.23 16.23 0 0 0 14.72-10 34.2 34.2 0 0 1 7.61-11.6c17.23-17.23 49.82-12.57 72.8 10.4s27.63 55.57 10.4 72.8a34.2 34.2 0 0 1-11.66 7.61 16.23 16.23 0 0 0-10 14.72c-.38 12.07-4.55 23.07-12.74 31.27-21.2 21.2-61.32 15.47-89.6-12.8s-34-68.4-12.8-89.6C37 116.61 48 112.44 60.07 112M56 168l32 32"/><circle cx="112" cy="144" r="24" fill="none" stroke="currentColor" stroke-linecap="round" stroke-linejoin="round" stroke-width="16"/><path fill="none" stroke="currentColor" stroke-linecap="round" stroke-linejoin="round" stroke-width="16" d="M112 120 212 20M136 144 236 44"/></svg>