<svg xmlns="http://www.w3.org/2000/svg" viewBox="0 0 256 256"><path fill="none" d="M0 0h256v256H0z"/><path d="M168 32 30.68 54.89A8 8 0 0 0 24 62.78v50.44a8 8 0 0 0 6.68 7.89L168 144a56 56 0 0 0 0-112m0 80a24 24 0 1 1 24-24 24 24 0 0 1-24 24" opacity=".2"/><circle cx="168" cy="88" r="24" fill="none" stroke="currentColor" stroke-linecap="round" stroke-linejoin="round" stroke-width="16"/><path fill="none" stroke="currentColor" stroke-linecap="round" stroke-linejoin="round" stroke-width="16" d="M24 113.22V62.78a8 8 0 0 1 6.68-7.89L168 32a56 56 0 0 1 0 112L30.68 121.11a8 8 0 0 1-6.68-7.89M152 208v8a32 32 0 0 0 32 32h16"/><path fill="none" stroke="currentColor" stroke-linecap="round" stroke-linejoin="round" stroke-width="16" d="m202.49 132.12-32.36 71.19a8 8 0 0 1-7.28 4.69H144a8 8 0 0 1-8-8v-61.33"/></svg>