<svg xmlns="http://www.w3.org/2000/svg" viewBox="0 0 256 256"><path fill="none" d="M0 0h256v256H0z"/><path d="m140 148 28-28 20 20 40.06-40.06-49.83-50.17a88 88 0 0 0-98.44-18L136 88l-28 28ZM79.7 31.83h.09Z" opacity=".2"/><path fill="none" stroke="currentColor" stroke-linecap="round" stroke-linejoin="round" stroke-width="16" d="m108 116 32 32M228.06 99.94 188 140M40 64l13.77-14.23a88 88 0 0 1 124.46 0l67.43 67.89a8 8 0 0 1 0 11.31L217 157.66a8 8 0 0 1-11.31 0L168 120 66.34 221.66a8 8 0 0 1-11.31 0L34.34 201a8 8 0 0 1 0-11.31L136 88 79.78 31.78"/></svg>