<svg xmlns="http://www.w3.org/2000/svg" viewBox="0 0 256 256"><path fill="none" d="M0 0h256v256H0z"/><path d="M168 116a20 20 0 0 1 40 0v36a80 80 0 0 1-160 0V76a20 20 0 0 1 40 0V44a20 20 0 0 1 40 0v16a20 20 0 0 1 40 0Z" opacity=".2"/><path fill="none" stroke="currentColor" stroke-linecap="round" stroke-linejoin="round" stroke-width="16" d="M128 60a20 20 0 0 1 40 0v56M88 76V44a20 20 0 0 1 40 0v68"/><path fill="none" stroke="currentColor" stroke-linecap="round" stroke-linejoin="round" stroke-width="16" d="M128 176a40 40 0 0 1 40-40v-20a20 20 0 0 1 40 0v36a80 80 0 0 1-160 0V76a20 20 0 0 1 40 0v44"/></svg>