<svg xmlns="http://www.w3.org/2000/svg" viewBox="0 0 256 256"><path fill="none" d="M0 0h256v256H0z"/><path d="M209.67 72H46.33a8.06 8.06 0 0 0-8 7.07l-14.25 120a8 8 0 0 0 8 8.93h191.84a8 8 0 0 0 8-8.93l-14.25-120a8.06 8.06 0 0 0-8-7.07" opacity=".2"/><path fill="none" stroke="currentColor" stroke-linecap="round" stroke-linejoin="round" stroke-width="16" d="M209.67 72H46.33a8.06 8.06 0 0 0-8 7.07l-14.25 120a8 8 0 0 0 8 8.93h191.84a8 8 0 0 0 8-8.93l-14.25-120a8.06 8.06 0 0 0-8-7.07"/><path fill="none" stroke="currentColor" stroke-linecap="round" stroke-linejoin="round" stroke-width="16" d="M88 72v-8a40 40 0 0 1 80 0v8"/></svg>