<svg xmlns="http://www.w3.org/2000/svg" viewBox="0 0 256 256"><path fill="none" d="M0 0h256v256H0z"/><path d="M80 104h96a32 32 0 0 1 32 32v80a8 8 0 0 1-8 8H56a8 8 0 0 1-8-8v-80a32 32 0 0 1 32-32" opacity=".2"/><path fill="none" stroke="currentColor" stroke-linecap="round" stroke-linejoin="round" stroke-width="16" d="M80 104h96a32 32 0 0 1 32 32v80a8 8 0 0 1-8 8H56a8 8 0 0 1-8-8v-80a32 32 0 0 1 32-32M80 104V88a24 24 0 0 1 24-24h48a24 24 0 0 1 24 24v16M184 40a16 16 0 0 0-16-16h-64M128 24v40"/></svg>