<svg xmlns="http://www.w3.org/2000/svg" viewBox="0 0 256 256"><path fill="none" d="M0 0h256v256H0z"/><path d="M188 96a20 20 0 0 0-20 20V60a20 20 0 0 0-40 0V44a20 20 0 0 0-40 0v32a20 20 0 0 0-40 0v76a80 80 0 0 0 160 0v-36a20 20 0 0 0-20-20m-60 104c-32 0-48-32-48-32s16-32 48-32 48 32 48 32-16 32-48 32" opacity=".2"/><path fill="none" stroke="currentColor" stroke-linecap="round" stroke-linejoin="round" stroke-width="16" d="M88 76V44a20 20 0 0 1 40 0v60M128 60a20 20 0 0 1 40 0v60"/><path fill="none" stroke="currentColor" stroke-linecap="round" stroke-linejoin="round" stroke-width="16" d="M168 120v-4a20 20 0 0 1 40 0v36a80 80 0 0 1-160 0V76a20 20 0 0 1 40 0v36"/><circle cx="128" cy="168" r="12"/><path fill="none" stroke="currentColor" stroke-linecap="round" stroke-linejoin="round" stroke-width="16" d="M80 168s16-32 48-32 48 32 48 32-16 32-48 32-48-32-48-32"/></svg>