<svg xmlns="http://www.w3.org/2000/svg" viewBox="0 0 256 256"><path fill="none" d="M0 0h256v256H0z"/><path d="M196 96a20 20 0 0 0-20 20v-16a20 20 0 0 0-40 0V44a20 20 0 0 0-40 0v108l-18.68-30a20 20 0 0 0-34.64 20c37.51 66 49.14 90 93.32 90a80 80 0 0 0 80-80v-36a20 20 0 0 0-20-20" opacity=".2"/><path fill="none" stroke="currentColor" stroke-linecap="round" stroke-linejoin="round" stroke-width="16" d="M42.68 142a20 20 0 0 1 34.64-20L96 152V44a20 20 0 0 1 40 0v56a20 20 0 0 1 40 0v16a20 20 0 0 1 40 0v36a80 80 0 0 1-80 80c-44.18 0-55.81-24-93.32-90"/></svg>