<svg xmlns="http://www.w3.org/2000/svg" viewBox="0 0 256 256"><path fill="none" d="M0 0h256v256H0z"/><path d="M88 120H68a20 20 0 0 0-20 20v12a80 80 0 0 0 160 0v-44a20 20 0 0 0-40 0V92a20 20 0 0 0-40 0 20 20 0 0 0-40 0Z" opacity=".2"/><path fill="none" stroke="currentColor" stroke-linecap="round" stroke-linejoin="round" stroke-width="16" d="M128 92a20 20 0 0 0-40 0v28M168 108V92a20 20 0 0 0-40 0v28"/><path fill="none" stroke="currentColor" stroke-linecap="round" stroke-linejoin="round" stroke-width="16" d="M88 152v-32H68a20 20 0 0 0-20 20v12a80 80 0 0 0 160 0v-44a20 20 0 0 0-40 0v12"/></svg>