<svg xmlns="http://www.w3.org/2000/svg" viewBox="0 0 256 256"><path fill="none" d="M0 0h256v256H0z"/><path d="M48 208H16a8 8 0 0 1-8-8v-40a8 8 0 0 1 8-8h32Z" opacity=".2"/><path fill="none" stroke="currentColor" stroke-linecap="round" stroke-linejoin="round" stroke-width="16" d="M48 208H16a8 8 0 0 1-8-8v-40a8 8 0 0 1 8-8h32M112 160h32l67-15.41a16.61 16.61 0 0 1 21 16h0a16.59 16.59 0 0 1-9.18 14.85L184 192l-64 16H48v-56l25-25a24 24 0 0 1 17-7h50a20 20 0 0 1 20 20h0a20 20 0 0 1-20 20ZM192 24v80M224 72l-32 32-32-32"/></svg>