<svg xmlns="http://www.w3.org/2000/svg" viewBox="0 0 256 256"><path fill="none" d="M0 0h256v256H0z"/><path d="M176 56H64a8 8 0 0 0-8 8v136h80.42a20 20 0 0 1 36.9-14L184 202.31V64a8 8 0 0 0-8-8" opacity=".2"/><path fill="none" stroke="currentColor" stroke-linecap="round" stroke-linejoin="round" stroke-width="16" d="M120 136V16M184 128a82.38 82.38 0 0 1 40 70.65V240M80 56H64a8 8 0 0 0-8 8v136M160.94 240l-22.26-34a20 20 0 0 1 34.64-20L184 202.31V64a8 8 0 0 0-8-8h-16"/><path fill="none" stroke="currentColor" stroke-linecap="round" stroke-linejoin="round" stroke-width="16" d="m88 104 32 32 32-32"/></svg>