<svg xmlns="http://www.w3.org/2000/svg" viewBox="0 0 256 256"><path fill="none" d="M0 0h256v256H0z"/><path fill="none" stroke="currentColor" stroke-linecap="round" stroke-linejoin="round" stroke-width="16" d="M64 76a52 52 0 0 1 104 0"/><path fill="none" stroke="currentColor" stroke-linecap="round" stroke-linejoin="round" stroke-width="16" d="m72 224-29.32-50a20 20 0 0 1 34.64-20L96 184V76a20 20 0 0 1 40 0v56a20 20 0 0 1 40 0v16a20 20 0 0 1 40 0v36c0 24-8 40-8 40"/><path d="m72 224-29.32-50a20 20 0 0 1 34.64-20L96 184V76a20 20 0 0 1 40 0v56a20 20 0 0 1 40 0v16a20 20 0 0 1 40 0v36c0 24-8 40-8 40Z" opacity=".2"/></svg>