<svg xmlns="http://www.w3.org/2000/svg" viewBox="0 0 256 256"><path fill="none" d="M0 0h256v256H0z"/><path d="M104 160V51.31A88 88 0 0 0 40 136v24ZM152 160V51.31A88 88 0 0 1 216 136v24Z" opacity=".2"/><rect width="208" height="40" x="24" y="160" fill="none" stroke="currentColor" stroke-linecap="round" stroke-linejoin="round" stroke-width="16" rx="8"/><path fill="none" stroke="currentColor" stroke-linecap="round" stroke-linejoin="round" stroke-width="16" d="M104 160V40a8 8 0 0 1 8-8h32a8 8 0 0 1 8 8v120M216 160v-24a88 88 0 0 0-64-84.69M40 160v-24a88 88 0 0 1 64-84.69"/></svg>