<svg xmlns="http://www.w3.org/2000/svg" viewBox="0 0 256 256"><path fill="none" d="M0 0h256v256H0z"/><path d="M32 184a16 16 0 0 0 16 16h16a16 16 0 0 0 16-16v-40a16 16 0 0 0-16-16H32ZM192 128a16 16 0 0 0-16 16v40a16 16 0 0 0 16 16h32v-72Z" opacity=".2"/><path fill="none" stroke="currentColor" stroke-linecap="round" stroke-linejoin="round" stroke-width="16" d="M224 200v8a32 32 0 0 1-32 32h-56M224 128h-32a16 16 0 0 0-16 16v40a16 16 0 0 0 16 16h32za96 96 0 1 0-192 0v56a16 16 0 0 0 16 16h16a16 16 0 0 0 16-16v-40a16 16 0 0 0-16-16H32"/></svg>