<svg xmlns="http://www.w3.org/2000/svg" viewBox="0 0 256 256"><path fill="none" d="M0 0h256v256H0z"/><path d="M215.93 100.72A80 80 0 0 0 56 104l-23.35 44.87a8 8 0 0 0 3.77 10.31L64 171.81V208a8 8 0 0 0 8 8h48a16 16 0 0 0 16 16h56l-8-64a79.86 79.86 0 0 0 31.93-67.28m-103.8-26.64a16 16 0 1 1 13.79 13.79 16 16 0 0 1-13.79-13.79m34 77.79a16 16 0 1 1 13.79-13.79 16 16 0 0 1-13.84 13.79Z" opacity=".2"/><circle cx="128" cy="72" r="16" fill="none" stroke="currentColor" stroke-linecap="round" stroke-linejoin="round" stroke-width="16"/><circle cx="144" cy="136" r="16" fill="none" stroke="currentColor" stroke-linecap="round" stroke-linejoin="round" stroke-width="16"/><path fill="none" stroke="currentColor" stroke-linecap="round" stroke-linejoin="round" stroke-width="16" d="M120 216H72a8 8 0 0 1-8-8v-36.19l-27.58-12.63a8 8 0 0 1-3.77-10.3L56 104a80 80 0 1 1 128 64l8 64M128 56V24.39"/><path fill="none" stroke="currentColor" stroke-linecap="round" stroke-linejoin="round" stroke-width="16" d="M214.38 88H184l-29.76 35.71"/></svg>