<svg xmlns="http://www.w3.org/2000/svg" viewBox="0 0 256 256"><path fill="none" d="M0 0h256v256H0z"/><path d="M178 48a53.8 53.8 0 0 0-38.18 15.82L128 75.63l-11.82-11.81A54 54 0 0 0 24 102c0 66 104 122 104 122s104-56 104-122a54 54 0 0 0-54-54" opacity=".2"/><path fill="none" stroke="currentColor" stroke-linecap="round" stroke-linejoin="round" stroke-width="16" d="m128 75.63-11.82-11.81A54 54 0 0 0 24 102c0 66 104 122 104 122s104-56 104-122a54 54 0 0 0-92.18-38.18L112 91.63l30.18 30.19L120 144"/></svg>