<svg xmlns="http://www.w3.org/2000/svg" viewBox="0 0 256 256"><path fill="none" d="M0 0h256v256H0z"/><path d="M32 120c50.38 0 93.51 31.28 111.3 75.08a8 8 0 0 0 7.42 4.92H240a8 8 0 0 0 8-8v-4.73A23.92 23.92 0 0 0 229.21 164L176 152 64 40c-19.41 21.22-32 49-32 80" opacity=".2"/><path fill="none" stroke="currentColor" stroke-linecap="round" stroke-linejoin="round" stroke-width="16" d="M32 120c50.38 0 93.51 31.28 111.3 75.08a8 8 0 0 0 7.42 4.92H240a8 8 0 0 0 8-8v-4.73A23.92 23.92 0 0 0 229.21 164L176 152 64 40c-19.41 21.22-32 49-32 80"/><path fill="none" stroke="currentColor" stroke-linecap="round" stroke-linejoin="round" stroke-width="16" d="M80 130v62a8 8 0 0 1-8 8H40a8 8 0 0 1-8-8v-72"/></svg>