<svg xmlns="http://www.w3.org/2000/svg" viewBox="0 0 256 256"><path fill="none" d="M0 0h256v256H0z"/><path d="m88 128-64 64 72 24 40-40z" opacity=".2"/><path fill="none" stroke="currentColor" stroke-linecap="round" stroke-linejoin="round" stroke-width="16" d="m88 128-64 64 72 24 40-40"/><path fill="none" stroke="currentColor" stroke-linecap="round" stroke-linejoin="round" stroke-width="16" d="m184 160-26.34 26.34a8 8 0 0 1-11.32 0l-68.68-68.68a8 8 0 0 1 0-11.32L104 80"/><path fill="none" stroke="currentColor" stroke-linecap="round" stroke-linejoin="round" stroke-width="16" d="m248 112-50.34 50.34a8 8 0 0 1-11.32 0l-84.68-84.68a8 8 0 0 1 0-11.32L152 16"/></svg>