<svg xmlns="http://www.w3.org/2000/svg" viewBox="0 0 256 256"><path fill="none" d="M0 0h256v256H0z"/><path d="M128 128 67.2 82.4A8 8 0 0 1 64 76V64h128v11.64a8 8 0 0 1-3.18 6.36z" opacity=".2"/><path fill="none" stroke="currentColor" stroke-linecap="round" stroke-linejoin="round" stroke-width="16" d="M64 64h128M128 128 67.2 82.4A8 8 0 0 1 64 76V40a8 8 0 0 1 8-8h112a8 8 0 0 1 8 8v35.64a8 8 0 0 1-3.18 6.36zM128 128l-60.8 45.6A8 8 0 0 0 64 180v36a8 8 0 0 0 8 8h112a8 8 0 0 0 8-8v-35.64a8 8 0 0 0-3.18-6.38z"/></svg>