<svg xmlns="http://www.w3.org/2000/svg" viewBox="0 0 256 256"><path fill="none" d="M0 0h256v256H0z"/><path d="M148.62 50.68 160 8S48 32 48 128a80 80 0 0 0 59.38 77.32L96 248s112-24 112-120a80 80 0 0 0-59.38-77.32M128 152a24 24 0 1 1 24-24 24 24 0 0 1-24 24" opacity=".2"/><circle cx="128" cy="128" r="24" fill="none" stroke="currentColor" stroke-linecap="round" stroke-linejoin="round" stroke-width="16"/><path fill="none" stroke="currentColor" stroke-linecap="round" stroke-linejoin="round" stroke-width="16" d="M148.62 50.68A80 80 0 0 1 208 128c0 96-112 120-112 120l11.38-42.68A80 80 0 0 1 48 128C48 32 160 8 160 8Z"/></svg>