<svg xmlns="http://www.w3.org/2000/svg" viewBox="0 0 256 256"><path fill="none" d="M0 0h256v256H0z"/><path d="M56 96a72 72 0 0 1 144 0v8a16 16 0 0 1 0 32H56a16 16 0 0 1 0-32Z" opacity=".2"/><path fill="none" stroke="currentColor" stroke-linecap="round" stroke-linejoin="round" stroke-width="16" d="M56 96a72 72 0 0 1 144 0v8a16 16 0 0 1 0 32H56a16 16 0 0 1 0-32ZM146.86 215l-45.15-79M165.71 182l-26.28-46"/><path fill="none" stroke="currentColor" stroke-linecap="round" stroke-linejoin="round" stroke-width="16" d="M192.07 136 135 236a8 8 0 0 1-13.9 0L63.93 136"/></svg>