<svg xmlns="http://www.w3.org/2000/svg" viewBox="0 0 256 256"><path fill="none" d="M0 0h256v256H0z"/><path d="M208 40H80a8 8 0 0 0-8 8v128a8 8 0 0 0 8 8h16.69l77.65-77.66a8 8 0 0 1 11.32 0L216 136.69V48a8 8 0 0 0-8-8m-88 64a16 16 0 1 1 16-16 16 16 0 0 1-16 16" opacity=".2"/><rect width="144" height="144" x="72" y="40" fill="none" stroke="currentColor" stroke-linecap="round" stroke-linejoin="round" stroke-width="16" rx="8"/><circle cx="120" cy="88" r="16" fill="none" stroke="currentColor" stroke-linecap="round" stroke-linejoin="round" stroke-width="16"/><path fill="none" stroke="currentColor" stroke-linecap="round" stroke-linejoin="round" stroke-width="16" d="M184 184v24a8 8 0 0 1-8 8H48a8 8 0 0 1-8-8V80a8 8 0 0 1 8-8h24"/><path fill="none" stroke="currentColor" stroke-linecap="round" stroke-linejoin="round" stroke-width="16" d="m96.69 184 77.65-77.66a8 8 0 0 1 11.32 0L216 136.69"/></svg>