<svg xmlns="http://www.w3.org/2000/svg" viewBox="0 0 256 256"><path fill="none" d="M0 0h256v256H0z"/><path d="M97.66 114.34 147.31 164 173 138.34a8 8 0 0 1 11.31 0L224 178.06V56a8 8 0 0 0-8-8H40a8 8 0 0 0-8 8v112.69l54.34-54.35a8 8 0 0 1 11.32 0" opacity=".2"/><rect width="192" height="160" x="32" y="48" fill="none" stroke="currentColor" stroke-linecap="round" stroke-linejoin="round" stroke-width="16" rx="8"/><circle cx="156" cy="100" r="12"/><path fill="none" stroke="currentColor" stroke-linecap="round" stroke-linejoin="round" stroke-width="16" d="M147.31 164 173 138.34a8 8 0 0 1 11.31 0L224 178.06"/><path fill="none" stroke="currentColor" stroke-linecap="round" stroke-linejoin="round" stroke-width="16" d="m32 168.69 54.34-54.35a8 8 0 0 1 11.32 0L191.31 208"/></svg>