<svg xmlns="http://www.w3.org/2000/svg" viewBox="0 0 256 256"><path fill="none" d="M0 0h256v256H0z"/><path d="m64 128.69 38.34-38.35a8 8 0 0 1 11.32 0L163.31 140 189 114.34a8 8 0 0 1 11.31 0L224 138.06V56a8 8 0 0 0-8-8H72a8 8 0 0 0-8 8Z" opacity=".2"/><rect width="160" height="128" x="64" y="48" fill="none" stroke="currentColor" stroke-linecap="round" stroke-linejoin="round" stroke-width="16" rx="8"/><circle cx="172" cy="84" r="12"/><path fill="none" stroke="currentColor" stroke-linecap="round" stroke-linejoin="round" stroke-width="16" d="m64 128.69 38.34-38.35a8 8 0 0 1 11.32 0L163.31 140 189 114.34a8 8 0 0 1 11.31 0L224 138.06"/><path fill="none" stroke="currentColor" stroke-linecap="round" stroke-linejoin="round" stroke-width="16" d="M192 176v24a8 8 0 0 1-8 8H40a8 8 0 0 1-8-8V88a8 8 0 0 1 8-8h24"/></svg>