<svg xmlns="http://www.w3.org/2000/svg" viewBox="0 0 256 256"><path fill="none" d="M0 0h256v256H0z"/><path d="M208 40H48a8 8 0 0 0-8 8v160a8 8 0 0 0 8 8h8.69l109.65-109.66a8 8 0 0 1 11.32 0L216 144.69V48a8 8 0 0 0-8-8M96 112a16 16 0 1 1 16-16 16 16 0 0 1-16 16" opacity=".2"/><rect width="176" height="176" x="40" y="40" fill="none" stroke="currentColor" stroke-linecap="round" stroke-linejoin="round" stroke-width="16" rx="8"/><circle cx="96" cy="96" r="16" fill="none" stroke="currentColor" stroke-linecap="round" stroke-linejoin="round" stroke-width="16"/><path fill="none" stroke="currentColor" stroke-linecap="round" stroke-linejoin="round" stroke-width="16" d="m56.69 216 109.65-109.66a8 8 0 0 1 11.32 0L216 144.69"/></svg>