<svg xmlns="http://www.w3.org/2000/svg" viewBox="0 0 256 256"><path fill="none" d="M0 0h256v256H0z"/><path d="M176 32H80a48 48 0 0 0-48 48v96a48 48 0 0 0 48 48h96a48 48 0 0 0 48-48V80a48 48 0 0 0-48-48m-48 136a40 40 0 1 1 40-40 40 40 0 0 1-40 40" opacity=".2"/><rect width="192" height="192" x="32" y="32" fill="none" stroke="currentColor" stroke-linecap="round" stroke-linejoin="round" stroke-width="16" rx="48"/><circle cx="128" cy="128" r="40" fill="none" stroke="currentColor" stroke-miterlimit="10" stroke-width="16"/><circle cx="180" cy="76" r="12"/></svg>