<svg xmlns="http://www.w3.org/2000/svg" viewBox="0 0 256 256"><path fill="none" d="M0 0h256v256H0z"/><path d="M168 200v-96h56v88a8 8 0 0 1-8 8Z" opacity=".2"/><path fill="none" stroke="currentColor" stroke-linecap="round" stroke-linejoin="round" stroke-width="16" d="M64 56H40a16 16 0 0 0-16 16h0a16 16 0 0 0 16 16h16a16 16 0 0 1 16 16h0a16 16 0 0 1-16 16H28M48 48v8M48 120v8"/><path fill="none" stroke="currentColor" stroke-linecap="round" stroke-linejoin="round" stroke-width="16" d="M96 56h128v136a8 8 0 0 1-8 8H40a8 8 0 0 1-8-8v-40M104 104h120M80 152h144M168 104v96"/></svg>