<svg xmlns="http://www.w3.org/2000/svg" viewBox="0 0 256 256"><path fill="none" d="M0 0h256v256H0z"/><path d="m32 96 10.64-49.68A8 8 0 0 1 50.47 40h155.06a8 8 0 0 1 7.83 6.32L224 96Z" opacity=".2"/><path fill="none" stroke="currentColor" stroke-linecap="round" stroke-linejoin="round" stroke-width="16" d="M224 168v32a8 8 0 0 1-8 8h-24a8 8 0 0 1-8-8v-32M72 168v32a8 8 0 0 1-8 8H40a8 8 0 0 1-8-8v-32M16 96h224M144 128v40M112 128v40"/><path fill="none" stroke="currentColor" stroke-linecap="round" stroke-linejoin="round" stroke-width="16" d="M224 168H32V96l10.64-49.68A8 8 0 0 1 50.47 40h155.06a8 8 0 0 1 7.83 6.32L224 96Z"/><circle cx="68" cy="132" r="12"/><circle cx="188" cy="132" r="12"/></svg>