<svg xmlns="http://www.w3.org/2000/svg" viewBox="0 0 256 256"><path fill="none" d="M0 0h256v256H0z"/><rect width="160" height="144" x="48" y="56" opacity=".2" rx="24"/><circle cx="100" cy="112" r="12"/><circle cx="156" cy="112" r="12"/><path fill="none" stroke="currentColor" stroke-linecap="round" stroke-linejoin="round" stroke-width="16" d="M156 152a53 53 0 0 1-56 0"/><rect width="160" height="144" x="48" y="56" fill="none" stroke="currentColor" stroke-linecap="round" stroke-linejoin="round" stroke-width="16" rx="24"/><path fill="none" stroke="currentColor" stroke-linecap="round" stroke-linejoin="round" stroke-width="16" d="M96 56V32a8 8 0 0 1 8-8h48a8 8 0 0 1 8 8v24M72 200v24a8 8 0 0 0 8 8h96a8 8 0 0 0 8-8v-24"/></svg>