<svg xmlns="http://www.w3.org/2000/svg" viewBox="0 0 256 256"><path fill="none" d="M0 0h256v256H0z"/><path d="M195.88 60.12a96 96 0 0 1 0 135.76l-39.6-39.6a40 40 0 0 0 0-56.56ZM60.12 195.88a96 96 0 0 1 0-135.76l39.6 39.6a40 40 0 0 0 0 56.56Z" opacity=".2"/><circle cx="128" cy="128" r="96" fill="none" stroke="currentColor" stroke-linecap="round" stroke-linejoin="round" stroke-width="16"/><circle cx="128" cy="128" r="40" fill="none" stroke="currentColor" stroke-linecap="round" stroke-linejoin="round" stroke-width="16"/><path fill="none" stroke="currentColor" stroke-linecap="round" stroke-linejoin="round" stroke-width="16" d="m99.72 99.72-39.6-39.6M156.28 99.72l39.6-39.6M156.28 156.28l39.6 39.6M99.72 156.28l-39.6 39.6"/></svg>