<svg xmlns="http://www.w3.org/2000/svg" viewBox="0 0 256 256"><path fill="none" d="M0 0h256v256H0z"/><path d="M80 56h96l5.61 56H74.39zM68.77 168h118.46l4.77 47.24a8 8 0 0 1-8 8.76H72a8 8 0 0 1-8-8.76Z" opacity=".2"/><path fill="none" stroke="currentColor" stroke-linecap="round" stroke-linejoin="round" stroke-width="16" d="M80 56h96M80 56 64 215.24a8 8 0 0 0 8 8.76h112a8 8 0 0 0 8-8.76L176 56l-42.88-38.15a8 8 0 0 0-10.24 0ZM128 88v24"/><path fill="none" stroke="currentColor" stroke-linecap="round" stroke-linejoin="round" stroke-width="16" d="M208 88v24H48V88M68.77 168h118.46"/></svg>