<svg xmlns="http://www.w3.org/2000/svg" viewBox="0 0 256 256"><path fill="none" d="M0 0h256v256H0z"/><path d="M218.34 53.66a46.62 46.62 0 0 0-65.94 0L117.66 88.4c-.33.33-.64.66-1 1a46.6 46.6 0 0 0-44.26 12.26L37.66 136.4a46.63 46.63 0 0 0-.06 65.89 46.63 46.63 0 0 0 66 .05l34.74-34.74c.33-.33.64-.66.95-1a46.58 46.58 0 0 0 44.31-12.26l34.74-34.74a46.62 46.62 0 0 0 0-65.94" opacity=".2"/><path fill="none" stroke="currentColor" stroke-linecap="round" stroke-linejoin="round" stroke-width="16" d="m141.38 64.68 11-11a46.62 46.62 0 0 1 65.94 0h0a46.62 46.62 0 0 1 0 65.94L193.94 144l-10.34 10.34a46.63 46.63 0 0 1-66-.05h0a46.48 46.48 0 0 1-13.6-34.23"/><path fill="none" stroke="currentColor" stroke-linecap="round" stroke-linejoin="round" stroke-width="16" d="m114.62 191.32-11 11a46.63 46.63 0 0 1-66-.05h0a46.63 46.63 0 0 1 .06-65.89l34.72-34.72a46.62 46.62 0 0 1 65.94 0h0A46.45 46.45 0 0 1 152 135.94"/></svg>