<svg xmlns="http://www.w3.org/2000/svg" viewBox="0 0 256 256"><path fill="none" d="M0 0h256v256H0z"/><path d="m128.57 160.57-30 29a8 8 0 0 0-.08 11.4l28.66 28.66a8 8 0 0 0 11.26.05l30-29.35ZM55.77 87.77 26.31 117.6a8 8 0 0 0 0 11.28L55 157.54a8 8 0 0 0 11.38-.06l29.18-29.92Z" opacity=".2"/><path fill="none" stroke="currentColor" stroke-linecap="round" stroke-linejoin="round" stroke-width="16" d="M26.34 128.88 55 157.54a8 8 0 0 0 11.37-.06L127.29 95a24 24 0 0 1 33.61-.33c9.69 9.34 9.46 25.14-.05 34.65L98.54 189.6a8 8 0 0 0-.08 11.4l28.66 28.66a8 8 0 0 0 11.26.05l61.74-60.43c31.19-31.19 32.1-82 1.14-113.42a80 80 0 0 0-113.57-.43L26.31 117.6a8 8 0 0 0 .03 11.28M128.57 160.57l39.79 39.79M55.77 87.77l39.79 39.79"/></svg>