<svg xmlns="http://www.w3.org/2000/svg" viewBox="0 0 256 256"><path fill="none" d="M0 0h256v256H0z"/><path d="M232 176v-60a52 52 0 0 0-52-52H76a52 52 0 0 1 52 52v68h96a8 8 0 0 0 8-8" opacity=".2"/><path fill="none" stroke="currentColor" stroke-linecap="round" stroke-linejoin="round" stroke-width="16" d="M96 152H56M160 144V24h32"/><path fill="none" stroke="currentColor" stroke-linecap="round" stroke-linejoin="round" stroke-width="16" d="M232 176v-60a52 52 0 0 0-52-52H76a52 52 0 0 1 52 52v68h96a8 8 0 0 0 8-8"/><path fill="none" stroke="currentColor" stroke-linecap="round" stroke-linejoin="round" stroke-width="16" d="M128 224v-40H32a8 8 0 0 1-8-8v-60a52 52 0 0 1 52-52"/></svg>