<svg xmlns="http://www.w3.org/2000/svg" viewBox="0 0 256 256"><path fill="none" d="M0 0h256v256H0z"/><path d="M176 211.16a96 96 0 1 0-96 0V176a8 8 0 0 1 8-8h8v-24a8 8 0 0 1 8-8h4.16l12-57.63c1.77-8.49 13.89-8.49 15.66 0l12 57.63H152a8 8 0 0 1 8 8v24h8a8 8 0 0 1 8 8z" opacity=".2"/><circle cx="128" cy="128" r="96" fill="none" stroke="currentColor" stroke-linecap="round" stroke-linejoin="round" stroke-width="16"/><path fill="none" stroke="currentColor" stroke-linecap="round" stroke-linejoin="round" stroke-width="16" d="M176 211.16V176a8 8 0 0 0-8-8H88a8 8 0 0 0-8 8v35.16M96 168v-24a8 8 0 0 1 8-8h48a8 8 0 0 1 8 8v24M147.84 136l-12-57.63c-1.77-8.49-13.89-8.49-15.66 0l-12 57.63"/></svg>