<svg xmlns="http://www.w3.org/2000/svg" viewBox="0 0 256 256"><path fill="none" d="M0 0h256v256H0z"/><path d="M144 69.09 50.24 40.33A8 8 0 0 0 40 48v144a8 8 0 0 0 10.24 7.67L144 170.91Z" opacity=".2"/><path fill="none" stroke="currentColor" stroke-linecap="round" stroke-linejoin="round" stroke-width="16" d="M226.24 145.68A8 8 0 0 0 232 138v-36a8 8 0 0 0-5.76-7.68l-176-54A8 8 0 0 0 40 48v144a8 8 0 0 0 10.24 7.68Z"/><path fill="none" stroke="currentColor" stroke-linecap="round" stroke-linejoin="round" stroke-width="16" d="M192 156.18V192a8 8 0 0 1-8 8h-32a8 8 0 0 1-8-8V69.09"/></svg>