<svg xmlns="http://www.w3.org/2000/svg" viewBox="0 0 256 256"><path fill="none" d="M0 0h256v256H0z"/><path d="M232 64H24a8 8 0 0 0-8 8v104h224V72a8 8 0 0 0-8-8m-120 80H48V96h64Zm96 0h-64V96h64Z" opacity=".2"/><path fill="none" stroke="currentColor" stroke-linecap="round" stroke-linejoin="round" stroke-width="16" d="M24 64h208a8 8 0 0 1 8 8v104h0H16h0V72a8 8 0 0 1 8-8M16 176v24M48 176v24M80 176v24M112 176v24M144 176v24M176 176v24M208 176v24M240 176v24"/><path fill="none" stroke="currentColor" stroke-linecap="round" stroke-linejoin="round" stroke-width="16" d="M48 96h64v48H48zM144 96h64v48h-64z"/></svg>