<svg xmlns="http://www.w3.org/2000/svg" viewBox="0 0 256 256"><path fill="none" d="M0 0h256v256H0z"/><rect width="112" height="112" x="32" y="72" opacity=".2" rx="8"/><rect width="112" height="112" x="32" y="72" fill="none" stroke="currentColor" stroke-linecap="round" stroke-linejoin="round" stroke-width="16" rx="8"/><path fill="none" stroke="currentColor" stroke-linecap="round" stroke-linejoin="round" stroke-width="16" d="M144 88h40a8 8 0 0 1 8 8v72a56 56 0 0 1-56 56h0a56 56 0 0 1-53.68-40M104 104H72M88 152v-48"/><path fill="none" stroke="currentColor" stroke-linecap="round" stroke-linejoin="round" stroke-width="16" d="M184 88h35.26a4.74 4.74 0 0 1 4.74 4.74V152a32 32 0 0 1-32 32h0c-.77 0-1.54 0-2.3-.08M108.28 72A32 32 0 1 1 144 87"/><path fill="none" stroke="currentColor" stroke-linecap="round" stroke-linejoin="round" stroke-width="16" d="M166.79 47.27A24 24 0 1 1 184 88"/></svg>