<svg xmlns="http://www.w3.org/2000/svg" viewBox="0 0 256 256"><path fill="none" d="M0 0h256v256H0z"/><rect width="80" height="144" x="88" y="24" opacity=".2" rx="40"/><path fill="none" stroke="currentColor" stroke-linecap="round" stroke-linejoin="round" stroke-width="16" d="M128 200v40M48 48l160 176M172.32 184.75A72 72 0 0 1 56 128M200 128a71.7 71.7 0 0 1-7.29 31.61"/><path fill="none" stroke="currentColor" stroke-linecap="round" stroke-linejoin="round" stroke-width="16" d="M150.68 161a39.77 39.77 0 0 1-22.68 7h0a40 40 0 0 1-40-40V92M91.3 48.06A40 40 0 0 1 128 24h0a40 40 0 0 1 40 40v64a39 39 0 0 1-.22 4.19"/></svg>