<svg xmlns="http://www.w3.org/2000/svg" viewBox="0 0 256 256"><path fill="none" d="M0 0h256v256H0z"/><rect width="120" height="112" x="32" y="72" opacity=".2" rx="8"/><path fill="none" stroke="currentColor" stroke-linecap="round" stroke-linejoin="round" stroke-width="16" d="M152 96h56M152 160h56M64 72V40a8 8 0 0 1 8-8h128a8 8 0 0 1 8 8v176a8 8 0 0 1-8 8H72a8 8 0 0 1-8-8v-32"/><path fill="none" stroke="currentColor" stroke-linecap="round" stroke-linejoin="round" stroke-width="16" d="m64 104 12 48 16-32 16 32 12-48"/><rect width="120" height="112" x="32" y="72" fill="none" stroke="currentColor" stroke-linecap="round" stroke-linejoin="round" stroke-width="16" rx="8"/></svg>