<svg xmlns="http://www.w3.org/2000/svg" viewBox="0 0 256 256"><path fill="none" d="M0 0h256v256H0z"/><circle cx="128" cy="128" r="32" opacity=".2"/><path d="M240 64h-40a48.85 48.85 0 0 0 40 40ZM240 192v-40a48.85 48.85 0 0 0-40 40ZM16 192v-40a48.85 48.85 0 0 1 40 40ZM16 64v40a48.85 48.85 0 0 0 40-40Z" opacity=".2"/><circle cx="128" cy="128" r="32" fill="none" stroke="currentColor" stroke-linecap="round" stroke-linejoin="round" stroke-width="16"/><path fill="none" stroke="currentColor" stroke-linecap="round" stroke-linejoin="round" stroke-width="16" d="M16 64h224v128H16z"/><path fill="none" stroke="currentColor" stroke-linecap="round" stroke-linejoin="round" stroke-width="16" d="M240 104a48.85 48.85 0 0 1-40-40M200 192a48.85 48.85 0 0 1 40-40M16 152a48.85 48.85 0 0 1 40 40M56 64a48.85 48.85 0 0 1-40 40"/></svg>