<svg xmlns="http://www.w3.org/2000/svg" viewBox="0 0 256 256"><path fill="none" d="M0 0h256v256H0z"/><path d="M16 69.21v120c91.64-44.77 132.36 42.35 224-2.42v-120c-91.64 44.77-132.36-42.35-224 2.42M128 152a24 24 0 1 1 24-24 24 24 0 0 1-24 24" opacity=".2"/><path fill="none" stroke="currentColor" stroke-linecap="round" stroke-linejoin="round" stroke-width="16" d="M240 186.79c-91.64 44.77-132.36-42.35-224 2.42v-120c91.64-44.77 132.36 42.35 224-2.42Z"/><circle cx="128" cy="128" r="24" fill="none" stroke="currentColor" stroke-linecap="round" stroke-linejoin="round" stroke-width="16"/><path fill="none" stroke="currentColor" stroke-linecap="round" stroke-linejoin="round" stroke-width="16" d="M48 96v48M208 112v48"/></svg>