<svg xmlns="http://www.w3.org/2000/svg" viewBox="0 0 256 256"><path fill="none" d="M0 0h256v256H0z"/><rect width="48" height="96" x="104" y="144" opacity=".2" rx="24"/><circle cx="128" cy="48" r="32" opacity=".2"/><rect width="48" height="96" x="104" y="144" fill="none" stroke="currentColor" stroke-linecap="round" stroke-linejoin="round" stroke-width="16" rx="24"/><circle cx="128" cy="48" r="32" fill="none" stroke="currentColor" stroke-linecap="round" stroke-linejoin="round" stroke-width="16"/><path fill="none" stroke="currentColor" stroke-linecap="round" stroke-linejoin="round" stroke-width="16" d="M160 48h48M48 48h48M104 208H80a8 8 0 0 1-8-8v-64a56 56 0 0 1 56-56h0a56 56 0 0 1 56 56v64a8 8 0 0 1-8 8h-24"/></svg>