<svg xmlns="http://www.w3.org/2000/svg" viewBox="0 0 256 256"><path fill="none" d="M0 0h256v256H0z"/><path d="M48 128c0-64 80-72 80-104 0 32 80 40 80 104Z" opacity=".2"/><path fill="none" stroke="currentColor" stroke-linecap="round" stroke-linejoin="round" stroke-width="16" d="M208 152a16 16 0 0 1 16-16h0a16 16 0 0 1 16 16v56h-32M48 208H16v-56a16 16 0 0 1 16-16h0a16 16 0 0 1 16 16M208 128H48M48 208v-80c0-64 80-72 80-104 0 32 80 40 80 104v80h-32v-32a16 16 0 0 0-16-16h0a16 16 0 0 0-16 16v32h-32v-32a16 16 0 0 0-16-16h0a16 16 0 0 0-16 16v32Z"/></svg>