<svg xmlns="http://www.w3.org/2000/svg" viewBox="0 0 256 256"><path fill="none" d="M0 0h256v256H0z"/><path d="M50.35 128h75.3L168 200H8z" opacity=".2"/><circle cx="164" cy="52" r="20" opacity=".2"/><path d="m146.61 163.71 33.06-55.79a8 8 0 0 1 13.76 0L248 200h-80Z" opacity=".2"/><circle cx="164" cy="52" r="20" fill="none" stroke="currentColor" stroke-linecap="round" stroke-linejoin="round" stroke-width="16"/><path fill="none" stroke="currentColor" stroke-linecap="round" stroke-linejoin="round" stroke-width="16" d="M8 200 81.1 75.94a8 8 0 0 1 13.8 0L168 200ZM50.35 128h75.3"/><path fill="none" stroke="currentColor" stroke-linecap="round" stroke-linejoin="round" stroke-width="16" d="m146.61 163.71 33.06-55.79a8 8 0 0 1 13.76 0L248 200h-80"/></svg>