<svg xmlns="http://www.w3.org/2000/svg" viewBox="0 0 256 256"><path fill="none" d="M0 0h256v256H0z"/><rect width="48" height="48" x="40" y="168" opacity=".2" rx="8"/><rect width="48" height="48" x="104" y="32" opacity=".2" rx="8"/><rect width="48" height="48" x="40" y="168" fill="none" stroke="currentColor" stroke-linecap="round" stroke-linejoin="round" stroke-width="16" rx="8"/><path fill="none" stroke="currentColor" stroke-linecap="round" stroke-linejoin="round" stroke-width="16" d="M64 168v-48M104 54V40a8 8 0 0 1 8-8h32a8 8 0 0 1 8 8v32a8 8 0 0 1-8 8h-16.39M48 40l160 176M163.97 120H232M24 120h96.73M192 120v30.83"/></svg>