<svg xmlns="http://www.w3.org/2000/svg" viewBox="0 0 256 256"><path fill="none" d="M0 0h256v256H0z"/><path d="M216 48H40a8 8 0 0 0-8 8v160l32-16 32 16 32-16 32 16 32-16 32 16V56a8 8 0 0 0-8-8M112 160H64V96h48Z" opacity=".2"/><path fill="none" stroke="currentColor" stroke-linecap="round" stroke-linejoin="round" stroke-width="16" d="M32 216V56a8 8 0 0 1 8-8h176a8 8 0 0 1 8 8v160l-32-16-32 16-32-16-32 16-32-16ZM144 112h48M144 144h48"/><path fill="none" stroke="currentColor" stroke-linecap="round" stroke-linejoin="round" stroke-width="16" d="M64 96h48v64H64z"/></svg>