<svg xmlns="http://www.w3.org/2000/svg" viewBox="0 0 256 256"><path fill="none" d="M0 0h256v256H0z"/><path d="M37.67 216C51.16 189.65 70 144.55 71.86 95.64a8 8 0 0 1 8-7.64h56.3a8 8 0 0 1 8 7.64c1.83 48.91 20.7 94 34.19 120.36Z" opacity=".2"/><path fill="none" stroke="currentColor" stroke-linecap="round" stroke-linejoin="round" stroke-width="16" d="M192 24a16 16 0 0 1-16 16h-24a16 16 0 0 0-16 16M160 8h-8a48 48 0 0 0-48 48M16 216h224M37.67 216C51.16 189.65 70 144.55 71.86 95.64a8 8 0 0 1 8-7.64h56.3a8 8 0 0 1 8 7.64c1.83 48.91 20.7 94 34.19 120.36"/><path fill="none" stroke="currentColor" stroke-linecap="round" stroke-linejoin="round" stroke-width="16" d="M136.15 88h32a8 8 0 0 1 8 7.63c2.35 53.58 28.62 103.25 38.64 120.37"/></svg>