<svg xmlns="http://www.w3.org/2000/svg" viewBox="0 0 256 256"><path fill="none" d="M0 0h256v256H0z"/><path d="m219.84 73.16-88-48.16a8 8 0 0 0-7.68 0l-88 48.18a8 8 0 0 0-4.16 7v95.64a8 8 0 0 0 4.16 7l88 48.18a8 8 0 0 0 7.68 0l88-48.18a8 8 0 0 0 4.16-7V80.18a8 8 0 0 0-4.16-7.02M128 168a40 40 0 1 1 40-40 40 40 0 0 1-40 40" opacity=".2"/><circle cx="128" cy="128" r="40" fill="none" stroke="currentColor" stroke-linecap="round" stroke-linejoin="round" stroke-width="16"/><path fill="none" stroke="currentColor" stroke-linecap="round" stroke-linejoin="round" stroke-width="16" d="m219.84 182.84-88 48.18a8 8 0 0 1-7.68 0l-88-48.18a8 8 0 0 1-4.16-7V80.18a8 8 0 0 1 4.16-7l88-48.18a8 8 0 0 1 7.68 0l88 48.18a8 8 0 0 1 4.16 7v95.64a8 8 0 0 1-4.16 7.02"/></svg>