<svg xmlns="http://www.w3.org/2000/svg" viewBox="0 0 256 256"><path fill="none" d="M0 0h256v256H0z"/><path d="M93.72 24a8 8 0 0 0-7.92 6.87l-13.72 96A8 8 0 0 0 80 136h96a8 8 0 0 0 7.92-9.13l-13.72-96a8 8 0 0 0-7.92-6.87Z" opacity=".2"/><path fill="none" stroke="currentColor" stroke-linecap="round" stroke-linejoin="round" stroke-width="16" d="M72 232a24 24 0 0 1 24-24h64a24 24 0 0 1 24 24h0M128 168v64M16 128h24a40 40 0 0 0 40 40h96a40 40 0 0 0 40-40h24"/><path fill="none" stroke="currentColor" stroke-linecap="round" stroke-linejoin="round" stroke-width="16" d="M93.72 24a8 8 0 0 0-7.92 6.87l-13.72 96A8 8 0 0 0 80 136h96a8 8 0 0 0 7.92-9.13l-13.72-96a8 8 0 0 0-7.92-6.87Z"/></svg>