<svg xmlns="http://www.w3.org/2000/svg" viewBox="0 0 256 256"><path fill="none" d="M0 0h256v256H0z"/><path d="M51.5 148.5a48 48 0 0 1-10.38-8.08 48 48 0 0 0 66.4 64.08L152 178.81v-36.95l-56 32.33Z" opacity=".2"/><path d="M204.5 107.5 160 81.81l-32 18.48 56 32.33V184a48 48 0 0 1-1.81 13 48 48 0 0 0 22.31-89.5" opacity=".2"/><path d="M104 141.86V77.19l44.5-25.69a47.8 47.8 0 0 1 12.19-5A48 48 0 0 0 72 72v51.38z" opacity=".2"/><path fill="none" stroke="currentColor" stroke-linecap="round" stroke-linejoin="round" stroke-width="16" d="M104 141.86V77.19l44.5-25.69a48 48 0 0 1 66.4 64.08"/><path fill="none" stroke="currentColor" stroke-linecap="round" stroke-linejoin="round" stroke-width="16" d="m128 155.71-56-32.33V72a48 48 0 0 1 88.69-25.47"/><path fill="none" stroke="currentColor" stroke-linecap="round" stroke-linejoin="round" stroke-width="16" d="m152 141.86-56 32.33-44.5-25.69A48 48 0 0 1 73.79 59"/><path fill="none" stroke="currentColor" stroke-linecap="round" stroke-linejoin="round" stroke-width="16" d="M152 114.14v64.67l-44.5 25.69a48 48 0 0 1-66.4-64.08"/><path fill="none" stroke="currentColor" stroke-linecap="round" stroke-linejoin="round" stroke-width="16" d="m128 100.29 56 32.33V184a48 48 0 0 1-88.69 25.47"/><path fill="none" stroke="currentColor" stroke-linecap="round" stroke-linejoin="round" stroke-width="16" d="m104 114.14 56-32.33 44.5 25.69a48 48 0 0 1-22.29 89.55"/></svg>