<svg xmlns="http://www.w3.org/2000/svg" viewBox="0 0 256 256"><path fill="none" d="M0 0h256v256H0z"/><path d="M128 129.09 32.7 76.93a8 8 0 0 0-.7 3.25v95.64a8 8 0 0 0 4.16 7l88 48.18a8 8 0 0 0 3.84 1Z" opacity=".2"/><path fill="none" stroke="currentColor" stroke-linecap="round" stroke-linejoin="round" stroke-width="16" d="m32.7 76.92 95.3 52.16 95.3-52.16M128 129.09v102.88"/><path fill="none" stroke="currentColor" stroke-linecap="round" stroke-linejoin="round" stroke-width="16" d="m219.84 182.84-88 48.18a8 8 0 0 1-7.68 0l-88-48.18a8 8 0 0 1-4.16-7V80.18a8 8 0 0 1 4.16-7l88-48.18a8 8 0 0 1 7.68 0l88 48.18a8 8 0 0 1 4.16 7v95.64a8 8 0 0 1-4.16 7.02"/><path fill="none" stroke="currentColor" stroke-linecap="round" stroke-linejoin="round" stroke-width="16" d="M81.56 48.31 176 100v52"/></svg>