<svg xmlns="http://www.w3.org/2000/svg" viewBox="0 0 256 256"><path fill="none" d="M0 0h256v256H0z"/><path d="M216 136a16 16 0 0 1-16 16h-48a8 8 0 0 0-7.92 9.13L152 208a24 24 0 0 1-48 0l7.92-46.87A8 8 0 0 0 104 152H56a16 16 0 0 1-16-16v-24h176Z" opacity=".2"/><path fill="none" stroke="currentColor" stroke-linecap="round" stroke-linejoin="round" stroke-width="16" d="M40 112h176M56 152a16 16 0 0 1-16-16V64a32 32 0 0 1 32-32h144v104a16 16 0 0 1-16 16h-48a8 8 0 0 0-7.92 9.13L152 208a24 24 0 0 1-48 0l7.92-46.87A8 8 0 0 0 104 152ZM184 32v48"/></svg>