<svg xmlns="http://www.w3.org/2000/svg" viewBox="0 0 256 256"><path fill="none" d="M0 0h256v256H0z"/><path d="M165.36 123.05C192.36 99.43 224 64.81 224 32c-32.81 0-67.43 31.64-91 58.64a84.4 84.4 0 0 1 32.36 32.41" opacity=".2"/><path fill="none" stroke="currentColor" stroke-linecap="round" stroke-linejoin="round" stroke-width="16" d="M16 216h76a52 52 0 1 0-52-52c0 36-24 52-24 52"/><path fill="none" stroke="currentColor" stroke-linecap="round" stroke-linejoin="round" stroke-width="16" d="M112.41 116.16C131.6 90.29 179.46 32 224 32c0 44.54-58.29 92.4-84.16 111.59"/><path fill="none" stroke="currentColor" stroke-linecap="round" stroke-linejoin="round" stroke-width="16" d="M133 90.64a84.4 84.4 0 0 1 32.41 32.41"/></svg>