<svg xmlns="http://www.w3.org/2000/svg" viewBox="0 0 256 256"><path fill="none" d="M0 0h256v256H0z"/><path d="M248 208a16 16 0 0 1-32 0c0-16 16-40 16-40s16 24 16 40M116.52 16l-95.83 95.83a16 16 0 0 0 0 22.63l84.85 84.85a16 16 0 0 0 22.63 0L208 139.48l24-8Zm21.62 114.14a20 20 0 1 1 0-28.28 20 20 0 0 1 0 28.28" opacity=".2"/><path fill="none" stroke="currentColor" stroke-linecap="round" stroke-linejoin="round" stroke-width="16" d="M248 208a16 16 0 0 1-32 0c0-16 16-40 16-40s16 24 16 40M208 139.48l-79.83 79.83a16 16 0 0 1-22.63 0l-84.85-84.85a16 16 0 0 1 0-22.63L116.52 16 232 131.48Z"/><circle cx="124" cy="116" r="20" fill="none" stroke="currentColor" stroke-linecap="round" stroke-linejoin="round" stroke-width="16"/><path fill="none" stroke="currentColor" stroke-linecap="round" stroke-linejoin="round" stroke-width="16" d="M109.86 101.86 39.99 32"/></svg>