<svg xmlns="http://www.w3.org/2000/svg" viewBox="0 0 256 256"><path fill="none" d="M0 0h256v256H0z"/><path d="M236.53 198.59A8 8 0 0 0 240 192V64a8 8 0 0 0-10-7.73C212.65 60.89 174.56 72 128 72S43.35 60.89 26.05 56.27A8 8 0 0 0 16 64v96.68l54.34-54.35a8 8 0 0 1 11.32 0L131.31 156 157 130.34a8 8 0 0 1 11.31 0Z" opacity=".2"/><path fill="none" stroke="currentColor" stroke-linecap="round" stroke-linejoin="round" stroke-width="16" d="M16 64a8 8 0 0 1 10.05-7.74C43.35 60.89 81.44 72 128 72s84.65-11.11 102-15.73A8 8 0 0 1 240 64v128a8 8 0 0 1-10.06 7.73C212.63 195.08 174.55 184 128 184s-84.63 11.08-101.94 15.72A8 8 0 0 1 16 192Z"/><circle cx="204" cy="108" r="12"/><path fill="none" stroke="currentColor" stroke-linecap="round" stroke-linejoin="round" stroke-width="16" d="m16 160.69 54.34-54.35a8 8 0 0 1 11.32 0l79.46 79.46"/><path fill="none" stroke="currentColor" stroke-linecap="round" stroke-linejoin="round" stroke-width="16" d="M131.31 156 157 130.34a8 8 0 0 1 11.31 0l68.25 68.25"/></svg>