<svg xmlns="http://www.w3.org/2000/svg" viewBox="0 0 256 256"><path fill="none" d="M0 0h256v256H0z"/><path d="M193.94 39a8 8 0 0 0-7.94-7H70a8 8 0 0 0-7.94 7L54 104h2a40 40 0 0 0 40-40h64a40 40 0 0 0 40 40h2.05Z" opacity=".2"/><path fill="none" stroke="currentColor" stroke-linecap="round" stroke-linejoin="round" stroke-width="16" d="M186 32a8 8 0 0 1 7.94 7l22 176a8 8 0 0 1-7.94 9h-40.69a8 8 0 0 1-7.76-6.06L128 96 96.45 217.94a8 8 0 0 1-7.76 6.06H48a8 8 0 0 1-7.94-9l22-176A8 8 0 0 1 70 32ZM128 96V64M58.94 64h138.12"/><path fill="none" stroke="currentColor" stroke-linecap="round" stroke-linejoin="round" stroke-width="16" d="M96 64a40 40 0 0 1-40 40h-2M202.06 104H200a40 40 0 0 1-40-40"/></svg>