<svg xmlns="http://www.w3.org/2000/svg" viewBox="0 0 256 256"><path fill="none" d="M0 0h256v256H0z"/><path d="M128 24a96 96 0 0 0-96 96h56c0-72 40-96 40-96M128 24s40 24 40 96h56a96 96 0 0 0-96-96" opacity=".2"/><path fill="none" stroke="currentColor" stroke-linecap="round" stroke-linejoin="round" stroke-width="16" d="M224 120a96 96 0 0 0-192 0ZM224 120l-96 72-96-72M128 192v32M112 224h32"/><path fill="none" stroke="currentColor" stroke-linecap="round" stroke-linejoin="round" stroke-width="16" d="m128 192-40-72c0-72 40-96 40-96s40 24 40 96Z"/></svg>