<svg xmlns="http://www.w3.org/2000/svg" viewBox="0 0 256 256"><path fill="none" d="M0 0h256v256H0z"/><path d="M240 56H16A16 16 0 0 0 0 72v112a16 16 0 0 0 16 16h224a16 16 0 0 0 16-16V72a16 16 0 0 0-16-16" opacity=".2"/><path fill="none" stroke="currentColor" stroke-linecap="round" stroke-linejoin="round" stroke-width="16" d="M40 56v144M112 96v32M81.57 118.11 112 128M93.19 153.89 112 128M130.81 153.89 112 128M142.43 118.11 112 128M208 96v32M177.57 118.11 208 128M189.19 153.89 208 128M226.81 153.89 208 128M238.43 118.11 208 128"/></svg>