<svg xmlns="http://www.w3.org/2000/svg" viewBox="0 0 256 256"><path fill="none" d="M0 0h256v256H0z"/><path d="M176 80h-56a8 8 0 0 0-7.76 6.06l-12 48A8 8 0 0 1 108 128h36a48 48 0 0 0 46.56-36.36 49 49 0 0 0 1.37-8.94A48.3 48.3 0 0 0 176 80" opacity=".2"/><path fill="none" stroke="currentColor" stroke-linecap="round" stroke-linejoin="round" stroke-width="16" d="M144 128a48 48 0 0 0 46.56-36.36h0A48 48 0 0 0 144 32H84a8 8 0 0 0-7.76 6.06l-36 144A8 8 0 0 0 48 192h31.51a8 8 0 0 0 7.76-6.06l13-51.88A8 8 0 0 1 108 128Z"/><path fill="none" stroke="currentColor" stroke-linecap="round" stroke-linejoin="round" stroke-width="16" d="m87.27 185.94-7 28.12A8 8 0 0 0 88 224h31.51a8 8 0 0 0 7.76-6.06l9-35.88A8 8 0 0 1 144 176h32a48 48 0 0 0 46.56-36.36h0A48 48 0 0 0 176 80h-56a8 8 0 0 0-7.76 6.06l-12 48"/></svg>