<svg xmlns="http://www.w3.org/2000/svg" viewBox="0 0 256 256"><path fill="none" d="M0 0h256v256H0z"/><path d="M128 48 68.32 70.38a8 8 0 0 0-5.08 6.17L40 216l139.45-23.24a8 8 0 0 0 6.17-5.08L208 128Zm-4 104a20 20 0 1 1 20-20 20 20 0 0 1-20 20" opacity=".2"/><path fill="none" stroke="currentColor" stroke-linecap="round" stroke-linejoin="round" stroke-width="16" d="m40.01 216 69.85-69.86"/><circle cx="124" cy="132" r="20" fill="none" stroke="currentColor" stroke-linecap="round" stroke-linejoin="round" stroke-width="16"/><path fill="none" stroke="currentColor" stroke-linecap="round" stroke-linejoin="round" stroke-width="16" d="m40 216 139.45-23.24a8 8 0 0 0 6.17-5.08L208 128l-80-80-59.68 22.38a8 8 0 0 0-5.08 6.17Z"/><path fill="none" stroke="currentColor" stroke-linecap="round" stroke-linejoin="round" stroke-width="16" d="m208 128 29.66-29.66a8 8 0 0 0 0-11.31L169 18.34a8 8 0 0 0-11.31 0L128 48"/></svg>