<svg xmlns="http://www.w3.org/2000/svg" viewBox="0 0 256 256"><path fill="none" d="M0 0h256v256H0z"/><path d="M221.66 90.34a8 8 0 0 0 0-11.31L177 34.34a8 8 0 0 0-11.31 0L136 64l56 56Z" opacity=".2"/><path fill="none" stroke="currentColor" stroke-linecap="round" stroke-linejoin="round" stroke-width="16" d="m136 64 56 56M48 40l160 176M154.67 157.33l-56.33 56.33a8 8 0 0 1-5.65 2.34H48a8 8 0 0 1-8-8v-44.69a8 8 0 0 1 2.34-5.65l59-59M124 76l41.67-41.67a8 8 0 0 1 11.31 0L221.66 79a8 8 0 0 1 0 11.31l-44.34 44.34"/></svg>