<svg xmlns="http://www.w3.org/2000/svg" viewBox="0 0 256 256"><path fill="none" d="M0 0h256v256H0z"/><path d="m192 120-56-56 29.66-29.66a8 8 0 0 1 11.31 0L221.66 79a8 8 0 0 1 0 11.31Z" opacity=".2"/><path fill="none" stroke="currentColor" stroke-linecap="round" stroke-linejoin="round" stroke-width="16" d="M216 216H96l-55.49-55.49M164 92l-96 96"/><path fill="none" stroke="currentColor" stroke-linecap="round" stroke-linejoin="round" stroke-width="16" d="M96 216H48a8 8 0 0 1-8-8v-44.69a8 8 0 0 1 2.34-5.65L165.66 34.34a8 8 0 0 1 11.31 0L221.66 79a8 8 0 0 1 0 11.31ZM136 64l56 56"/></svg>