<svg xmlns="http://www.w3.org/2000/svg" viewBox="0 0 256 256"><path fill="none" d="M0 0h256v256H0z"/><path d="M40 184h64v24a8 8 0 0 1-8 8H48a8 8 0 0 1-8-8Z" opacity=".2"/><rect width="64" height="176" x="152" y="40" opacity=".2" rx="8"/><rect width="64" height="176" x="152" y="40" fill="none" stroke="currentColor" stroke-linecap="round" stroke-linejoin="round" stroke-width="16" rx="8"/><path fill="none" stroke="currentColor" stroke-linecap="round" stroke-linejoin="round" stroke-width="16" d="M152 88h32M152 128h32M152 168h32M40 64l32-32 32 32v144a8 8 0 0 1-8 8H48a8 8 0 0 1-8-8ZM72 72v112M104 72H40M104 184H40"/></svg>