<svg xmlns="http://www.w3.org/2000/svg" viewBox="0 0 256 256"><path fill="none" d="M0 0h256v256H0z"/><path d="M35.27 93.93a8 8 0 0 0-2.88 8.9l32 107.62A8 8 0 0 0 72 216h112a8 8 0 0 0 7.62-5.55l32-107.62a8 8 0 0 0-2.88-8.9l-88-68.38a8 8 0 0 0-9.46 0Z" opacity=".2"/><path fill="none" stroke="currentColor" stroke-linecap="round" stroke-linejoin="round" stroke-width="16" d="M35.27 93.93a8 8 0 0 0-2.88 8.9l32 107.62A8 8 0 0 0 72 216h112a8 8 0 0 0 7.62-5.55l32-107.62a8 8 0 0 0-2.88-8.9l-88-68.38a8 8 0 0 0-9.46 0Z"/></svg>