<svg xmlns="http://www.w3.org/2000/svg" viewBox="0 0 256 256"><path fill="none" d="M0 0h256v256H0z"/><circle cx="164" cy="52" r="20" opacity=".2"/><path d="m28.44 177.67 157.44 45.63A17.25 17.25 0 0 0 208 206.82a17.19 17.19 0 0 0-12.44-16.49L38.12 144.7A17.25 17.25 0 0 0 16 161.18a17.19 17.19 0 0 0 12.44 16.49" opacity=".2"/><circle cx="164" cy="52" r="20" fill="none" stroke="currentColor" stroke-linecap="round" stroke-linejoin="round" stroke-width="16"/><path fill="none" stroke="currentColor" stroke-linecap="round" stroke-linejoin="round" stroke-width="16" d="m28.44 177.67 157.44 45.63A17.25 17.25 0 0 0 208 206.82h0a17.19 17.19 0 0 0-12.44-16.49L38.12 144.7A17.25 17.25 0 0 0 16 161.18h0a17.19 17.19 0 0 0 12.44 16.49M80 80l136 40M131.28 95.08l-42.81 64.21"/><path fill="none" stroke="currentColor" stroke-linecap="round" stroke-linejoin="round" stroke-width="16" d="M114.18 120.73 160 134l-25.85 38.53"/></svg>