<svg xmlns="http://www.w3.org/2000/svg" viewBox="0 0 256 256"><path fill="none" d="M0 0h256v256H0z"/><path d="M80 136c39.13-1.55 67.87 42.59 109.62 29.54l-57.46-57.46a96 96 0 0 0-13.21-11Z" opacity=".2"/><circle cx="176" cy="72" r="24" opacity=".2"/><circle cx="176" cy="72" r="24" fill="none" stroke="currentColor" stroke-linecap="round" stroke-linejoin="round" stroke-width="16"/><path fill="none" stroke="currentColor" stroke-linecap="round" stroke-linejoin="round" stroke-width="16" d="M40 193.61c72-59.69 104 56.47 176-3.22M40 153.61c72-59.69 104 56.47 176-3.22"/><path fill="none" stroke="currentColor" stroke-linecap="round" stroke-linejoin="round" stroke-width="16" d="m189.58 165.58-57.46-57.46A96 96 0 0 0 64.24 80H40M79.96 136.04l38.95-38.95"/></svg>