<svg xmlns="http://www.w3.org/2000/svg" viewBox="0 0 256 256"><path fill="none" d="M0 0h256v256H0z"/><path d="M225.94 111.83c17.29 17.29 18.63 42.29 4 61.12a8 8 0 0 1-9.26 2.47L171.58 158a8 8 0 0 1-4.86-5.8l-6.21-29.74a7.94 7.94 0 0 0-5.14-5.9 84.4 84.4 0 0 0-55.1.13 7.93 7.93 0 0 0-5.12 6l-5.9 29.51a8 8 0 0 1-4.87 5.8l-49.09 17.42A8 8 0 0 1 26 173c-14.6-18.83-13.26-43.83 4-61.12 53.17-53.16 142.83-53.16 195.94-.05" opacity=".2"/><path fill="none" stroke="currentColor" stroke-linecap="round" stroke-linejoin="round" stroke-width="16" d="m48 40 160 176M120.51 72.19c38.15-2 77 11.23 105.43 39.64 17.29 17.29 18.63 42.29 4 61.12a8 8 0 0 1-9.26 2.47l-9.37-3.32M114.45 113.09a83.5 83.5 0 0 0-14.18 3.6 7.93 7.93 0 0 0-5.12 6l-5.9 29.51a8 8 0 0 1-4.87 5.8l-49.09 17.42A8 8 0 0 1 26 173c-14.6-18.83-13.26-43.83 4-61.12a135.14 135.14 0 0 1 53.53-32.8"/></svg>