<svg xmlns="http://www.w3.org/2000/svg" viewBox="0 0 256 256"><path fill="none" d="M0 0h256v256H0z"/><path d="M81.4 206.6A93.92 93.92 0 0 1 32 122.69c.69-49.55 41.13-90 90.68-90.68A93.92 93.92 0 0 1 206.6 81.4Z" opacity=".2"/><path fill="none" stroke="currentColor" stroke-linecap="round" stroke-linejoin="round" stroke-width="16" d="M134.58 206.59a31.78 31.78 0 0 1-28.58 8.82c-42.6-8.41-74.62-47.49-74-92.72.69-49.55 41.13-90 90.68-90.68 45.23-.63 84.27 31.39 92.72 74a31.78 31.78 0 0 1-8.82 28.58L183 158.21l45.69 32.64a8 8 0 0 1 1 12.16L203 229.66a8 8 0 0 1-12.16-1L158.21 183ZM206.6 81.4 81.4 206.6"/></svg>