<svg xmlns="http://www.w3.org/2000/svg" viewBox="0 0 256 256"><path fill="none" d="M0 0h256v256H0z"/><path d="M27.15 145.32a52 52 0 0 1 97.73-35.57ZM212.85 94.68a52 52 0 1 1-97.73 35.57Z" opacity=".2"/><path fill="none" stroke="currentColor" stroke-linecap="round" stroke-linejoin="round" stroke-width="16" d="M94.68 27.15a52 52 0 0 1 35.57 97.73Z"/><path fill="none" stroke="currentColor" stroke-linecap="round" stroke-linejoin="round" stroke-width="16" d="M27.15 145.32a52 52 0 0 1 97.73-35.57Z"/><path fill="none" stroke="currentColor" stroke-linecap="round" stroke-linejoin="round" stroke-width="16" d="M145.32 212.85a52 52 0 1 1-35.57-97.73Z"/><path fill="none" stroke="currentColor" stroke-linecap="round" stroke-linejoin="round" stroke-width="16" d="M212.85 94.68a52 52 0 1 1-97.73 35.57ZM164.48 164.48 224 224"/></svg>