<svg xmlns="http://www.w3.org/2000/svg" viewBox="0 0 256 256"><path fill="none" d="M0 0h256v256H0z"/><path d="M125.66 145.66a8 8 0 0 0 0-11.32L77 85a17 17 0 0 1 0-24 17 17 0 0 1 24 0l72.69 73.37a8 8 0 0 1 0 11.32L85 235a17 17 0 0 1-24 0 17 17 0 0 1 0-24Z" opacity=".2"/><path fill="none" stroke="currentColor" stroke-linecap="round" stroke-linejoin="round" stroke-width="16" d="M125.66 145.66a8 8 0 0 0 0-11.32L77 85a17 17 0 0 1 0-24h0a17 17 0 0 1 24 0l72.69 73.37a8 8 0 0 1 0 11.32L85 235a17 17 0 0 1-24 0h0a17 17 0 0 1 0-24Z"/><path fill="none" stroke="currentColor" stroke-linecap="round" stroke-linejoin="round" stroke-width="16" d="m132.28 92.58 18.62-18.24a8 8 0 0 1 11.25-.06l37.45 35.38a8 8 0 0 0 11.31 0l3.72-3.72a32 32 0 0 0 0-45.25l-45-42.35a8 8 0 0 0-11.32 0l-50.19 49.85M84 92.12l-25.66 25.54a8 8 0 0 0 0 11.31L71 141.66a8 8 0 0 0 11.31 0L108 116.4"/></svg>