<svg xmlns="http://www.w3.org/2000/svg" viewBox="0 0 256 256"><path fill="none" d="M0 0h256v256H0z"/><path d="M112 168v-24a32 32 0 0 1 32-32h24V48h-24a96 96 0 0 0-96 96v24Z" opacity=".2"/><path fill="none" stroke="currentColor" stroke-linecap="round" stroke-linejoin="round" stroke-width="16" d="M112 168v-24a32 32 0 0 1 32-32h24M168 48h-24a96 96 0 0 0-96 96v24"/><rect width="32" height="80" x="168" y="40" fill="none" stroke="currentColor" stroke-linecap="round" stroke-linejoin="round" stroke-width="16" rx="8"/><rect width="80" height="32" x="40" y="168" fill="none" stroke="currentColor" stroke-linecap="round" stroke-linejoin="round" stroke-width="16" rx="8"/><path fill="none" stroke="currentColor" stroke-linecap="round" stroke-linejoin="round" stroke-width="16" d="M112 200v32M48 200v32M232 48h-32M232 112h-32"/></svg>