<svg xmlns="http://www.w3.org/2000/svg" viewBox="0 0 256 256"><path fill="none" d="M0 0h256v256H0z"/><path d="M136 168a32 32 0 0 1 51.2-25.6l30.9-50.64a160.1 160.1 0 0 0-180.2 0l15.84 26a32 32 0 1 1 30.51 50l36.9 60.45a8 8 0 0 0 13.7 0L154 196.78A32 32 0 0 1 136 168" opacity=".2"/><path fill="none" stroke="currentColor" stroke-linecap="round" stroke-linejoin="round" stroke-width="16" d="M25.16 70.9a8 8 0 0 1 2.7-11 193.49 193.49 0 0 1 200.28 0 8 8 0 0 1 2.7 11l-96 157.26a8 8 0 0 1-13.7 0Z"/><path fill="none" stroke="currentColor" stroke-linecap="round" stroke-linejoin="round" stroke-width="16" d="M37.9 91.76a160.1 160.1 0 0 1 180.2 0M154 196.79a32 32 0 1 1 33.2-54.39M53.74 117.71a32 32 0 1 1 30.65 50"/></svg>