<svg xmlns="http://www.w3.org/2000/svg" viewBox="0 0 256 256"><path fill="none" d="M0 0h256v256H0z"/><path d="M138.54 149.46C106.62 96.25 149.18 43.05 239.63 48.37c5.37 90.45-47.88 133.01-101.09 101.09M88.47 160.47c22.8-38-7.6-76-72.21-72.21-3.8 64.61 34.21 95.01 72.21 72.21" opacity=".2"/><path fill="none" stroke="currentColor" stroke-linecap="round" stroke-linejoin="round" stroke-width="16" d="M138.54 149.46C106.62 96.25 149.18 43.05 239.63 48.37c5.37 90.45-47.88 133.01-101.09 101.09M88.47 160.47c22.8-38-7.6-76-72.21-72.21-3.8 64.61 34.21 95.01 72.21 72.21M56 128l64 64"/><path fill="none" stroke="currentColor" stroke-linecap="round" stroke-linejoin="round" stroke-width="16" d="m200 88-61.25 61.25A64 64 0 0 0 120 194.51V224"/></svg>