<svg xmlns="http://www.w3.org/2000/svg" viewBox="0 0 256 256"><path fill="none" d="M0 0h256v256H0z"/><path d="M56 64v96a32 32 0 0 0 32 32h80a32 32 0 0 0 32-32V64Z" opacity=".2"/><path fill="none" stroke="currentColor" stroke-linecap="round" stroke-linejoin="round" stroke-width="16" d="M168 16v48M88 16v48M128 192v48M32 64h192M56 64v96a32 32 0 0 0 32 32h80a32 32 0 0 0 32-32V64"/><path fill="none" stroke="currentColor" stroke-linecap="round" stroke-linejoin="round" stroke-width="16" d="m132 160 12-32h-32l12-32"/></svg>