<svg xmlns="http://www.w3.org/2000/svg" viewBox="0 0 256 256"><path fill="none" d="M0 0h256v256H0z"/><path d="m132 180-29 29a24 24 0 0 1-33.94 0L47 186.91A24 24 0 0 1 47 153l29-29ZM180 132l29-29a24 24 0 0 0 0-33.94L186.91 47A24 24 0 0 0 153 47l-29 29Z" opacity=".2"/><path fill="none" stroke="currentColor" stroke-linecap="round" stroke-linejoin="round" stroke-width="16" d="m144 144-24 24"/><path fill="#231f20" d="m144 144-24 24"/><path fill="none" stroke="currentColor" stroke-linecap="round" stroke-linejoin="round" stroke-width="16" d="m112 112-24 24"/><path fill="#231f20" d="m112 112-24 24"/><path fill="none" stroke="currentColor" stroke-linecap="round" stroke-linejoin="round" stroke-width="16" d="m64 112 80 80M58.06 197.94 24 232M132 180l-29 29a24 24 0 0 1-33.94 0L47 186.91A24 24 0 0 1 47 153l29-29M112 64l80 80M197.94 58.06 232 24M180 132l29-29a24 24 0 0 0 0-33.94L186.91 47A24 24 0 0 0 153 47l-29 29"/></svg>