<svg xmlns="http://www.w3.org/2000/svg" viewBox="0 0 256 256"><path fill="none" d="M0 0h256v256H0z"/><path d="M104 216 88 96 32 80l30.55 129.83a8 8 0 0 0 7.79 6.17ZM152 216h33.66a8 8 0 0 0 7.79-6.17L224 80l-56 16Z" opacity=".2"/><path fill="none" stroke="currentColor" stroke-linecap="round" stroke-linejoin="round" stroke-width="16" d="m32 80 30.55 129.83a8 8 0 0 0 7.79 6.17h115.32a8 8 0 0 0 7.79-6.17L224 80l-56 16-37-14.81a8 8 0 0 0-5.94 0L88 96ZM88 96l16 120M168 96l-16 120"/><path fill="none" stroke="currentColor" stroke-linecap="round" stroke-linejoin="round" stroke-width="16" d="M216 82.3a36 36 0 0 0-52.82-30.11 36 36 0 0 0-70.28 0A36 36 0 0 0 40 82.29"/></svg>