<svg xmlns="http://www.w3.org/2000/svg" viewBox="0 0 256 256"><path fill="none" d="M0 0h256v256H0z"/><path d="M229.66 98.34a8 8 0 0 0 0-11.31L169 26.34a8 8 0 0 0-11.31 0l-57.3 57.46S72.64 69.93 43 93.85a8 8 0 0 0-.65 11.91l107.9 107.89a8 8 0 0 0 12-.83c8.39-11.16 21.57-34.09 10.11-57Z" opacity=".2"/><path fill="none" stroke="currentColor" stroke-linecap="round" stroke-linejoin="round" stroke-width="16" d="M229.66 98.34a8 8 0 0 0 0-11.31L169 26.34a8 8 0 0 0-11.31 0l-57.3 57.46S72.64 69.93 43 93.85a8 8 0 0 0-.65 11.91l107.9 107.89a8 8 0 0 0 12-.83c8.39-11.16 21.57-34.09 10.11-57ZM96.29 159.71 48 208"/></svg>