<svg xmlns="http://www.w3.org/2000/svg" viewBox="0 0 256 256"><path fill="none" d="M0 0h256v256H0z"/><path d="M216 72H32v120a8 8 0 0 0 8 8h176a8 8 0 0 0 8-8V80a8 8 0 0 0-8-8m-56 96a32 32 0 1 1 32-32 32 32 0 0 1-32 32" opacity=".2"/><path fill="none" stroke="currentColor" stroke-linecap="round" stroke-linejoin="round" stroke-width="16" d="M32 72h184a8 8 0 0 1 8 8v112a8 8 0 0 1-8 8H40a8 8 0 0 1-8-8zM32 72l160-48"/><circle cx="160" cy="136" r="32" fill="none" stroke="currentColor" stroke-linecap="round" stroke-linejoin="round" stroke-width="16"/><path fill="none" stroke="currentColor" stroke-linecap="round" stroke-linejoin="round" stroke-width="16" d="M64 104h32M64 136h32M64 168h32"/></svg>