<svg xmlns="http://www.w3.org/2000/svg" viewBox="0 0 256 256"><path fill="none" d="M0 0h256v256H0z"/><circle cx="128" cy="128" r="12"/><path d="M92 128a36 36 0 0 1 17.77-31L83.82 52a8 8 0 0 0-11.55-2.54A95.94 95.94 0 0 0 32 119.14a8.1 8.1 0 0 0 8 8.86ZM110 159.18a36 36 0 0 0 36 0l25.83 44.73a8 8 0 0 1-3.56 11.26 96.24 96.24 0 0 1-80.54 0 8 8 0 0 1-3.56-11.26ZM164 128c0-.62 0-1.23-.05-1.85A36 36 0 0 0 146.23 97l26-44.94a8 8 0 0 1 11.55-2.54A95.94 95.94 0 0 1 224 119.14a8.1 8.1 0 0 1-8 8.86Z" opacity=".2"/><path fill="none" stroke="currentColor" stroke-linecap="round" stroke-linejoin="round" stroke-width="16" d="M109.77 97 83.82 52a8 8 0 0 0-11.55-2.54A95.94 95.94 0 0 0 32 119.14a8.1 8.1 0 0 0 8 8.86h52M146.23 97l26-44.94a8 8 0 0 1 11.55-2.54A95.94 95.94 0 0 1 224 119.14a8.1 8.1 0 0 1-8 8.86h-52M146 159.18l25.83 44.73a8 8 0 0 1-3.56 11.26 96.24 96.24 0 0 1-80.54 0 8 8 0 0 1-3.56-11.26L110 159.18"/></svg>