<svg xmlns="http://www.w3.org/2000/svg" viewBox="0 0 256 256"><path fill="none" d="M0 0h256v256H0z"/><path d="M152 200c-13.25 0-24-11.14-24-24.89s10.75-24.89 24-24.89a23.3 23.3 0 0 1 8.81 1.73A40 40 0 1 1 200 200Z" opacity=".2"/><path fill="none" stroke="currentColor" stroke-linecap="round" stroke-linejoin="round" stroke-width="16" d="M152 200c-13.25 0-24-11.14-24-24.89s10.75-24.89 24-24.89a23.3 23.3 0 0 1 8.81 1.73h0A40 40 0 1 1 200 200ZM16 176v-16a96 96 0 0 1 162.93-68.83"/><path fill="none" stroke="currentColor" stroke-linecap="round" stroke-linejoin="round" stroke-width="16" d="M48 176v-16a64 64 0 0 1 101.87-51.6"/><path fill="none" stroke="currentColor" stroke-linecap="round" stroke-linejoin="round" stroke-width="16" d="M80 176v-16a32 32 0 0 1 39.42-31.13"/></svg>