<svg xmlns="http://www.w3.org/2000/svg" viewBox="0 0 256 256"><path fill="none" d="M0 0h256v256H0z"/><path d="M88 208V96H40a8 8 0 0 0-8 8v104ZM168 208v-72h48a8 8 0 0 1 8 8v64Z" opacity=".2"/><path fill="none" stroke="currentColor" stroke-linecap="round" stroke-linejoin="round" stroke-width="16" d="M32 208V104a8 8 0 0 1 8-8h48M88 208V56a8 8 0 0 1 8-8h64a8 8 0 0 1 8 8v152M224 208v-64a8 8 0 0 0-8-8h-48"/><path fill="none" stroke="currentColor" stroke-linecap="round" stroke-linejoin="round" stroke-width="16" d="m120 100 12-4v40M16 208h224"/></svg>