<svg xmlns="http://www.w3.org/2000/svg" viewBox="0 0 256 256"><path fill="none" d="M0 0h256v256H0z"/><path d="M26.18 184A16 16 0 0 0 40 208h176a16 16 0 0 0 13.84-24l-88-152a16 16 0 0 0-27.7 0Z" opacity=".2"/><path fill="none" stroke="currentColor" stroke-linecap="round" stroke-linejoin="round" stroke-width="16" d="m152 232-24-24 24-24M194.63 75.19l-8.79 32.79-32.78-8.79M78.96 140.77 70.16 108l-32.77 8.77"/><path fill="none" stroke="currentColor" stroke-linecap="round" stroke-linejoin="round" stroke-width="16" d="m70.16 108-44 76A16 16 0 0 0 40 208h48M128 208h88a16 16 0 0 0 13.84-24l-23.14-40M185.84 108l-44-76a16 16 0 0 0-27.7 0L91 72"/></svg>