<svg xmlns="http://www.w3.org/2000/svg" viewBox="0 0 256 256"><path fill="none" d="M0 0h256v256H0z"/><g opacity=".2"><path d="M64 168v48a8 8 0 0 0 8 8h64a8 8 0 0 0 8-8v-56H72a8 8 0 0 0-8 8M216 96h-72v64h72a8 8 0 0 0 8-8v-48a8 8 0 0 0-8-8M136 32H72a8 8 0 0 0-8 8v48a8 8 0 0 0 8 8h72V40a8 8 0 0 0-8-8"/></g><path fill="none" stroke="currentColor" stroke-linecap="round" stroke-linejoin="round" stroke-width="16" d="M144 40v176a8 8 0 0 1-8 8H72a8 8 0 0 1-8-8v-48a8 8 0 0 1 8-8h144a8 8 0 0 0 8-8v-48a8 8 0 0 0-8-8H72a8 8 0 0 1-8-8V40a8 8 0 0 1 8-8h64a8 8 0 0 1 8 8"/></svg>