<svg xmlns="http://www.w3.org/2000/svg" viewBox="0 0 256 256"><path fill="none" d="M0 0h256v256H0z"/><path d="M224 71.85v112.3a7.91 7.91 0 0 1-12.18 6.59l-88.19-56.15a7.8 7.8 0 0 1 0-13.18l88.19-56.15A7.91 7.91 0 0 1 224 71.85" opacity=".2"/><path d="M120 71.85v112.3a7.91 7.91 0 0 1-12.18 6.59l-88.19-56.15a7.8 7.8 0 0 1 0-13.18l88.19-56.15A7.91 7.91 0 0 1 120 71.85" opacity=".2"/><path fill="none" stroke="currentColor" stroke-linecap="round" stroke-linejoin="round" stroke-width="16" d="M224 71.85v112.3a7.91 7.91 0 0 1-12.18 6.59l-88.19-56.15a7.8 7.8 0 0 1 0-13.18l88.19-56.15A7.91 7.91 0 0 1 224 71.85"/><path fill="none" stroke="currentColor" stroke-linecap="round" stroke-linejoin="round" stroke-width="16" d="M120 71.85v112.3a7.91 7.91 0 0 1-12.18 6.59l-88.19-56.15a7.8 7.8 0 0 1 0-13.18l88.19-56.15A7.91 7.91 0 0 1 120 71.85"/></svg>