<svg xmlns="http://www.w3.org/2000/svg" viewBox="0 0 256 256"><path fill="none" d="M0 0h256v256H0z"/><path d="M200 56H56a24 24 0 0 0-24 24v112a24 24 0 0 0 24 24h144a24 24 0 0 0 24-24V80a24 24 0 0 0-24-24m-36 128H92a20 20 0 0 1 0-40h72a20 20 0 0 1 0 40" opacity=".2"/><rect width="192" height="160" x="32" y="56" fill="none" stroke="currentColor" stroke-linecap="round" stroke-linejoin="round" stroke-width="16" rx="24"/><path fill="none" stroke="currentColor" stroke-linecap="round" stroke-linejoin="round" stroke-width="16" d="M128 56V16"/><circle cx="84" cy="108" r="12"/><circle cx="172" cy="108" r="12"/><rect width="112" height="40" x="72" y="144" fill="none" stroke="currentColor" stroke-linecap="round" stroke-linejoin="round" stroke-width="16" rx="20"/><path fill="none" stroke="currentColor" stroke-linecap="round" stroke-linejoin="round" stroke-width="16" d="M148 144v40M108 144v40"/></svg>