<svg xmlns="http://www.w3.org/2000/svg" viewBox="0 0 256 256"><path fill="none" d="M0 0h256v256H0z"/><path d="M41.85 147.24a8 8 0 0 0-1.66 6.86l12.36 55.63a8 8 0 0 0 12.81 4.51L94.81 192C76.7 161.43 71 134.25 72.16 110.91ZM183.84 110.91c1.21 23.34-4.54 50.52-22.65 81.09l29.45 22.24a8 8 0 0 0 12.81-4.51l12.36-55.63a8 8 0 0 0-1.66-6.86Z" opacity=".2"/><path fill="none" stroke="currentColor" stroke-linecap="round" stroke-linejoin="round" stroke-width="16" d="M144 224h-32"/><circle cx="128" cy="100" r="12"/><path fill="none" stroke="currentColor" stroke-linecap="round" stroke-linejoin="round" stroke-width="16" d="M94.81 192c-57.29-96.68 9.06-159.47 28.28-174.32a8 8 0 0 1 9.82 0c19.22 14.85 85.57 77.64 28.28 174.32Z"/><path fill="none" stroke="currentColor" stroke-linecap="round" stroke-linejoin="round" stroke-width="16" d="m183.84 110.88 30.31 36.36a8 8 0 0 1 1.66 6.86l-12.36 55.63a8 8 0 0 1-12.81 4.51L161.19 192M72.16 110.88l-30.31 36.36a8 8 0 0 0-1.66 6.86l12.36 55.63a8 8 0 0 0 12.81 4.51L94.81 192"/></svg>