<svg xmlns="http://www.w3.org/2000/svg" viewBox="0 0 256 256"><path fill="none" d="M0 0h256v256H0z"/><path d="M184 120v61.65a8 8 0 0 1-2.34 5.65l-34.35 34.35a8 8 0 0 1-13.57-4.53L128 176ZM136 72H74.35a8 8 0 0 0-5.65 2.34l-34.35 34.35a8 8 0 0 0 4.53 13.57L80 128ZM94.56 187.82C90.69 196.31 77.65 216 40 216c0-37.65 19.69-50.69 28.18-54.56Z" opacity=".2"/><path fill="none" stroke="currentColor" stroke-linecap="round" stroke-linejoin="round" stroke-width="16" d="M191.11 112.89c24-24 25.5-52.55 24.75-65.28a8 8 0 0 0-7.47-7.47c-12.73-.75-41.26.73-65.28 24.75L80 128l48 48Z"/><path fill="none" stroke="currentColor" stroke-linecap="round" stroke-linejoin="round" stroke-width="16" d="M136 72H74.35a8 8 0 0 0-5.65 2.34l-34.35 34.35a8 8 0 0 0 4.53 13.57L80 128M184 120v61.65a8 8 0 0 1-2.34 5.65l-34.35 34.35a8 8 0 0 1-13.57-4.53L128 176M94.56 187.82C90.69 196.31 77.65 216 40 216c0-37.65 19.69-50.69 28.18-54.56"/></svg>