<svg xmlns="http://www.w3.org/2000/svg" viewBox="0 0 256 256"><path fill="none" d="M0 0h256v256H0z"/><path d="M74.34 132.94a8 8 0 0 1 0-11.32l8-8a8 8 0 0 1 4.83-1.62H104a8 8 0 0 0 8-8V87.31a8 8 0 0 1 2.34-5.65l53.23-53.23a42.42 42.42 0 0 1 60 0 42.42 42.42 0 0 1 0 60l-53.23 53.23a8 8 0 0 1-5.65 2.34H152a8 8 0 0 0-8 8v16.83a8 8 0 0 1-1.62 4.83l-8 8a8 8 0 0 1-11.32 0Z" opacity=".2"/><path fill="none" stroke="currentColor" stroke-linecap="round" stroke-linejoin="round" stroke-width="16" d="m200 56-56 56M74.34 132.94a8 8 0 0 1 0-11.32l8-8a8 8 0 0 1 4.83-1.62H104a8 8 0 0 0 8-8V87.31a8 8 0 0 1 2.34-5.65l53.23-53.23a42.42 42.42 0 0 1 60 0h0a42.42 42.42 0 0 1 0 60l-53.23 53.23a8 8 0 0 1-5.65 2.34H152a8 8 0 0 0-8 8v16.83a8 8 0 0 1-1.62 4.83l-8 8a8 8 0 0 1-11.32 0ZM98.7 157.3 16 240"/></svg>