<svg xmlns="http://www.w3.org/2000/svg" viewBox="0 0 256 256"><path fill="none" d="M0 0h256v256H0z"/><path d="M216 48H40a8 8 0 0 0-8 8v136a16 16 0 0 1 16 16h168a8 8 0 0 0 8-8V56a8 8 0 0 0-8-8" opacity=".2"/><path fill="none" stroke="currentColor" stroke-linecap="round" stroke-linejoin="round" stroke-width="16" d="M32 96V56a8 8 0 0 1 8-8h176a8 8 0 0 1 8 8v144a8 8 0 0 1-8 8h-72M32 192a16 16 0 0 1 16 16M32 160a48 48 0 0 1 48 48"/><path fill="none" stroke="currentColor" stroke-linecap="round" stroke-linejoin="round" stroke-width="16" d="M32 128a80 80 0 0 1 80 80"/></svg>