<svg xmlns="http://www.w3.org/2000/svg" viewBox="0 0 256 256"><path fill="none" d="M0 0h256v256H0z"/><path d="M40 40a24 24 0 0 1 24 24v128a24 24 0 0 0 48 0c0-10-8-16-8-16h96V64a24 24 0 0 0-24-24Z" opacity=".2"/><path fill="none" stroke="currentColor" stroke-linecap="round" stroke-linejoin="round" stroke-width="16" d="M200 176V64a24 24 0 0 0-24-24H40M104 104h64M104 136h64"/><path fill="none" stroke="currentColor" stroke-linecap="round" stroke-linejoin="round" stroke-width="16" d="M24 80s-8-6-8-16a24 24 0 0 1 48 0v128a24 24 0 0 0 48 0c0-10-8-16-8-16h112s8 6 8 16a24 24 0 0 1-24 24H88"/></svg>