<svg xmlns="http://www.w3.org/2000/svg" viewBox="0 0 256 256"><path fill="none" d="M0 0h256v256H0z"/><path d="M104.84 76.42a8 8 0 0 0 0 7.16l31.78 64a8 8 0 0 0 7.16 4.42H208a8 8 0 0 1 8 8v32a8 8 0 0 1-8 8h-93.89a8 8 0 0 1-7.15-4.42l-58.12-116a8 8 0 0 1 0-7.16l22.16-44a8 8 0 0 1 10.73-3.57l33.89 14.31a8 8 0 0 1 3.57 10.73Z" opacity=".2"/><path fill="none" stroke="currentColor" stroke-linecap="round" stroke-linejoin="round" stroke-width="16" d="M112 232h104M104.84 76.42a8 8 0 0 0 0 7.16l31.78 64a8 8 0 0 0 7.16 4.42H208a8 8 0 0 1 8 8v32a8 8 0 0 1-8 8h-93.89a8 8 0 0 1-7.15-4.42l-58.12-116a8 8 0 0 1 0-7.16l22.16-44a8 8 0 0 1 10.73-3.57l33.89 14.31a8 8 0 0 1 3.57 10.73Z"/></svg>