<svg xmlns="http://www.w3.org/2000/svg" viewBox="0 0 256 256"><path fill="none" d="M0 0h256v256H0z"/><path d="m52.69 168 37.65 37.66a8 8 0 0 0 11.32 0l120-120a8 8 0 0 0 0-11.32L184 36.69Z" opacity=".2"/><path fill="none" stroke="currentColor" stroke-linecap="round" stroke-linejoin="round" stroke-width="16" d="M248 144v48M184 36.69 52.69 168M8.59 164.59A2 2 0 0 0 10 168h42.69l37.65 37.66a8 8 0 0 0 11.32 0l120-120a8 8 0 0 0 0-11.32l-56-56a8 8 0 0 0-11.32 0Z"/><path fill="none" stroke="currentColor" stroke-linecap="round" stroke-linejoin="round" stroke-width="16" d="m165.66 141.66 24 24a8 8 0 0 0 5.65 2.34H248"/></svg>