<svg xmlns="http://www.w3.org/2000/svg" viewBox="0 0 256 256"><path fill="none" d="M0 0h256v256H0z"/><path d="M208 40H96a8 8 0 0 0-8 8v40h72a8 8 0 0 1 8 8v72h40a8 8 0 0 0 8-8V48a8 8 0 0 0-8-8" opacity=".2"/><rect width="128" height="128" x="40" y="88" fill="none" stroke="currentColor" stroke-linecap="round" stroke-linejoin="round" stroke-width="16" rx="8"/><path fill="none" stroke="currentColor" stroke-linecap="round" stroke-linejoin="round" stroke-width="16" d="M160 40h-16M200 40h8a8 8 0 0 1 8 8v8M216 112V96M200 168h8a8 8 0 0 0 8-8v-8M104 40h-8a8 8 0 0 0-8 8v8"/></svg>