<svg xmlns="http://www.w3.org/2000/svg" viewBox="0 0 256 256"><path fill="none" d="M0 0h256v256H0z"/><path d="M216 112V56a8 8 0 0 0-8-8H48a8 8 0 0 0-8 8v56c0 96 88 120 88 120s88-24 88-120" opacity=".2"/><path fill="none" stroke="currentColor" stroke-linecap="round" stroke-linejoin="round" stroke-width="16" d="M216 112V56a8 8 0 0 0-8-8H48a8 8 0 0 0-8 8v56c0 96 88 120 88 120s88-24 88-120"/><path fill="none" stroke="currentColor" stroke-linecap="round" stroke-linejoin="round" stroke-width="16" d="m88 136 24 24 56-56"/></svg>