<svg xmlns="http://www.w3.org/2000/svg" viewBox="0 0 256 256"><path fill="none" d="M0 0h256v256H0z"/><path d="M200 48h-24v56a8 8 0 0 1-13.12 6.15L128 80l-34.88 30.13A8 8 0 0 1 80 104V48H56a8 8 0 0 0-8 8v152a8 8 0 0 0 8 8h144a8 8 0 0 0 8-8V56a8 8 0 0 0-8-8" opacity=".2"/><path d="M96 32h64l-32 48z" opacity=".2"/><path fill="none" stroke="currentColor" stroke-linecap="round" stroke-linejoin="round" stroke-width="16" d="m128 80 32-48 16 16v56a8 8 0 0 1-13.12 6.15ZM93.12 110.13A8 8 0 0 1 80 104V48l16-16 32 48ZM128 80v136"/><path fill="none" stroke="currentColor" stroke-linecap="round" stroke-linejoin="round" stroke-width="16" d="M176 48h24a8 8 0 0 1 8 8v152a8 8 0 0 1-8 8H56a8 8 0 0 1-8-8V56a8 8 0 0 1 8-8h24M96 32h64"/></svg>