<svg xmlns="http://www.w3.org/2000/svg" viewBox="0 0 256 256"><path fill="none" d="M0 0h256v256H0z"/><path d="m164 129.66 35.78 21.53a5.46 5.46 0 0 0 8.19-5.86l-9.73-40.19 31.84-26.88a5.38 5.38 0 0 0-3.08-9.48l-41.79-3.31-16.1-38.14a5.51 5.51 0 0 0-10.12 0l-16.1 38.14-41.79 3.31a5.38 5.38 0 0 0-3.13 9.48l31.84 26.88-9.81 40.19a5.46 5.46 0 0 0 8.19 5.86Z" opacity=".2"/><path fill="none" stroke="currentColor" stroke-linecap="round" stroke-linejoin="round" stroke-width="16" d="m164 129.66 35.78 21.53a5.46 5.46 0 0 0 8.19-5.86l-9.73-40.19 31.84-26.88a5.38 5.38 0 0 0-3.08-9.48l-41.79-3.31-16.1-38.14a5.51 5.51 0 0 0-10.12 0l-16.1 38.14-41.79 3.31a5.38 5.38 0 0 0-3.13 9.48l31.84 26.88-9.81 40.19a5.46 5.46 0 0 0 8.19 5.86ZM82.45 117.55 24 176M93.26 178.74 40 232M166.28 177.72 112 232"/></svg>