<svg xmlns="http://www.w3.org/2000/svg" viewBox="0 0 256 256"><path fill="none" d="M0 0h256v256H0z"/><path d="M32 232a8 8 0 0 1-8-8v-80a8 8 0 0 1 2.34-5.66l56-56a8 8 0 0 1 11.32 0l80 80a8 8 0 0 1 0 11.32l-56 56A8 8 0 0 1 112 232Z" opacity=".2"/><path fill="none" stroke="currentColor" stroke-linecap="round" stroke-linejoin="round" stroke-width="16" d="m192 16 48 48M216 40 88 168M32 232a8 8 0 0 1-8-8v-80a8 8 0 0 1 2.34-5.66l56-56a8 8 0 0 1 11.32 0l80 80a8 8 0 0 1 0 11.32l-56 56A8 8 0 0 1 112 232Z"/></svg>