<svg xmlns="http://www.w3.org/2000/svg" viewBox="0 0 256 256"><path fill="none" d="M0 0h256v256H0z"/><path d="M32 184h23.06a64 64 0 0 0 52.08-26.8l41.72-58.4A64 64 0 0 1 200.94 72H232v112h-31.06a64 64 0 0 1-52.08-26.8l-41.72-58.4A64 64 0 0 0 55.06 72H32Z" opacity=".2"/><path fill="none" stroke="currentColor" stroke-linecap="round" stroke-linejoin="round" stroke-width="16" d="M32 72h23.06a64 64 0 0 1 52.08 26.8l41.72 58.4a64 64 0 0 0 52.08 26.8H232M208 48l24 24-24 24"/><path fill="none" stroke="currentColor" stroke-linecap="round" stroke-linejoin="round" stroke-width="16" d="m208 160 24 24-24 24M147.66 100.47l1.2-1.67A64 64 0 0 1 200.94 72H232M32 184h23.06a64 64 0 0 0 52.08-26.8l1.2-1.67"/></svg>