<svg xmlns="http://www.w3.org/2000/svg" viewBox="0 0 256 256"><path fill="none" d="M0 0h256v256H0z"/><path d="M48 168v-40a80 80 0 0 1 80.61-80c44.11.33 79.39 36.89 79.39 81v39Z" opacity=".2"/><path fill="none" stroke="currentColor" stroke-linecap="round" stroke-linejoin="round" stroke-width="16" d="M128 16V8M200 40l8-8M56 40l-8-8M48 168v-40a80 80 0 0 1 80.61-80c44.11.33 79.39 36.89 79.39 81v39"/><path fill="none" stroke="currentColor" stroke-linecap="round" stroke-linejoin="round" stroke-width="16" d="M136 80c22.7 3.81 40 24.22 40 48"/><rect width="192" height="40" x="32" y="168" fill="none" stroke="currentColor" stroke-linecap="round" stroke-linejoin="round" stroke-width="16" rx="8"/></svg>