<svg xmlns="http://www.w3.org/2000/svg" viewBox="0 0 256 256"><path fill="none" d="M0 0h256v256H0z"/><path d="M214 146.69A48 48 0 0 1 146.69 214 88.07 88.07 0 0 1 42 109.31 48 48 0 0 1 109.31 42 88.07 88.07 0 0 1 214 146.69" opacity=".2"/><path fill="none" stroke="currentColor" stroke-linecap="round" stroke-linejoin="round" stroke-width="16" d="M96 152c0 13.25 14.33 24 32 24s32-10.75 32-24c0-32-62.22-20-62.22-48 0-13.25 12.55-24 30.22-24 13.25 0 23.63 6 28 14.66"/><path fill="none" stroke="currentColor" stroke-linecap="round" stroke-linejoin="round" stroke-width="16" d="M214 146.69A48 48 0 0 1 146.69 214 88.07 88.07 0 0 1 42 109.31 48 48 0 0 1 109.31 42 88.07 88.07 0 0 1 214 146.69"/></svg>