<svg xmlns="http://www.w3.org/2000/svg" viewBox="0 0 256 256"><path fill="none" d="M0 0h256v256H0z"/><path d="M128 152v-24h72a24 24 0 0 1 24 24 24 24 0 0 1-24 24h-48a24 24 0 0 1-24-24M128 176h24a24 24 0 0 1 24 24 24 24 0 0 1-24 24 24 24 0 0 1-24-24ZM128 104v24H56a24 24 0 0 1-24-24 24 24 0 0 1 24-24h48a24 24 0 0 1 24 24M128 80h-24a24 24 0 0 1-24-24 24 24 0 0 1 24-24 24 24 0 0 1 24 24Z" opacity=".2"/><path fill="none" stroke="currentColor" stroke-linecap="round" stroke-linejoin="round" stroke-width="16" d="M128 104v24h0-72a24 24 0 0 1-24-24h0a24 24 0 0 1 24-24h48a24 24 0 0 1 24 24M128 80h-24a24 24 0 0 1-24-24h0a24 24 0 0 1 24-24h0a24 24 0 0 1 24 24ZM152 128h-24 0V56a24 24 0 0 1 24-24h0a24 24 0 0 1 24 24v48a24 24 0 0 1-24 24M176 128v-24a24 24 0 0 1 24-24h0a24 24 0 0 1 24 24h0a24 24 0 0 1-24 24ZM128 152v-24h72a24 24 0 0 1 24 24h0a24 24 0 0 1-24 24h-48a24 24 0 0 1-24-24M128 176h24a24 24 0 0 1 24 24h0a24 24 0 0 1-24 24h0a24 24 0 0 1-24-24ZM104 128h24v72a24 24 0 0 1-24 24h0a24 24 0 0 1-24-24v-48a24 24 0 0 1 24-24M80 128v24a24 24 0 0 1-24 24h0a24 24 0 0 1-24-24h0a24 24 0 0 1 24-24Z"/></svg>