<svg xmlns="http://www.w3.org/2000/svg" viewBox="0 0 256 256"><path fill="none" d="M0 0h256v256H0z"/><path d="M248 167.06a32 32 0 0 0-21.88-30.35l-60.73-20.25a32 32 0 0 1-19.12-17.36L123 44.75a8 8 0 0 0-10-4.27L37.27 68A8 8 0 0 0 32 75.54V168h216Z" opacity=".2"/><path fill="none" stroke="currentColor" stroke-linecap="round" stroke-linejoin="round" stroke-width="16" d="M32 192a8 8 0 0 0 8 8h200a8 8 0 0 0 8-8v-24.94a32 32 0 0 0-21.88-30.35l-60.73-20.25a32 32 0 0 1-19.12-17.36L123 44.75a8 8 0 0 0-10-4.27L37.27 68A8 8 0 0 0 32 75.54ZM32 168h216M120 104l24.55-8.93M104 80l29.51-10.73M136 128l30.61-11.13"/></svg>