<svg xmlns="http://www.w3.org/2000/svg" viewBox="0 0 256 256"><path fill="none" d="M0 0h256v256H0z"/><path d="M32.15 133.42c-.1-1.8-.15-3.6-.15-5.42a95.6 95.6 0 0 1 21.23-60.22l11.94 40.31ZM103.87 220.94a96.12 96.12 0 0 1-56.95-41.52h42.25ZM152.13 220.94a96.12 96.12 0 0 0 57-41.52h-42.3ZM223.85 133.42c.1-1.8.15-3.6.15-5.42a95.6 95.6 0 0 0-21.23-60.22l-11.94 40.31ZM91.75 39.08a96.34 96.34 0 0 1 72.5 0L128 64ZM128 88l-40 27.5 15.28 44.5h49.44L168 115.5z" opacity=".2"/><circle cx="128" cy="128" r="96" fill="none" stroke="currentColor" stroke-linecap="round" stroke-linejoin="round" stroke-width="16"/><path fill="none" stroke="currentColor" stroke-linecap="round" stroke-linejoin="round" stroke-width="16" d="m128 88-40 27.5 15.28 44.5h49.44L168 115.5zM128 64v24M65.17 108.09 88 115.5M89.17 179.42 103.28 160M166.83 179.42 152.72 160M190.83 108.09 168 115.5M164.25 39.08 128 64 91.75 39.08M223.85 133.42l-33.03-25.34 11.95-40.3M53.23 67.78l11.94 40.3-33.02 25.34M152.13 220.94l14.7-41.52h42.25M46.92 179.42h42.25l14.7 41.52"/></svg>