<svg xmlns="http://www.w3.org/2000/svg" viewBox="0 0 256 256"><path fill="none" d="M0 0h256v256H0z"/><path d="M200 145.37V112a48 48 0 0 0-37.71 77.71l33-33a16 16 0 0 0 4.71-11.34M96 32a8 8 0 0 1 8-8h88a8 8 0 0 1 8 8v24H96Z" opacity=".2"/><path fill="none" stroke="currentColor" stroke-linecap="round" stroke-linejoin="round" stroke-width="16" d="M200 32v113.37a16 16 0 0 1-4.69 11.32l-68.4 68.4a50.92 50.92 0 0 1-72 0h0a50.92 50.92 0 0 1 0-72L96 112V32a8 8 0 0 1 8-8h88a8 8 0 0 1 8 8M200 56H96"/><path fill="none" stroke="currentColor" stroke-linecap="round" stroke-linejoin="round" stroke-width="16" d="M200 112a48 48 0 0 0-37.71 77.71"/></svg>