<svg xmlns="http://www.w3.org/2000/svg" viewBox="0 0 256 256"><path fill="none" d="M0 0h256v256H0z"/><path d="M192 32H64a8 8 0 0 0-8 8v176a8 8 0 0 0 8 8h128a8 8 0 0 0 8-8V40a8 8 0 0 0-8-8m-64 152a32 32 0 1 1 32-32 32 32 0 0 1-32 32" opacity=".2"/><rect width="192" height="144" x="32" y="56" fill="none" stroke="currentColor" stroke-linecap="round" stroke-linejoin="round" stroke-width="16" rx="8" transform="rotate(90 128 128)"/><circle cx="128" cy="76" r="12"/><circle cx="128" cy="152" r="32" fill="none" stroke="currentColor" stroke-linecap="round" stroke-linejoin="round" stroke-width="16"/></svg>