<svg xmlns="http://www.w3.org/2000/svg" viewBox="0 0 256 256"><path fill="none" d="M0 0h256v256H0z"/><path d="M160 72a263.14 263.14 0 0 1 40 139.47V224a8 8 0 0 1-8 8H88a8 8 0 0 1-8-8v-56.62a32 32 0 0 1 12-25l16-12.78a32 32 0 0 0 12-25V72Z" opacity=".2"/><path fill="none" stroke="currentColor" stroke-linecap="round" stroke-linejoin="round" stroke-width="16" d="M72 72h128a48 48 0 0 0-48-48H80a8 8 0 0 0-8 8v48a32 32 0 0 1-32 32"/><path fill="none" stroke="currentColor" stroke-linecap="round" stroke-linejoin="round" stroke-width="16" d="M160 72a263.14 263.14 0 0 1 40 139.47V224a8 8 0 0 1-8 8H88a8 8 0 0 1-8-8v-56.62a32 32 0 0 1 12-25l16-12.78a32 32 0 0 0 12-25V72"/></svg>