<svg xmlns="http://www.w3.org/2000/svg" viewBox="0 0 256 256"><path fill="none" d="M0 0h256v256H0z"/><path d="M128 32a96 96 0 1 0 96 96 96 96 0 0 0-96-96m45.81 97.61-61.09 49.82a20 20 0 0 1-28.15-28.15l49.82-61.09a28 28 0 1 1 39.42 39.42" opacity=".2"/><circle cx="128" cy="128" r="96" fill="none" stroke="currentColor" stroke-linecap="round" stroke-linejoin="round" stroke-width="16"/><circle cx="156" cy="108" r="28" fill="none" stroke="currentColor" stroke-linecap="round" stroke-linejoin="round" stroke-width="16"/><circle cx="100" cy="164" r="20" fill="none" stroke="currentColor" stroke-linecap="round" stroke-linejoin="round" stroke-width="16"/><path fill="none" stroke="currentColor" stroke-linecap="round" stroke-linejoin="round" stroke-width="16" d="m84.57 151.28 49.82-61.09M112.72 179.43l61.09-49.82M85.86 149.86l-49.75-49.75"/></svg>