<svg xmlns="http://www.w3.org/2000/svg" viewBox="0 0 256 256"><path fill="none" d="M0 0h256v256H0z"/><path d="M222.4 145.55a128 128 0 0 0-188.8 0A96.6 96.6 0 0 0 37.46 160h53a8 8 0 0 1 7.49 5.2l21.86 58.45a96.7 96.7 0 0 0 16.35.01l21.9-58.47a8 8 0 0 1 7.5-5.19h53a96.6 96.6 0 0 0 3.84-14.45" opacity=".2"/><circle cx="128" cy="140" r="12"/><circle cx="128" cy="128" r="96" fill="none" stroke="currentColor" stroke-linecap="round" stroke-linejoin="round" stroke-width="16"/><path fill="none" stroke="currentColor" stroke-linecap="round" stroke-linejoin="round" stroke-width="16" d="M33.6 145.55a128 128 0 0 1 188.8 0M119.8 223.65 97.94 165.2a8 8 0 0 0-7.49-5.2h-53M136.15 223.66l21.9-58.47a8 8 0 0 1 7.5-5.19h53"/></svg>