<svg xmlns="http://www.w3.org/2000/svg" viewBox="0 0 256 256"><path fill="none" d="M0 0h256v256H0z"/><path d="M136 216v-32a48 48 0 0 1 48-48h32c-8 24-56 72-80 80" opacity=".2"/><path fill="none" stroke="currentColor" stroke-linecap="round" stroke-linejoin="round" stroke-width="16" d="M136 216H88a48 48 0 0 1-48-48V88a48 48 0 0 1 48-48h80a48 48 0 0 1 48 48v48c-8 24-56 72-80 80"/><path fill="none" stroke="currentColor" stroke-linecap="round" stroke-linejoin="round" stroke-width="16" d="M136 216v-32a48 48 0 0 1 48-48h32"/></svg>