<svg xmlns="http://www.w3.org/2000/svg" viewBox="0 0 256 256"><path fill="none" d="M0 0h256v256H0z"/><path d="M54 40h148a8 8 0 0 1 7.69 5.8L224 96H32l14.34-50.2A8 8 0 0 1 54 40M96 96v16a32 32 0 0 1-64 0V96ZM224 96v16a32 32 0 0 1-64 0V96Z" opacity=".2"/><path fill="none" stroke="currentColor" stroke-linecap="round" stroke-linejoin="round" stroke-width="16" d="M48 139.59V216h160v-76.41M54 40h148a8 8 0 0 1 7.69 5.8L224 96H32l14.34-50.2A8 8 0 0 1 54 40"/><path fill="none" stroke="currentColor" stroke-linecap="round" stroke-linejoin="round" stroke-width="16" d="M96 96v16a32 32 0 0 1-64 0V96M160 96v16a32 32 0 0 1-64 0V96M224 96v16a32 32 0 0 1-64 0V96"/></svg>