<svg xmlns="http://www.w3.org/2000/svg" viewBox="0 0 256 256"><path fill="none" d="M0 0h256v256H0z"/><path d="M152 32h-48a64 64 0 0 0-64 64v112h176V96a64 64 0 0 0-64-64m24 136a16 16 0 0 1-16 16H96a16 16 0 0 1-16-16V96a16 16 0 0 1 16-16h64a16 16 0 0 1 16 16Z" opacity=".2"/><path fill="none" stroke="currentColor" stroke-linecap="round" stroke-linejoin="round" stroke-width="16" d="M40 208V96a64 64 0 0 1 64-64h48a64 64 0 0 1 64 64v112"/><rect width="96" height="104" x="80" y="80" fill="none" stroke="currentColor" stroke-linecap="round" stroke-linejoin="round" stroke-width="16" rx="16"/><path fill="none" stroke="currentColor" stroke-linecap="round" stroke-linejoin="round" stroke-width="16" d="M80 152h96M96 200l8-16M152 184l8 16M144 152v32M112 152v32"/></svg>