<svg xmlns="http://www.w3.org/2000/svg" viewBox="0 0 256 256"><path fill="none" d="M0 0h256v256H0z"/><path d="M110.84 186.25a35.71 35.71 0 0 1-41.34 29.2 36 36 0 0 1-28.95-41.71l25-143.13a8 8 0 0 1 9.19-6.49l54.67 9.73a8 8 0 0 1 6.44 9.26Z" opacity=".2"/><circle cx="76" cy="180" r="12"/><path fill="none" stroke="currentColor" stroke-linecap="round" stroke-linejoin="round" stroke-width="16" d="M110.84 186.25a35.71 35.71 0 0 1-41.34 29.2h0a36 36 0 0 1-28.95-41.71l25-143.13a8 8 0 0 1 9.19-6.49l54.67 9.73a8 8 0 0 1 6.44 9.26Z"/><path fill="none" stroke="currentColor" stroke-linecap="round" stroke-linejoin="round" stroke-width="16" d="M232 156.19V208a8 8 0 0 1-8 8H76"/><path fill="none" stroke="currentColor" stroke-linecap="round" stroke-linejoin="round" stroke-width="16" d="m121.42 125.76 80.79-29.28a8 8 0 0 1 10.22 4.75l19.09 52.21a7.93 7.93 0 0 1-4.77 10.17L88.16 213.84A35.1 35.1 0 0 1 76 216"/></svg>