<svg xmlns="http://www.w3.org/2000/svg" viewBox="0 0 256 256"><path fill="none" d="M0 0h256v256H0z"/><path d="m141.66 189.64-75.3-75.3a8 8 0 0 0-11.32 0L42.34 127a8 8 0 0 0 0 11.32L68 164l-33.66 33.66a8 8 0 0 0 0 11.31L47 221.66a8 8 0 0 0 11.32 0L92 188l25.64 25.65a8 8 0 0 0 11.32 0l12.7-12.7a8 8 0 0 0 0-11.31" opacity=".2"/><path fill="none" stroke="currentColor" stroke-linecap="round" stroke-linejoin="round" stroke-width="16" d="m68 164-33.66 33.66a8 8 0 0 0 0 11.31L47 221.66a8 8 0 0 0 11.32 0L92 188"/><rect width="33.96" height="122.49" x="75.02" y="102.75" fill="none" stroke="currentColor" stroke-linecap="round" stroke-linejoin="round" stroke-width="16" rx="8.01" transform="rotate(-45 92.002 164.002)"/><path fill="none" stroke="currentColor" stroke-linecap="round" stroke-linejoin="round" stroke-width="16" d="m160 96-56 56M82.44 130.43 152 40h64v64l-90.43 69.56"/></svg>