<svg xmlns="http://www.w3.org/2000/svg" viewBox="0 0 256 256"><path fill="none" d="M0 0h256v256H0z"/><path d="M200 64a16 16 0 0 1 16 16v32h-32V80a16 16 0 0 1 16-16M56 64a16 16 0 0 1 16 16v32H40V80a16 16 0 0 1 16-16M72 216h40v-40a16 16 0 0 1 16-16 16 16 0 0 1 16 16v40h40v-80l-56-32-56 32Z" opacity=".2"/><path fill="none" stroke="currentColor" stroke-linecap="round" stroke-linejoin="round" stroke-width="16" d="M200 64a16 16 0 0 1 16 16v136h0-32 0V80a16 16 0 0 1 16-16M184 112h32M56 64a16 16 0 0 1 16 16v136h0-32 0V80a16 16 0 0 1 16-16M40 112h32M56 64V32M200 64V32M184 136l-56-32-56 32M72 216h40v-40a16 16 0 0 1 16-16h0a16 16 0 0 1 16 16v40h40M128 104V72"/></svg>