<svg xmlns="http://www.w3.org/2000/svg" viewBox="0 0 256 256"><path fill="none" d="M0 0h256v256H0z"/><circle cx="212" cy="84" r="20" fill="none" stroke="currentColor" stroke-linecap="round" stroke-linejoin="round" stroke-width="16"/><path d="M152 138V48a32 32 0 0 0-64 0v90a56 56 0 1 0 64 0m-32 70a24 24 0 1 1 24-24 24 24 0 0 1-24 24" opacity=".2"/><path fill="none" stroke="currentColor" stroke-linecap="round" stroke-linejoin="round" stroke-width="16" d="M120 160V88"/><circle cx="120" cy="184" r="24" fill="none" stroke="currentColor" stroke-linecap="round" stroke-linejoin="round" stroke-width="16"/><path fill="none" stroke="currentColor" stroke-linecap="round" stroke-linejoin="round" stroke-width="16" d="M88 48a32 32 0 0 1 64 0v90a56 56 0 1 1-64 0Z"/></svg>