<svg xmlns="http://www.w3.org/2000/svg" viewBox="0 0 256 256"><path fill="none" d="M0 0h256v256H0z"/><path d="m8.01 96.001 40-40 40.001 40-40 40.001z" opacity=".2"/><path d="m88.008 96.003 40.001-40.001 40.001 40-40.001 40.002z" opacity=".2"/><path d="m88.007 176.001 40-40 40.002 40-40.001 40.001zM168.007 96.004l40-40.001 40.002 40.001-40.001 40.001z" opacity=".2"/><path fill="none" stroke="currentColor" stroke-linecap="round" stroke-linejoin="round" stroke-width="16" d="m8.01 96.001 40-40 40.001 40-40 40.001z"/><path fill="none" stroke="currentColor" stroke-linecap="round" stroke-linejoin="round" stroke-width="16" d="m88.008 96.003 40.001-40.001 40.001 40-40.001 40.002z"/><path fill="none" stroke="currentColor" stroke-linecap="round" stroke-linejoin="round" stroke-width="16" d="m88.007 176.001 40-40 40.002 40-40.001 40.001zM168.007 96.004l40-40.001 40.002 40.001-40.001 40.001z"/></svg>