<svg xmlns="http://www.w3.org/2000/svg" viewBox="0 0 256 256"><path fill="none" d="M0 0h256v256H0z"/><path d="M92 224c-28.72 0-52-43-52-96s23.28-96 52-96h72c-28.72 0-52 43-52 96s23.28 96 52 96Z" opacity=".2"/><ellipse cx="168" cy="128" opacity=".2" rx="16" ry="40"/><ellipse cx="168" cy="128" fill="none" stroke="currentColor" stroke-linecap="round" stroke-linejoin="round" stroke-width="16" rx="16" ry="40"/><ellipse cx="164" cy="128" fill="none" stroke="currentColor" stroke-linecap="round" stroke-linejoin="round" stroke-width="16" rx="52" ry="96"/><path fill="none" stroke="currentColor" stroke-linecap="round" stroke-linejoin="round" stroke-width="16" d="M232 224H92c-28.72 0-52-43-52-96s23.28-96 52-96h72"/><path fill="none" stroke="currentColor" stroke-linecap="round" stroke-linejoin="round" stroke-width="16" d="M40.38 116.3 80 88l32.77 23.41M46.85 175.68 80 152l40.65 29.03"/></svg>