<svg xmlns="http://www.w3.org/2000/svg" viewBox="0 0 256 256"><path fill="none" d="M0 0h256v256H0z"/><path d="M163.58 192.51a88.2 88.2 0 0 1-71.14 0l-4.34 30.36A8 8 0 0 0 96 232h64a8 8 0 0 0 7.92-9.13ZM64 112V40a8 8 0 0 1 8-8h112a8 8 0 0 1 8 8v72Z" opacity=".2"/><path fill="none" stroke="currentColor" stroke-linecap="round" stroke-linejoin="round" stroke-width="16" d="M64 112V40a8 8 0 0 1 8-8h112a8 8 0 0 1 8 8v72M96 64h16M216 112a88 88 0 0 1-176 0Z"/><path fill="none" stroke="currentColor" stroke-linecap="round" stroke-linejoin="round" stroke-width="16" d="m92.42 192.51-4.34 30.36A8 8 0 0 0 96 232h64a8 8 0 0 0 7.92-9.13l-4.34-30.36"/></svg>