<svg xmlns="http://www.w3.org/2000/svg" viewBox="0 0 256 256"><path fill="none" d="M0 0h256v256H0z"/><path d="M40 79.76C39.93 151.18 63.48 208 84 222.54a8 8 0 0 0 12.52-6C98 196.31 104 160 128 160s30 36.31 31.51 56.53a8 8 0 0 0 12.52 6c20.49-14.55 44-71.36 44-142.78A47.94 47.94 0 0 0 168 32H88a47.94 47.94 0 0 0-48 47.76" opacity=".2"/><path fill="none" stroke="currentColor" stroke-linecap="round" stroke-linejoin="round" stroke-width="16" d="m88 64 80 32M168 64 88 96M40 79.76C39.93 151.18 63.48 208 84 222.54a8 8 0 0 0 12.52-6C98 196.31 104 160 128 160s30 36.31 31.51 56.53a8 8 0 0 0 12.52 6c20.49-14.55 44-71.36 44-142.78A47.94 47.94 0 0 0 168 32H88a47.94 47.94 0 0 0-48 47.76"/></svg>