<svg xmlns="http://www.w3.org/2000/svg" viewBox="0 0 256 256"><path fill="none" d="M0 0h256v256H0z"/><path d="M184 32H72a8 8 0 0 0-8 8v176a8 8 0 0 0 8 8h112a8 8 0 0 0 8-8V40a8 8 0 0 0-8-8m-56 160a24 24 0 1 1 24-24 24 24 0 0 1-24 24m0-80a24 24 0 1 1 24-24 24 24 0 0 1-24 24" opacity=".2"/><rect width="128" height="192" x="64" y="32" fill="none" stroke="currentColor" stroke-linecap="round" stroke-linejoin="round" stroke-width="16" rx="8"/><circle cx="128" cy="88" r="24" fill="none" stroke="currentColor" stroke-linecap="round" stroke-linejoin="round" stroke-width="16"/><circle cx="128" cy="168" r="24" fill="none" stroke="currentColor" stroke-linecap="round" stroke-linejoin="round" stroke-width="16"/><path fill="none" stroke="currentColor" stroke-linecap="round" stroke-linejoin="round" stroke-width="16" d="M192 72h24M192 152h24M40 72h24M40 152h24"/></svg>