<svg xmlns="http://www.w3.org/2000/svg" viewBox="0 0 256 256"><path fill="none" d="M0 0h256v256H0z"/><path d="M144 184h80l-40-80zM96 127.56A95.78 95.78 0 0 1 64 56h64a95.78 95.78 0 0 1-32 71.56" opacity=".2"/><path fill="none" stroke="currentColor" stroke-linecap="round" stroke-linejoin="round" stroke-width="16" d="m239.97 216-56-112-56 112M143.97 184h80M95.97 32v24M31.97 56h128M128 56a96 96 0 0 1-96 96"/><path fill="none" stroke="currentColor" stroke-linecap="round" stroke-linejoin="round" stroke-width="16" d="M69.44 88A96 96 0 0 0 160 152"/></svg>