<svg xmlns="http://www.w3.org/2000/svg" viewBox="0 0 256 256"><path fill="none" d="M0 0h256v256H0z"/><path d="M76.68 160a8 8 0 0 1 5.66 2.34l19.31 19.32a8 8 0 0 0 5.66 2.34h41.37a8 8 0 0 0 5.66-2.34l19.31-19.32a8 8 0 0 1 5.66-2.34H216V48a8 8 0 0 0-8-8H48a8 8 0 0 0-8 8v112Z" opacity=".2"/><rect width="176" height="176" x="40" y="40" fill="none" stroke="currentColor" stroke-linecap="round" stroke-linejoin="round" stroke-width="16" rx="8"/><path fill="none" stroke="currentColor" stroke-linecap="round" stroke-linejoin="round" stroke-width="16" d="M128 72v80M40 160h36.69a8 8 0 0 1 5.65 2.34l19.32 19.32a8 8 0 0 0 5.65 2.34h41.38a8 8 0 0 0 5.65-2.34l19.32-19.32a8 8 0 0 1 5.65-2.34H216M96 120l32 32 32-32"/></svg>