<svg xmlns="http://www.w3.org/2000/svg" viewBox="0 0 256 256"><path fill="none" d="M0 0h256v256H0z"/><path d="M188.92 40a59.3 59.3 0 0 0-43.08 18.75A65.47 65.47 0 0 0 128 104l104-45.25A59.28 59.28 0 0 0 188.92 40" opacity=".2"/><path d="M176.56 98.18a64.2 64.2 0 0 0-48.56 6.34L221.81 176a63 63 0 0 0-6.39-48.22 63.73 63.73 0 0 0-38.86-29.6M110.16 58.75a58.87 58.87 0 0 0-86.16 0L128 104a65.47 65.47 0 0 0-17.84-45.25" opacity=".2"/><path d="M79.44 98.18a63.73 63.73 0 0 0-38.86 29.6A63 63 0 0 0 34.19 176L128 104.52a64.2 64.2 0 0 0-48.56-6.34" opacity=".2"/><path fill="none" stroke="currentColor" stroke-linecap="round" stroke-linejoin="round" stroke-width="16" d="M128 104a65.47 65.47 0 0 1 17.84-45.25 58.87 58.87 0 0 1 86.16 0Z"/><path fill="none" stroke="currentColor" stroke-linecap="round" stroke-linejoin="round" stroke-width="16" d="M128 104.52a64.26 64.26 0 0 1 87.42 23.26 63 63 0 0 1 6.39 48.22ZM128 104a65.47 65.47 0 0 0-17.84-45.25 58.87 58.87 0 0 0-86.16 0Z"/><path fill="none" stroke="currentColor" stroke-linecap="round" stroke-linejoin="round" stroke-width="16" d="M128 104.52a64.26 64.26 0 0 0-87.42 23.26A63 63 0 0 0 34.19 176ZM128 104.52V224"/></svg>