<svg xmlns="http://www.w3.org/2000/svg" viewBox="0 0 256 256"><path fill="none" d="M0 0h256v256H0z"/><path d="M184 120v24H24v40a8 8 0 0 0 8 8h24a24 24 0 0 1 48 0h64a24 24 0 0 1 48 0h24a8 8 0 0 0 8-8v-64Z" opacity=".2"/><path fill="none" stroke="currentColor" stroke-linecap="round" stroke-linejoin="round" stroke-width="16" d="M184 80h42.58a8 8 0 0 1 7.42 5l14 35M24 144h160"/><circle cx="192" cy="192" r="24" fill="none" stroke="currentColor" stroke-linecap="round" stroke-linejoin="round" stroke-width="16"/><circle cx="80" cy="192" r="24" fill="none" stroke="currentColor" stroke-linecap="round" stroke-linejoin="round" stroke-width="16"/><path fill="none" stroke="currentColor" stroke-linecap="round" stroke-linejoin="round" stroke-width="16" d="M168 192h-64M184 120h64v64a8 8 0 0 1-8 8h-24M56 192H32a8 8 0 0 1-8-8V72a8 8 0 0 1 8-8h152v105.37"/></svg>