<svg xmlns="http://www.w3.org/2000/svg" viewBox="0 0 256 256"><path fill="none" d="M0 0h256v256H0z"/><path d="M88 136c0-72 40-104 40-104a104.21 104.21 0 0 0-104 95.29 8 8 0 0 0 8 8.71ZM128 32s40 32 40 104h56a8 8 0 0 0 8-8.71A104.21 104.21 0 0 0 128 32" opacity=".2"/><path fill="none" stroke="currentColor" stroke-linecap="round" stroke-linejoin="round" stroke-width="16" d="M176 200a24 24 0 0 1-48 0v-64"/><path fill="none" stroke="currentColor" stroke-linecap="round" stroke-linejoin="round" stroke-width="16" d="M32 136a8 8 0 0 1-8-8.71 104.37 104.37 0 0 1 207.94 0 8 8 0 0 1-8 8.71Z"/><path fill="none" stroke="currentColor" stroke-linecap="round" stroke-linejoin="round" stroke-width="16" d="M88 136c0-72 40-104 40-104s40 32 40 104"/></svg>