<svg xmlns="http://www.w3.org/2000/svg" viewBox="0 0 256 256"><path fill="none" d="M0 0h256v256H0z"/><path d="M32 136a8 8 0 0 1-8-8.71 104.37 104.37 0 0 1 207.94 0 8 8 0 0 1-8 8.71Z" opacity=".2"/><path fill="none" stroke="currentColor" stroke-linecap="round" stroke-linejoin="round" stroke-width="16" d="M176 200a24 24 0 0 1-48 0v-64"/><path fill="none" stroke="currentColor" stroke-linecap="round" stroke-linejoin="round" stroke-width="16" d="M32 136a8 8 0 0 1-8-8.71 104.37 104.37 0 0 1 207.94 0 8 8 0 0 1-8 8.71Z"/></svg>