<svg xmlns="http://www.w3.org/2000/svg" viewBox="0 0 256 256"><path fill="none" d="M0 0h256v256H0z"/><path d="M128 32a96 96 0 0 0-64.2 167.38A72 72 0 0 1 128 160a40 40 0 1 1 40-40 40 40 0 0 1-40 40 72 72 0 0 1 64.2 39.37A96 96 0 0 0 128 32" opacity=".2"/><circle cx="128" cy="120" r="40" fill="none" stroke="currentColor" stroke-linecap="round" stroke-linejoin="round" stroke-width="16"/><path fill="none" stroke="currentColor" stroke-linecap="round" stroke-linejoin="round" stroke-width="16" d="M63.8 199.37a72 72 0 0 1 128.4 0M200 128l24 24 24-24M8 128l24-24 24 24"/><path fill="none" stroke="currentColor" stroke-linecap="round" stroke-linejoin="round" stroke-width="16" d="M32 104v24a96 96 0 0 0 174 56M224 152v-24A96 96 0 0 0 50 72"/></svg>