<svg xmlns="http://www.w3.org/2000/svg" viewBox="0 0 256 256"><path fill="none" d="M0 0h256v256H0z"/><path d="M216 48H40a8 8 0 0 0-8 8v144a8 8 0 0 0 8 8h20.1a72 72 0 0 1 67.9-48 40 40 0 1 1 40-40 40 40 0 0 1-40 40 72 72 0 0 1 67.9 48H216a8 8 0 0 0 8-8V56a8 8 0 0 0-8-8" opacity=".2"/><circle cx="128" cy="120" r="40" fill="none" stroke="currentColor" stroke-linecap="round" stroke-linejoin="round" stroke-width="16"/><rect width="192" height="160" x="32" y="48" fill="none" stroke="currentColor" stroke-linecap="round" stroke-linejoin="round" stroke-width="16" rx="8"/><path fill="none" stroke="currentColor" stroke-linecap="round" stroke-linejoin="round" stroke-width="16" d="M60.1 208a72 72 0 0 1 135.8 0"/></svg>