<svg xmlns="http://www.w3.org/2000/svg" viewBox="0 0 256 256"><path fill="none" d="M0 0h256v256H0z"/><path d="M208 40H48a8 8 0 0 0-8 8v160a8 8 0 0 0 8 8h160a8 8 0 0 0 8-8V48a8 8 0 0 0-8-8M57.78 216A72 72 0 0 1 128 160a40 40 0 1 1 40-40 40 40 0 0 1-40 40 72 72 0 0 1 70.22 56Z" opacity=".2"/><circle cx="128" cy="120" r="40" fill="none" stroke="currentColor" stroke-linecap="round" stroke-linejoin="round" stroke-width="16"/><rect width="176" height="176" x="40" y="40" fill="none" stroke="currentColor" stroke-linecap="round" stroke-linejoin="round" stroke-width="16" rx="8"/><path fill="none" stroke="currentColor" stroke-linecap="round" stroke-linejoin="round" stroke-width="16" d="M57.78 216a72 72 0 0 1 140.44 0"/></svg>