<svg xmlns="http://www.w3.org/2000/svg" viewBox="0 0 256 256"><path fill="none" d="M0 0h256v256H0z"/><circle cx="80" cy="168" r="32" opacity=".2"/><circle cx="80" cy="64" r="32" opacity=".2"/><circle cx="176" cy="168" r="32" opacity=".2"/><circle cx="176" cy="64" r="32" opacity=".2"/><path fill="none" stroke="currentColor" stroke-linecap="round" stroke-linejoin="round" stroke-width="16" d="M32 224a60 60 0 0 1 96 0 60 60 0 0 1 96 0M32 120a60 60 0 0 1 96 0h0a60 60 0 0 1 96 0"/><circle cx="80" cy="168" r="32" fill="none" stroke="currentColor" stroke-linecap="round" stroke-linejoin="round" stroke-width="16"/><circle cx="80" cy="64" r="32" fill="none" stroke="currentColor" stroke-linecap="round" stroke-linejoin="round" stroke-width="16"/><circle cx="176" cy="168" r="32" fill="none" stroke="currentColor" stroke-linecap="round" stroke-linejoin="round" stroke-width="16"/><circle cx="176" cy="64" r="32" fill="none" stroke="currentColor" stroke-linecap="round" stroke-linejoin="round" stroke-width="16"/></svg>