<svg xmlns="http://www.w3.org/2000/svg" viewBox="0 0 256 256"><path fill="none" d="M0 0h256v256H0z"/><path d="M40 48a8 8 0 0 0-8 8v144a8 8 0 0 0 8 8h120V48Zm56 96a24 24 0 1 1 24-24 24 24 0 0 1-24 24" opacity=".2"/><rect width="192" height="160" x="32" y="48" fill="none" stroke="currentColor" stroke-linecap="round" stroke-linejoin="round" stroke-width="16" rx="8"/><path fill="none" stroke="currentColor" stroke-linecap="round" stroke-linejoin="round" stroke-width="16" d="M160 48v160M160 128h64"/><circle cx="192" cy="88" r="12"/><circle cx="192" cy="168" r="12"/><circle cx="96" cy="120" r="24" fill="none" stroke="currentColor" stroke-linecap="round" stroke-linejoin="round" stroke-width="16"/><path fill="none" stroke="currentColor" stroke-linecap="round" stroke-linejoin="round" stroke-width="16" d="M64 168c3.55-13.8 17.09-24 32-24s28.46 10.19 32 24"/></svg>