<svg xmlns="http://www.w3.org/2000/svg" viewBox="0 0 256 256"><path fill="none" d="M0 0h256v256H0z"/><path d="M216 48H40a8 8 0 0 0-8 8v144a8 8 0 0 0 8 8h176a8 8 0 0 0 8-8V56a8 8 0 0 0-8-8m-88 128c-35.35 0-64-21.49-64-48s28.65-48 64-48 64 21.49 64 48-28.65 48-64 48" opacity=".2"/><rect width="192" height="160" x="32" y="48" fill="none" stroke="currentColor" stroke-linecap="round" stroke-linejoin="round" stroke-width="16" rx="8"/><ellipse cx="128" cy="128" fill="none" stroke="currentColor" stroke-linecap="round" stroke-linejoin="round" stroke-width="16" rx="64" ry="48"/></svg>