<svg xmlns="http://www.w3.org/2000/svg" viewBox="0 0 256 256"><path fill="none" d="M0 0h256v256H0z"/><path d="M112.8 173.45c-11.81 9.79-27.19 19.26-43.89 18.48A64 64 0 0 1 72 64h111.05c35.17 0 64.49 28 64.94 63.15A64 64 0 0 1 184 192c-15.48 0-29.68-9.35-40.75-18.5a23.91 23.91 0 0 0-30.45-.05" opacity=".2"/><path fill="none" stroke="currentColor" stroke-linecap="round" stroke-linejoin="round" stroke-width="16" d="M112.8 173.45c-11.81 9.79-27.19 19.26-43.89 18.48A64 64 0 0 1 72 64h111.05c35.17 0 64.49 28 64.94 63.15A64 64 0 0 1 184 192c-15.48 0-29.68-9.35-40.75-18.5a23.91 23.91 0 0 0-30.45-.05M80 96h96"/></svg>