<svg xmlns="http://www.w3.org/2000/svg" viewBox="0 0 256 256"><path fill="none" d="M0 0h256v256H0z"/><path d="M128 32a72 72 0 1 0 72 72 72 72 0 0 0-72-72m0 104a32 32 0 1 1 32-32 32 32 0 0 1-32 32" opacity=".2"/><path fill="none" stroke="currentColor" stroke-linecap="round" stroke-linejoin="round" stroke-width="16" d="M128 176v32M48 40l160 176M163.26 166.79A72 72 0 0 1 68.85 62.94M92.48 41.36a72 72 0 0 1 94.5 104"/><path fill="none" stroke="currentColor" stroke-linecap="round" stroke-linejoin="round" stroke-width="16" d="M121 72.76a32 32 0 0 1 37.41 41.15M32 208h168.73M134.64 135.31a32 32 0 0 1-37.18-40.9"/></svg>