<svg xmlns="http://www.w3.org/2000/svg" viewBox="0 0 256 256"><path fill="none" d="M0 0h256v256H0z"/><path d="M128 32a96 96 0 0 0-83.11 144.07l-12.47 37.39a8 8 0 0 0 10.12 10.12l37.39-12.47A96 96 0 1 0 128 32m24 152a80 80 0 0 1-80-80 32 32 0 0 1 32-32l16 32-12.32 18.47a48.2 48.2 0 0 0 25.85 25.85L152 136l32 16a32 32 0 0 1-32 32" opacity=".2"/><path fill="none" stroke="currentColor" stroke-linecap="round" stroke-linejoin="round" stroke-width="16" d="M72 104a32 32 0 0 1 32-32l16 32-12.32 18.47a48.2 48.2 0 0 0 25.85 25.85L152 136l32 16a32 32 0 0 1-32 32 80 80 0 0 1-80-80"/><path fill="none" stroke="currentColor" stroke-linecap="round" stroke-linejoin="round" stroke-width="16" d="M79.93 211.11a96 96 0 1 0-35-35h0l-12.51 37.35a8 8 0 0 0 10.12 10.12z"/></svg>