<svg xmlns="http://www.w3.org/2000/svg" viewBox="0 0 256 256"><path fill="none" d="M0 0h256v256H0z"/><path fill="none" stroke="currentColor" stroke-linecap="round" stroke-linejoin="round" stroke-width="16" d="m224 56-48 48M224 104l-48-48"/><path d="m224 104-58.77-58.77a7.94 7.94 0 0 0-4.17-2.23A182 182 0 0 0 128 40 179.58 179.58 0 0 0 19.11 76.48a7.79 7.79 0 0 0-1.31 11.21l104.05 125.43a8 8 0 0 0 12.3 0l90.24-108.78Z" opacity=".2"/><path fill="none" stroke="currentColor" stroke-linecap="round" stroke-linejoin="round" stroke-width="16" d="M136 40.17q-4-.16-8-.17A179.58 179.58 0 0 0 19.11 76.48a7.79 7.79 0 0 0-1.31 11.21l104.05 125.43a8 8 0 0 0 12.3 0L191.49 144"/></svg>