<svg xmlns="http://www.w3.org/2000/svg" viewBox="0 0 256 256"><path fill="none" d="M0 0h256v256H0z"/><path d="m134.15 213.12 104-125.43a7.79 7.79 0 0 0-1.31-11.21 180.75 180.75 0 0 0-217.78 0 7.79 7.79 0 0 0-1.26 11.21l104.05 125.43a8 8 0 0 0 12.3 0" opacity=".2"/><path fill="none" stroke="currentColor" stroke-linecap="round" stroke-linejoin="round" stroke-width="16" d="m48 40 160 176M188.77 147.28l49.43-59.59a7.79 7.79 0 0 0-1.31-11.21A179.58 179.58 0 0 0 128 40a182.6 182.6 0 0 0-33.88 3.16M60 53.21a179 179 0 0 0-40.9 23.27 7.79 7.79 0 0 0-1.3 11.21l104.05 125.43a8 8 0 0 0 12.3 0l34-41"/></svg>