<svg xmlns="http://www.w3.org/2000/svg" viewBox="0 0 256 256"><path fill="none" d="M0 0h256v256H0z"/><path d="M107.9 130.14 90.27 160.1 80 232h96l-9.64-67.45z" opacity=".2"/><path fill="none" stroke="currentColor" stroke-linecap="round" stroke-linejoin="round" stroke-width="16" d="m148.1 61.86-76-44.75a8 8 0 0 0-11 2.83l-12 20.34a8 8 0 0 0 2.84 11l152.1 89.52a8 8 0 0 1 2.84 11l-12 20.34a8 8 0 0 1-11 2.83l-76-44.75"/><path fill="none" stroke="currentColor" stroke-linecap="round" stroke-linejoin="round" stroke-width="16" d="m93.86 75.9-44.75 76a8 8 0 0 0 2.83 11l20.34 12a8 8 0 0 0 11-2.84L172.76 20a8 8 0 0 1 11-2.84l20.34 12a8 8 0 0 1 2.83 11l-44.75 76M32 232h192M166.36 164.55 176 232M90.27 160.11 80 232"/></svg>