<svg xmlns="http://www.w3.org/2000/svg" viewBox="0 0 256 256"><path fill="none" d="M0 0h256v256H0z"/><circle cx="128" cy="128" r="96" opacity=".2"/><path fill="none" stroke="currentColor" stroke-linecap="round" stroke-linejoin="round" stroke-width="16" d="m128 224 104-.03"/><circle cx="128" cy="128" r="96" fill="none" stroke="currentColor" stroke-linecap="round" stroke-linejoin="round" stroke-width="16"/><path fill="none" stroke="currentColor" stroke-linecap="round" stroke-linejoin="round" stroke-width="16" d="M92.3 217.14A176.3 176.3 0 0 1 214.81 87M57.34 193A216.52 216.52 0 0 1 188.59 53.53M131.8 223.93A136.3 136.3 0 0 1 224 126"/><path fill="none" stroke="currentColor" stroke-linecap="round" stroke-linejoin="round" stroke-width="16" d="M32.31 120.25a135.1 135.1 0 0 1 53 14.33M44.19 81.15a175 175 0 0 1 67.17 22M77.12 46.58A215 215 0 0 1 144 76.37"/></svg>