<svg xmlns="http://www.w3.org/2000/svg" viewBox="0 0 32 32"><path fill="#f1a842" d="M28.933 14.655c-.55-2.123-1.342-4.16-2.558-6.013-.627-.955-1.37-1.824-2.384-2.374-.492-.26-1.08-.328-1.621-.511-.28-.097-.58-.184-.82-.348-2.172-1.467-4.517-2.171-7.142-1.747a9.2 9.2 0 0 0-3.571 1.38c-.145.097-.29.222-.454.242-1.66.202-2.76 1.274-3.744 2.48-1.709 2.085-2.741 4.526-3.533 7.065-.463 1.476.068 2.905.734 4.217.666 1.293 1.476 2.51 2.258 3.735.319.502.695.463.936-.077l.85-2.017c.096-.3.038-.676-.03-1.004-.385-1.95-.665-3.899-.395-5.887.087-.656.26-1.322.463-1.95.058-.183.377-.29.57-.424.115.231.366.52.308.704-.84 2.616-.424 5.202.087 7.798.078.386 0 .85-.135 1.226-.135.367-.116.647.077.965.801 1.322 1.67 2.577 3.156 3.253.531.24.493.694-.029 1.032l1.159.425-.222-2.809c-.02-.183-.184-.405-.338-.52-1.043-.773-1.795-1.728-1.911-3.07a4 4 0 0 1 0-.685c.029-.328.125-.685.521-.589.183.049.347.386.415.618.087.309.02.656.097.965.27 1.023.965 1.699 1.9 2.094.271.116.715 0 1.014-.135.348-.174.647-.482.917-.772.125-.135.183-.367.203-.56.038-.337-.03-.704.048-1.032.039-.174.29-.406.444-.406s.338.232.463.396c.058.077.039.232.02.338-.232 1.013.405 1.534 1.11 2.046.366.27.752.299 1.138.096 1.178-.637 1.94-1.553 1.892-2.972-.01-.357.02-.695.463-.695.396 0 .463.328.483.656.086 1.718-.734 2.934-2.124 3.812-.309.193-.424.377-.434.763 0 .859-.116 1.718-.193 2.577l1.177-.444c-.492-.483-.453-.811.136-1.1 1.563-.773 2.354-2.2 3.117-3.658.067-.135 0-.377-.068-.54-.27-.57-.27-1.13-.144-1.738.472-2.19.752-4.391.27-6.62-.068-.3-.232-.59-.232-.888 0-.232.193-.464.3-.695.192.135.492.231.578.424.502 1.216.637 2.5.54 3.793-.105 1.467-.366 2.924-.55 4.391-.028.203-.048.435.02.618l.878 2.065c.222.473.58.531.879.126 1.36-1.853 2.576-3.783 3.03-6.08.125-.628.154-1.322 0-1.93z"/><path d="M20.189 26.487c-.492-.482-.454-.81.135-1.1 1.563-.772 2.355-2.2 3.117-3.658.068-.135 0-.376-.067-.54-.27-.57-.27-1.13-.145-1.738.473-2.19.753-4.39.27-6.62-.067-.3-.232-.589-.232-.888 0-.232-.144-.463.3-.695.415-.039.492.232.579.425.502 1.206.637 2.5.54 3.793-.106 1.467-.367 2.924-.55 4.39-.029.203-.048.435.02.618l.878 2.066c.222.473.579.53.878.125 1.36-1.853 2.577-3.783 3.03-6.08.126-.627.155-1.322 0-1.93-.55-2.123-1.341-4.16-2.557-6.013-.628-.955-1.37-1.824-2.384-2.374-.492-.26-1.08-.328-1.621-.511-.28-.097-.58-.184-.82-.348-2.172-1.467-4.517-2.171-7.143-1.747a9.2 9.2 0 0 0-3.57 1.38c-.145.097-.29.222-.454.242-1.66.202-2.76 1.274-3.745 2.48-1.708 2.085-2.74 4.526-3.532 7.065-.463 1.476.068 2.905.733 4.217.666 1.293 1.477 2.51 2.259 3.735.318.502.695.463.936-.077l.85-2.017c.096-.3.038-.676-.03-1.004-.386-1.95-.666-3.899-.395-5.887.087-.656.26-1.322.463-1.95.058-.183.125-.424.57-.424.51.183.366.52.308.704-.84 2.616-.425 5.202.087 7.798.077.386 0 .85-.135 1.226-.135.367-.116.647.077.965.801 1.322 1.67 2.577 3.156 3.253.53.24.492.694-.029 1.032-1.197-.357-2.046-1.177-2.799-2.113L8.096 22.8l-.434.772c-.464.695-1.419.86-1.93.232-1.834-2.23-3.31-4.661-3.678-7.605-.144-1.13.27-2.152.666-3.175.936-2.403 2.027-4.73 3.822-6.63.956-1.014 2.037-1.873 3.484-2.085.126-.02.251-.097.357-.164 3.86-2.326 7.663-2.162 11.427.25.28.174.618.31.936.348 1.554.212 2.674 1.12 3.61 2.268 1.756 2.152 2.731 4.69 3.455 7.325.396 1.448.02 2.857-.492 4.218-.637 1.698-1.554 3.243-2.635 4.7-.772 1.042-1.853.975-2.47-.164-.059-.097-.107-.193-.165-.3-.511.705-.965 1.41-1.496 2.056-.627.763-1.36 1.41-2.364 1.641m-7.074.338-.222-2.809c-.02-.183-.184-.405-.338-.52-1.043-.773-1.795-1.728-1.911-3.07a4 4 0 0 1 0-.685c.029-.328.125-.685.521-.589.183.049.347.386.415.618.087.309.02.656.097.965.27 1.023.965 1.699 1.9 2.094.271.116.715 0 1.014-.135.348-.174.647-.482.917-.772.125-.135.183-.367.203-.56.038-.337-.03-.704.048-1.032.039-.174.29-.406.444-.406s.338.232.463.396c.058.077.039.232.02.338-.232 1.013.405 1.534 1.11 2.046.366.27.752.299 1.138.096 1.178-.637 1.94-1.553 1.892-2.972-.01-.357.02-.695.463-.695.396 0 .463.328.483.656.086 1.718-.734 2.934-2.124 3.812-.309.193-.424.377-.434.763 0 .859-.116 1.718-.193 2.577l-.25.752c-.493 1.477-1.294 1.95-2.887 1.786-1.38-.135-2.258-.81-2.596-2.172-.038-.164-.106-.318-.164-.472zm.79-2.809c-.038 1.216-.009 2.384.464 3.475.116.28.367.617.628.685.598.164 1.235.212 1.853.241.415.02.694-.241.858-.637.454-1.08.59-2.21.54-3.368 0-.154-.134-.347-.26-.434l-1.409-.946c-.299-.241-.482-.27-.762 0-.521.512-1.071.994-1.901.994z"/><path fill="#414141" d="M17.593 18.535c-1.052 0-1.815.086-2.539-.03-.56-.086-1.1-.405-1.621-.665-.106-.049-.125-.3-.154-.464-.01-.067.029-.144.058-.222.772-2.335.55-2.113 2.77-2.103h1.495c.425 0 .743.193.898.588l.56 1.448c.058.174.048.502-.068.579-.521.367-1.08.676-1.4.859z"/><path d="M20.864 11.267c.54 0 .975.483.965 1.062-.01.521-.376.975-.79.975-.541 0-1.014-.396-1.014-.85 0-.8.27-1.187.83-1.196zm-7.875 1.14c0 .501-.444.897-1.013.897-.415 0-.772-.444-.772-.975 0-.598.415-1.071.965-1.062.55 0 .81.367.83 1.14z"/><path fill="#e55947" d="M13.906 24.016c.83 0 1.38-.482 1.901-.994.28-.28.463-.24.763 0 .444.357.955.618 1.409.946.125.097.26.29.26.434.049 1.159-.087 2.288-.54 3.369-.164.395-.454.656-.86.637-.626-.03-1.254-.078-1.852-.242-.26-.067-.512-.415-.627-.685-.473-1.09-.493-2.258-.464-3.474z"/><path d="m19.397 16.933-.598-1.506c-.154-.598-.83-.753-1.197-.753h-2.78c-.337.01-1.051.164-1.215.763-.097.366-.464 1.216-.58 1.476-.144.26-.202.888.705 1.419l1.245.444.965-.695-.019-.85h-.762v.464l-.31.222-.79-.28c-.32-.193-.367-.347-.348-.386l.637-1.631c.038-.126.328-.183.473-.183h2.78c.144 0 .434.057.472.183.135.502.618 1.583.637 1.631.01.039-.029.193-.29.347l-.858.31-.31-.223v-.453l-.752-.01v.85l.946.694 1.312-.473c.84-.502.792-1.129.657-1.36z"/></svg>