<svg xmlns="http://www.w3.org/2000/svg" viewBox="0 0 32 32"><g stroke-width=".818"><path fill="#f6e458" d="M2.053 5.25c.008-1.752 1.461-3.189 3.23-3.197h21.435c1.772 0 3.23 1.443 3.23 3.196v21.502c0 1.753-1.458 3.196-3.23 3.196H5.283c-1.769-.008-3.222-1.445-3.23-3.196z"/><path d="M19.549 8.425c-1.496-.43-3.022-.488-4.577-.349-.87.09-1.706.263-2.513.567-1.744.654-3.054 1.789-3.834 3.498-.56 1.224-.763 2.525-.784 3.86-.022 1.411.154 2.802.435 4.181.255 1.25.594 2.476 1.079 3.66.046.112.103.15.225.15q2.298-.005 4.595-.004h1.361q.051 0 .11-.004l.065-.003-.025-.06-.043-.102q-.167-.355-.337-.709a38 38 0 0 1-.712-1.545c-.673-1.582-1.188-3.212-1.345-4.936-.07-.762-.06-1.518.152-2.26.24-.847.758-1.445 1.617-1.696a3.98 3.98 0 0 1 2.371.025c.701.227 1.157.706 1.352 1.421a3.6 3.6 0 0 1 .036 1.66c-.087.426-.263.815-.577 1.127-.564.558-1.27.687-2.026.644a8 8 0 0 1-.406-.038l-.197-.02.004.059q0 .05.01.098.049.195.094.39c.074.313.148.626.244.933q.28.903.65 1.764c1.755-.137 3.372-.574 5.089-1.604l.072-.045c.737-.46 1.334-1.054 1.746-1.823.666-1.246.795-2.576.598-3.95-.205-1.42-.841-2.61-1.936-3.543-.76-.649-1.639-1.072-2.593-1.346"/></g></svg>