<svg xmlns="http://www.w3.org/2000/svg" viewBox="0 0 32 32"><path d="M28.781 4.405h-10.13V2.018L2 4.588v22.527l16.651 2.868v-3.538h10.13A1.16 1.16 0 0 0 30 25.349V5.5a1.16 1.16 0 0 0-1.219-1.095m.16 21.126H18.617l-.017-1.889h2.487v-2.2h-2.506l-.012-1.3h2.518v-2.2H18.55l-.012-1.3h2.549v-2.2H18.53v-1.3h2.557v-2.2H18.53v-1.3h2.557v-2.2H18.53v-2h10.411Z" style="fill:#20744a;fill-rule:evenodd"/><path d="M22.487 7.439h4.323v2.2h-4.323zM22.487 10.94h4.323v2.2h-4.323zM22.487 14.441h4.323v2.2h-4.323zM22.487 17.942h4.323v2.2h-4.323zM22.487 21.443h4.323v2.2h-4.323z" style="fill:#20744a"/><path d="m6.347 10.673 2.146-.123 1.349 3.709 1.594-3.862 2.146-.123-2.606 5.266 2.606 5.279-2.269-.153-1.532-4.024-1.533 3.871-2.085-.184 2.422-4.663z" style="fill:#fff;fill-rule:evenodd"/></svg>