<svg xmlns="http://www.w3.org/2000/svg" viewBox="0 0 32 32"><path fill="#ff8ee8" d="M15.98 28.09h1.87l1.88-1.87v-1.87l3.75-3.74v-3.73l1.87-1.87h1.88l1.87-1.87V9.4l-1.87-1.87h-3.75L19.73 3.8h-9.37L4.73 9.4v5.61l-1.87 1.87v3.73l7.5 7.48h1.87l1.88-1.87h1.87z"/><g fill="#671e65"><path d="M9.43 2.93h11.29v1.86H9.43zM7.57 4.79h1.86v1.86H7.57z"/><path d="M5.72 6.64h1.86V8.5H5.72zM3.86 8.5h1.86v7.43H3.86zM2 15.93h1.86v5.57H2zM3.86 21.5h1.86v1.86H3.86zM5.72 23.36h1.86v1.86H5.72zM7.57 25.36h1.86v1.86H7.57zM9.43 27.21h3.71v1.86H9.43zM13.14 25.36v1.85H15v1.86h3.72v-1.86h-1.86v-1.85zM18.72 23.36h2v3.86h-2zM20.72 21.5h1.86v1.86h-1.86zM22.57 15.93h1.86v5.57h-1.86zM24.43 14.07h3.71v1.86h-3.71zM28.14 10.36h-5.57v1.85h5.57v1.86H30V8.5h-1.86zM22.57 6.64h5.57V8.5h-5.57z"/><path d="M20.72 4.79h1.86v1.86h-1.86zM18.86 6.64h1.86V8.5h-1.86zM13.14 8.5H15v1.86h-1.86zM13.14 15.93v3.71H15v-3.71zM11.29 19.64h1.86v1.86h-1.86zM9.43 17.78v1.86h1.86v-3.71H9.43z"/></g></svg>