<svg xmlns="http://www.w3.org/2000/svg" viewBox="0 0 32 32"><path d="M27.4 5.5h-9.2l-2.1 4.2H4.3v16.8h25.2v-21Zm0 18.7H6.6V11.8h20.8Zm0-14.5h-8.2l1-2.1h7.1v2.1Z" style="fill:#db7b7b"/><path d="M25.7 13.7H.5l3.8 12.8h25.2z" style="fill:#db7b7b"/><path d="m9.99 10.4 17.984 19.05a.84.84 0 0 0 1.081-.072.8.8 0 0 0 .108-1.008zM15.684 12.205 29.38 26.97a.84.84 0 0 0 1.081-.072.8.8 0 0 0 .108-1.008zM11.684 16.058l13.7 14.764a.84.84 0 0 0 1.081-.072.8.8 0 0 0 .108-1.008zM20.5 13.754l9.568 10.315a.586.586 0 0 0 .755-.05.56.56 0 0 0 .076-.7l-10.4-9.56ZM13 20.524l9.57 10.315a.586.586 0 0 0 .755-.05.56.56 0 0 0 .076-.7zM25.415 15.986l4.337 4.689a.3.3 0 0 0 .374-.024.25.25 0 0 0 .037-.33zM15.4 25.277l4.337 4.689a.3.3 0 0 0 .374-.024.25.25 0 0 0 .037-.33z" style="fill:#df4f4f"/></svg>