<svg xmlns="http://www.w3.org/2000/svg" viewBox="0 0 32 32"><path fill="#d42551" d="M27.4 5.5h-9.2l-2.1 4.2H4.3v4H.5l3.8 12.8h25.2v-21zm-7.2 2.1h7.1v2.1h-8.1zm5.5 6.1H6.6v-1.9h20.8v7.626z"/><path fill="#e5e5e5" d="M23.814 29.366a6.985 6.985 0 1 0 0-13.97 6.985 6.985 0 0 0 0 13.97"/><path fill="#ac304f" fill-rule="evenodd" d="M30.101 22.381a6.287 6.287 0 1 1-12.573 0 6.287 6.287 0 0 1 12.573 0m-4.194-1.226 2.099-1.22-4.192-2.444-4.19 2.443v4.886l2.1 1.224-.003-2.449 2.093 1.22v2.456l4.192-2.451-2.099-1.229-2.093 1.224v-2.438l-2.093-1.222 2.093-1.22z" clip-rule="evenodd"/></svg>