<svg xmlns="http://www.w3.org/2000/svg" data-name="Layer 1" viewBox="0 0 32 32"><path d="M27.5 5.5h-9.3l-2.1 4.2H4.4v16.8h25.2v-21Zm0 4.2h-8.2l1.1-2.1h7.1Z" style="fill:#5460c0"/><path d="M15.55 23.39a29 29 0 0 0-.07-4.66c-.08-1-.08-2.48.5-2.75 1.41-.62 2.71 2.5 5.17 2.13 2-.3 1.5-3.69 2.84-3.89 1.92-.3 5.76 7.65 6.32 13.26a10.13 10.13 0 1 0-15.78 1.34 16 16 0 0 0 1.02-5.43" style="fill:#b4bcf6"/><path d="M14.5 28.86a15.3 15.3 0 0 0 1.05-5.47 29 29 0 0 0-.07-4.66c-.08-1-.08-2.48.5-2.75 1.41-.62 2.71 2.5 5.17 2.13 2-.3 1.5-3.69 2.84-3.89 1.89-.28 5.79 7.69 6.29 13.29a10.23 10.23 0 0 1-7.13 4.4 10.07 10.07 0 0 1-8.65-3.05" style="fill:#fff"/><path d="M18.38 26.11A1.4 1.4 0 0 0 19 26a1.3 1.3 0 0 0 .48-.32 1.4 1.4 0 0 0 .34-.49 1.4 1.4 0 0 0 .1-.58 1.5 1.5 0 1 0-1.5 1.51ZM26.29 24.82a1.5 1.5 0 0 0 1.5-1.5 1.6 1.6 0 0 0-.11-.57 1.51 1.51 0 0 0-2-.82 1.8 1.8 0 0 0-.48.32 1.6 1.6 0 0 0-.33.5 1.4 1.4 0 0 0-.13.57 1.5 1.5 0 0 0 1.5 1.5Z" style="fill:#ef4357"/><path d="M14.4 29.47a.4.4 0 0 1-.16 0l-.12-.08-.12-.13a.4.4 0 0 1 0-.15.3.3 0 0 1 0-.15 16.7 16.7 0 0 0 1.05-5.55A28.4 28.4 0 0 0 15 18.8c-.16-1.78.09-2.84.72-3.13.87-.4 1.66.25 2.42.88a3.83 3.83 0 0 0 2.89 1.22c.8-.12 1.1-.86 1.45-2 .28-.87.56-1.77 1.39-1.9a1.57 1.57 0 0 1 1.2.43c2.05 1.59 5.06 8.13 5.58 13.19a.3.3 0 0 1 0 .14.43.43 0 0 1-.19.23h-.14a.37.37 0 0 1-.28-.09.35.35 0 0 1-.14-.25c-.51-4.79-3.42-11.2-5.34-12.7a1 1 0 0 0-.6-.23c-.37.06-.57.72-.79 1.38-.32 1-.72 2.31-2 2.51a4.4 4.4 0 0 1-3.48-1.4c-.76-.63-1.23-1-1.64-.8-.18.09-.41.8-.28 2.37a29.6 29.6 0 0 1 .06 4.71 16.9 16.9 0 0 1-1.13 5.84.5.5 0 0 1-.13.16.4.4 0 0 1-.17.11" style="fill:#181818"/><path d="M16.46 25.49a.2.2 0 0 1-.11 0 .2.2 0 0 1-.07-.08v-.15a.1.1 0 0 1 0-.06.15.15 0 0 1 .06-.05l1.49-.63-1.58-.35h-.07l-.05-.05v-.21l.06-.06h.14l2.17.44a.2.2 0 0 1 .1.06.2.2 0 0 1 .05.11.24.24 0 0 1 0 .12.2.2 0 0 1-.09.07l-2.08.84ZM28.22 23.64 26 23.53a.3.3 0 0 1-.11-.05.17.17 0 0 1-.06-.1.24.24 0 0 1 0-.12.14.14 0 0 1 .08-.09L27.77 22h.21000000000000002l.05.05a.2.2 0 0 1 0 .15.15.15 0 0 1-.08.11l-1.37.85 1.63.09a.15.15 0 0 1 .17 0 .24.24 0 0 1 .05.13.25.25 0 0 1-.06.14.2.2 0 0 1-.13.05ZM22.26 24.94a1.32 1.32 0 0 1-.86-.25 1.4 1.4 0 0 1-.54-.72.17.17 0 0 1 0-.1v-.1l.06-.08a.25.25 0 0 1 .19-.05.14.14 0 0 1 .09 0l.08.05a.4.4 0 0 1 0 .09 1 1 0 0 0 1.2.62 1 1 0 0 0 .91-1 .21.21 0 0 1 .07-.17.25.25 0 0 1 .35 0 .21.21 0 0 1 .07.17 1.49 1.49 0 0 1-1.32 1.53h-.37ZM18 22.69a.25.25 0 0 1-.16-.12.21.21 0 0 1 0-.19 2.28 2.28 0 0 1 1.68-1.51 1.84 1.84 0 0 1 1.85 1 .3.3 0 0 1 0 .19.25.25 0 0 1-.34.1.24.24 0 0 1-.12-.14 1.35 1.35 0 0 0-1.31-.65 1.79 1.79 0 0 0-1.3 1.13.4.4 0 0 1-.09.14.27.27 0 0 1-.15.05ZM23 21.87h-.1a.2.2 0 0 1-.09 0 .24.24 0 0 1-.06-.08.17.17 0 0 1 0-.1.14.14 0 0 1 0-.09 2 2 0 0 1 1.45-1.45 2.08 2.08 0 0 1 2 1 .1.1 0 0 1 0 .08.17.17 0 0 1 0 .1.4.4 0 0 1-.05.08l-.08.06h-.2l-.09-.05a.4.4 0 0 1-.05-.08 1.56 1.56 0 0 0-1.45-.68 1.48 1.48 0 0 0-1.07 1.05.34.34 0 0 1-.09.14.24.24 0 0 1-.14.05Z" style="fill:#181818"/><path d="M26.81 19.64a.3.3 0 0 0-.08-.08.2.2 0 0 0-.12 0h-.12l-.48.08a3 3 0 0 0-.23-.27 2 2 0 0 0-2.84 0 1.9 1.9 0 0 0-.48.8 2 2 0 0 0-.33 0 2 2 0 0 0-1 .28c-.06-.07-.11-.14-.18-.21a2 2 0 0 0-1.44-.59 2 2 0 0 0-1.45.59 2.1 2.1 0 0 0-.51 1l-.56.1a.35.35 0 0 0-.2.14.3.3 0 0 0-.05.24.4.4 0 0 0 .11.18.32.32 0 0 0 .2.07h.06l.4-.08a2.13 2.13 0 0 0 .55 1.11 2 2 0 0 0 3.44-1.45 2.4 2.4 0 0 0-.12-.65 1.4 1.4 0 0 1 .72-.2 2 2 0 0 1 .23 0 2.07 2.07 0 0 0 .59 1.4 2 2 0 0 0 3.43-1.45 1.8 1.8 0 0 0-.09-.56l.34-.06a.3.3 0 0 0 .21-.13.36.36 0 0 0 0-.35Zm-6.35 2.9a1.4 1.4 0 0 1-1 .39 1.35 1.35 0 0 1-1-.34 1.37 1.37 0 0 1 1.94-1.94 1.35 1.35 0 0 1 .41 1 1.36 1.36 0 0 1-.41 1Zm4.85-.85a1.38 1.38 0 0 1-2.24-1.5 1.7 1.7 0 0 1 .29-.45 1.5 1.5 0 0 1 .45-.3 1.4 1.4 0 0 1 1.06 0 1.5 1.5 0 0 1 .45.3 1.7 1.7 0 0 1 .29.45 1.2 1.2 0 0 1 .1.53 1.36 1.36 0 0 1-.4 1Z" style="fill:#b4bcf6"/></svg>