<svg xmlns="http://www.w3.org/2000/svg" xmlns:xlink="http://www.w3.org/1999/xlink" data-name="Layer 1" viewBox="0 0 32 32"><defs><linearGradient id="a" x1="303.46" x2="291.69" y1="-401.7" y2="-386" gradientTransform="matrix(1 0 0 -1 -281.64 -372.94)" gradientUnits="userSpaceOnUse"><stop offset="0" stop-color="#001b33"/><stop offset="1" stop-color="#006dcc"/></linearGradient><linearGradient xlink:href="#a" id="c" x1="300.45" x2="288.67" y1="-403.96" y2="-388.26"/><linearGradient id="b" x1="298.46" x2="310.24" y1="-401.67" y2="-385.97" gradientTransform="matrix(1 0 0 -1 -281.64 -372.94)" gradientUnits="userSpaceOnUse"><stop offset="0" stop-color="#0089d6"/><stop offset="1" stop-color="#6cf"/></linearGradient><linearGradient xlink:href="#b" id="d" x1="301.47" x2="313.25" y1="-403.93" y2="-388.23"/></defs><path d="M27.5 5.5h-9.3l-2.1 4.2H4.4v16.8h25.2v-21Zm0 4.2h-8.2l1.1-2.1h7.1Z" style="fill:#5799b5"/><path d="M19.94 22.32a7.84 7.84 0 0 0-7.85-7.85H8.16A7.86 7.86 0 0 0 16 22.32Z" style="fill:url(#a)"/><path d="M19.94 22.32a7.85 7.85 0 0 1-7.85 7.85h-1.57a7.84 7.84 0 0 1 7.85-7.85Z" style="fill:url(#c)"/><path d="M18.68 22.32a7.85 7.85 0 0 1 7.85-7.85h3.93a7.86 7.86 0 0 1-7.85 7.85Z" style="fill:url(#b)"/><path d="M18.68 22.32a7.86 7.86 0 0 0 7.85 7.85h1.57a7.84 7.84 0 0 0-7.85-7.85Z" style="fill:url(#d)"/><path d="M19.31 19.24a7.84 7.84 0 0 1 0 6.16 7.84 7.84 0 0 1 0-6.16" style="fill:#08c"/></svg>