<svg xmlns="http://www.w3.org/2000/svg" viewBox="0 0 32 32"><path d="M27.5 5.5h-9.3l-2.1 4.2H4.4v16.8h25.2v-21Zm0 4.2h-8.2l1.1-2.1h7.1Z" style="fill:#bf8e55"/><path d="M29.025 14.38H11.974A1.98 1.98 0 0 0 10 16.354v12.675A1.98 1.98 0 0 0 11.974 31h17.051A1.98 1.98 0 0 0 31 29.026V16.354a1.98 1.98 0 0 0-1.975-1.974" style="fill:#675f58"/><path d="M29.925 29.026a.905.905 0 0 1-.9.9H11.974a.905.905 0 0 1-.9-.9V17.62h18.85v11.406Z" style="fill:#ccc"/><path d="M14.9 24.446h2.8v2.8h-2.8zM14.9 20.246h2.8v2.801h-2.8zM19.1 20.246h2.8v2.801h-2.8zM23.3 20.246h2.8v2.801h-2.8zM19.1 24.446h2.8v2.8h-2.8zM23.3 24.446h2.8v2.8h-2.8z" style="fill:#ff931e"/></svg>