<svg xmlns="http://www.w3.org/2000/svg" viewBox="0 0 32 32"><defs><radialGradient id="a" cx="0" cy="0" r="1" gradientTransform="matrix(20 0 0 20 16.87 17.63)" gradientUnits="userSpaceOnUse"><stop offset="0" stop-color="#ba7bf0"/><stop offset=".45" stop-color="#996bec"/><stop offset="1" stop-color="#5046e4"/></radialGradient></defs><path fill="url(#a)" d="M24.8 6.86a5.2 5.2 0 0 1 5.2 5.2V23.4a5.2 5.2 0 0 1-5.2 5.2h-.25c-16.78-.01-10.06-1.14-20.65-1.18A5.19 5.19 0 0 1 2 23.4V12.06a5.2 5.2 0 0 1 5.2-5.2z"/><path d="m14.15 28.15-.21.18a1.14 1.14 0 0 1-.72.26H7.2a5.18 5.18 0 0 1-3.3-1.18c.45.05 1.15.2 2.2-.64l5.2-4.59a.58.58 0 0 1 .73 0l3.75 3.09 1.33-1.1a.58.58 0 0 1 .73 0l4.1 3.37c.5.38 1.13.82 2.6 1.05h-2.72a1.16 1.16 0 0 1-.67-.22l-.05-.04-.2-.17a.4.4 0 0 0-.05-.05l-3.14-2.6a.34.34 0 0 0-.43 0s0 0-3.08 2.6a.4.4 0 0 0-.05.04M23.11 21a1.25 1.25 0 0 0-1.23 1.23 1.25 1.25 0 0 0 1.23 1.23 1.25 1.25 0 0 0 1.23-1.23A1.25 1.25 0 0 0 23.11 21m-7.96-3.73-.41-.41-.25-.26-.64-.68-.16-.18-.76-.9-.22-.27-.67-.87-.08-.1-.52-.76-.14-.23-.37-.64-.11-.2-.32-.68-.06-.16-.19-.52-.07-.24-.05-.23-.05-.25-.03-.27-.02-.17V8.7l.07-.65.02-.11.14-.65.04-.1.1-.32.04-.09.17-.38.12-.22.17-.28.17-.24.11-.16.14-.16.15-.17.13-.12.31-.28.23-.19.02-.01.27-.18.21-.14.41-.22h.02l.58-.25.06-.02.51-.15.22-.05.3-.05.19-.03.3-.04.2-.02.4-.02h.54l.44.04.57.08.07.02.57.14.17.05.18.06.23.09.18.08.26.12.16.08.3.18.11.07.4.3.12.1.29.25.01.02.24.25.08.1.28.37.06.09.22.38.07.12.13.29.13.32.05.14.13.5v.02l.11.67.02.23.02.3v.49l-.03.14-.09.53-.02.1-.22.67v.02l-.2.48-.01.02-.26.52-.46.79-.24.37-.29.43-.2.28-.4.54-.28.35-.4.5-.3.33-.43.5-.29.3-.81.86-.2.18.12.1a5 5 0 0 1 .8.98 2.1 2.1 0 0 1 .22.73v.13c.01.26-.04.51-.13.75a1.85 1.85 0 0 1-.59.78c-.09.07-.18.13-.28.18a2.1 2.1 0 0 1-.76.23 2.2 2.2 0 0 1-.92-.1 2 2 0 0 1-.39-.19 1.9 1.9 0 0 1-.39-.32 1.9 1.9 0 0 1-.37-.58 1.9 1.9 0 0 1-.14-.66v-.17a1.9 1.9 0 0 1 .12-.54 2.1 2.1 0 0 1 .32-.57 3.6 3.6 0 0 1 .57-.63l.05-.05z"/><path fill="#fff" d="m13.94 28.33 3.34-2.82a.34.34 0 0 1 .43 0l3.4 2.82c.2.17.46.26.72.26h-8.62c.27 0 .52-.1.73-.26m2.08-10.06h.03l.03.02.03.03a4 4 0 0 1 .47.54 1.4 1.4 0 0 1 .1.18c.01.05.03.1.03.16v.1a.59.59 0 0 1-.28.46.8.8 0 0 1-.34.11h-.23a1 1 0 0 1-.15-.04.7.7 0 0 1-.14-.06l-.08-.07a.57.57 0 0 1-.2-.32v-.25a1 1 0 0 1 .07-.16 3 3 0 0 1 .52-.64l.04-.04.06-.02zm-.21-13.7v11.48L15.8 16a32 32 0 0 1-1.05-2.14 23 23 0 0 1-.72-1.79 14 14 0 0 1-.43-1.47c-.1-.4-.16-.8-.19-1.2a6 6 0 0 1-.01-.53 10 10 0 0 1 .2-1.72 5.8 5.8 0 0 1 .45-1.23c.22-.41.52-.8.91-1.05a1.9 1.9 0 0 1 .86-.3zm1.48.03.78.22c.35.14.7.3 1.02.52a4.1 4.1 0 0 1 1.1 1.1 4.8 4.8 0 0 1 .73 2.83c-.03.24-.08.49-.15.72a6 6 0 0 1-.2.58 13.3 13.3 0 0 1-1.19 2.12 22 22 0 0 1-1.25 1.64 31 31 0 0 1-1.5 1.67 32 32 0 0 0 .98-2.03 25 25 0 0 0 .93-2.47 13 13 0 0 0 .4-1.88c.03-.24.04-.5.03-.74a11 11 0 0 0-.02-.45c-.03-.6-.12-1.2-.3-1.79A5 5 0 0 0 18.4 6c-.23-.5-.55-.96-.97-1.3z"/></svg>