<svg xmlns="http://www.w3.org/2000/svg" viewBox="0 0 32 32"><g fill="#2c65af"><path d="M21.918 13.616c0 3.047-.001 6.093.007 9.14 0 .062.111.177.17.177 2.262.009 4.523.007 6.784.01.313 0 .638-.002.85.303a.83.83 0 0 1 .154.4c.022.386.013.775.005 1.163-.001.026-.11.089-.14.073-.616-.34-1.608-.24-2.126.235-.475.437-.642 1.004-.63 1.669.009.55.118 1.038.456 1.46.019.023.037.078.026.093-.019.024-.06.035-.093.035-.297.002-.593.006-.89-.006-.049-.002-.137-.084-.137-.13-.003-1.113.004-2.226.001-3.34 0-.056-.07-.154-.113-.158a4 4 0 0 0-.589-.002c-.034.002-.092.082-.092.125q.001.997.011 1.993c.001.118.014.236.016.354.001.03-.02.06-.03.09-.025-.018-.059-.03-.074-.055q-.536-.956-1.07-1.913c-.091-.164-.168-.34-.28-.487-.051-.066-.172-.1-.261-.1-.587-.006-.589 0-.587.63.003.942.011 1.884.007 2.825 0 .057-.092.162-.144.165-.44.02-.517-.086-.676-.659-.106-.384-.272-.749-.41-1.122-.201-.54-.398-1.082-.602-1.62-.023-.061-.08-.15-.125-.154a3.7 3.7 0 0 0-.736-.007c-.064.008-.123.178-.163.284a180.196 192.628 0 0 0-.725 1.962c-.143.39-.273.787-.422 1.175-.025.065-.119.145-.181.145-1.713.006-3.427.003-5.14.002-.074 0-.148.001-.222-.006-.043-.005-.085-.026-.128-.04.036-.05.06-.126.107-.144 1.089-.435 2.085-1.035 2.84-1.996.35-.447.62-.972.902-1.476.398-.713.55-1.515.643-2.325.044-.382.05-.774.022-1.157-.045-.585-.09-1.178-.215-1.747-.176-.797-.474-1.555-1.006-2.166-.387-.444-.777-.9-1.23-1.26-.512-.407-1.08-.744-1.652-1.051-.55-.297-1.133-.53-1.711-.766-.558-.228-1.134-.403-1.687-.641-.698-.302-1.4-.608-2.065-.982a4.5 4.5 0 0 1-1.127-.91c-.367-.406-.412-.948-.313-1.505.101-.569.396-.986.878-1.21a4 4 0 0 1 1.087-.32 3.3 3.3 0 0 1 1.943.296c.458.222.78.62.952 1.14.114.343.184.722.373 1.013.112.173.412.284.631.291 1.009.03 2.018.017 3.027.008.31-.003.63.001.926-.08.4-.11.57-.414.531-.883a9.9 9.9 0 0 0-.62-2.724c-.312-.82-.778-1.526-1.337-2.16-.597-.678-1.324-1.174-2.11-1.575-.18-.092-.357-.193-.534-.294-.024-.013-.037-.05-.055-.075.029-.01.056-.032.085-.032.149-.003.297 0 .445 0 2.608.001 5.214-.01 7.822.014.441.004.747.25.747.894q-.002 4.557-.001 9.114z"/><path d="M9.967 23.327c-.931.064-2.278-.2-2.837-1.088-.412-.654-.265-1.608-1.182-1.678-1.215-.094-2.443.061-3.658-.011-.184-.011-.187.009-.194-.174-.01-.253.023-.545.023-.808V17.59a3188.718 3408.724 0 0 0 0-3.37c0-.276-.084-.622-.015-.881.208.187.32.48.457.73.156.284.319.562.503.826a6.518 6.968 0 0 0 1.06 1.192c.902.8 2.033 1.357 3.122 1.8 1.207.49 2.459.869 3.63 1.459.924.466 2.127 1.053 1.965 2.352-.167 1.339-1.831 1.705-2.874 1.63m19.324 4.026c.27 0 .632.111.384.486-.247.374-1.004.36-1.337.181-.418-.224-.501-.65-.517-1.11-.016-.45-.019-.968.344-1.268.304-.252.773-.324 1.119-.138.17.091.378.274.493.438.084.12.226.47.09.608-.228.231-.876-.147-1.014.187-.012.03-.028.368-.022.41.037.26.27.204.461.204v.003m-5.236.044c-.017-.327-.131-.816-.03-1.127.278.144.461.684.617.966.204.368.409.734.598 1.11q-.265.021-.53.026c-.146.002-.413.054-.546-.004-.252-.112-.129-.73-.129-.97zm-3.086.974c-.225 0-1.033.158-.817-.303.15-.318.597-.182.858-.183.282-.001.717-.118.823.277.04.151.05.156-.087.208-.198.078-.568.002-.778.002zm-.007-1.155c-.216 0-.496.101-.446-.215.031-.2.146-.417.209-.609.028-.089.114-.51.183-.543.167-.076.331.635.382.782.04.12.178.387.137.501-.057.159-.347.09-.465.09z"/></g></svg>