<svg xmlns="http://www.w3.org/2000/svg" viewBox="0 0 32 32"><path fill="#f56e0f" d="M24.38 2.138H7.62c-2.795 0-5.06 2.337-5.06 5.219v17.286c0 2.882 2.265 5.219 5.06 5.219H24.38c2.794 0 5.06-2.337 5.06-5.219V7.357c0-2.882-2.266-5.219-5.06-5.219"/><path fill="#fff" fill-rule="evenodd" d="M18.438 7.501c1.158-1.73 2.496-2.517 3.981-2.411l-6.26 11.259a2.23 2.23 0 0 1-.794 1.077c-.34.23-.524.203-.862.327a1.22 1.22 0 0 0-.698.62l-.116.382c-.105.341-.27.682-.023 1.015.162.219.47.3.878.286.353.074.688.224.982.44.301.23.558.517.757.845.581 1.163.62 2.445-.195 3.922-.896 1.74-2.144 2.343-3.577 2.32-.93-.128-1.566-.568-1.96-1.265-.604-1.07-.595-2.225-.202-3.358.292-.764.654-1.496 1.081-2.187l1.105-2.857.108.106zm5.581 9.883c2.031-.185 3.355-.998 3.998-2.382l-10.4.05-1.327 2.337zm-11.018-1.267q-.212.07-.434.06l-.38-.084c-.339-.074-.708-.095-.867-.48-.105-.255-.022-.571.192-.928.11-.357.147-.734.108-1.106a3.2 3.2 0 0 0-.336-1.09c-.694-1.094-1.757-1.763-3.403-1.76-1.9-.043-3.03.77-3.718 2.067-.356.893-.295 1.687.096 2.38.6 1.063 1.583 1.631 2.732 1.836a12 12 0 0 0 2.378.11l2.866.406.057-.104-.006-.032.024.001zm-2.73-1.59c.35-.72.046-1.399-.51-1.886-.444-.392-1.042-.601-1.776-.63a3.5 3.5 0 0 0-2.088.607c-1.159.85-.75 2.11.334 2.774.5.3 1.076.437 1.653.393.446-.022.885-.12 1.3-.29a2.06 2.06 0 0 0 1.087-.966zm5.137 1.456a.64.64 0 0 1-.041.687.584.584 0 0 1-.928.034.63.63 0 0 1-.089-.683.61.61 0 0 1 .46-.34.58.58 0 0 1 .443.12q.095.076.155.182m-1.344 5.262c.782.04 1.202.647 1.34 1.386.112.593-.007 1.232-.341 1.912a3.65 3.65 0 0 1-1.547 1.565c-1.29.618-2.15-.37-2.177-1.67a3 3 0 0 1 .485-1.675c.239-.39.538-.736.887-1.023.377-.33.857-.506 1.351-.498z" clip-rule="evenodd" opacity=".8"/></svg>