<svg xmlns="http://www.w3.org/2000/svg" data-name="Layer 1" viewBox="0 0 32 32"><path d="M7.25 18.1a40.4 40.4 0 0 0-.09-6.44c-.11-1.36-.11-3.43.69-3.8C9.8 7 11.6 11.31 15 10.8c2.75-.41 2.08-5.1 3.93-5.38C21.58 5 26.89 16 27.66 23.75A14 14 0 1 0 2 16a13.92 13.92 0 0 0 3.84 9.61 21.9 21.9 0 0 0 1.41-7.51" style="fill:#b4bcf6"/><path d="M5.81 25.66a21.1 21.1 0 0 0 1.44-7.56 40.4 40.4 0 0 0-.09-6.44c-.11-1.36-.11-3.43.69-3.8C9.8 7 11.6 11.31 15 10.8c2.75-.41 2.08-5.1 3.93-5.38 2.61-.39 8 10.64 8.69 18.38a14.17 14.17 0 0 1-9.86 6.08 13.89 13.89 0 0 1-11.95-4.22" style="fill:#fff"/><path d="M11.17 21.86a2 2 0 0 0 .8-.16 1.9 1.9 0 0 0 .67-.45 2.1 2.1 0 0 0 .46-.67 2.2 2.2 0 0 0 .15-.8 2.08 2.08 0 0 0-2.08-2.08 2.13 2.13 0 0 0-1.47.61 2.08 2.08 0 0 0 1.47 3.55M22.11 20.08A2.07 2.07 0 0 0 24.18 18a2.1 2.1 0 0 0-.15-.79 2 2 0 0 0-1.13-1.13 2.06 2.06 0 0 0-1.59 0 2.2 2.2 0 0 0-.67.45 1.9 1.9 0 0 0-.45.68A2 2 0 0 0 20 18a2.08 2.08 0 0 0 2.08 2.08Z" style="fill:#ef4357"/><path d="M20.47 5.5a2.2 2.2 0 0 0-1.66-.59c-1.15.18-1.54 1.43-1.92 2.63-.49 1.56-.9 2.59-2 2.75-1.61.23-2.81-.74-4-1.69S8.77 6.84 7.56 7.39c-.86.4-1.2 1.86-1 4.33a40 40 0 0 1 .08 6.37 22.9 22.9 0 0 1-1.46 7.67.5.5 0 0 0-.05.21.7.7 0 0 0 0 .2 1 1 0 0 0 .11.18.7.7 0 0 0 .17.12.57.57 0 0 0 .5 0 .6.6 0 0 0 .19-.23 23.6 23.6 0 0 0 1.6-8.11 40.4 40.4 0 0 0-.09-6.51c-.18-2.17.14-3.16.39-3.28.57-.27 1.22.23 2.24 1.06 1.22 1 2.73 2.24 4.81 1.93 1.82-.28 2.38-2.05 2.83-3.47.3-.94.58-1.86 1.12-1.86a1.32 1.32 0 0 1 .85.37c2.66 2.08 6.68 10.94 7.31 17.52a.53.53 0 0 0 .19.35.55.55 0 0 0 .39.12.7.7 0 0 0 .19-.06.5.5 0 0 0 .16-.13.4.4 0 0 0 .1-.18.5.5 0 0 0 0-.2c-.69-7.04-4.88-16.08-7.72-18.29" style="fill:#181818"/><path d="m11.4 19.27-3-.6h-.1a.3.3 0 0 0-.09 0 .3.3 0 0 0-.08.08.3.3 0 0 0 0 .09V19a.3.3 0 0 0 0 .1.2.2 0 0 0 .07.07h.1l2.17.44-2.06.88a.15.15 0 0 0-.09.06.24.24 0 0 0-.06.08.4.4 0 0 0 0 .11.2.2 0 0 0 0 .1.2.2 0 0 0 .09.11.3.3 0 0 0 .15.05h.1l2.84-1.23a.24.24 0 0 0 .12-.1.3.3 0 0 0 0-.16.26.26 0 0 0-.07-.15.3.3 0 0 0-.09-.09M24.79 17.93l-2.25-.12 1.89-1.17a.21.21 0 0 0 .11-.16.24.24 0 0 0 0-.2l-.07-.07-.09-.05a.3.3 0 0 0-.1 0h-.1l-2.6 1.6a.25.25 0 0 0-.11.12.33.33 0 0 0 0 .17.24.24 0 0 0 .09.14.34.34 0 0 0 .15.06l3.09.16a.24.24 0 0 0 .18-.07.25.25 0 0 0 .02-.14.26.26 0 0 0 0-.2.25.25 0 0 0-.21-.07M18.53 17.77a.36.36 0 0 0-.25.11.35.35 0 0 0-.1.24 1.35 1.35 0 0 1-1.25 1.4 1.32 1.32 0 0 1-1.66-.86.4.4 0 0 0-.07-.12.3.3 0 0 0-.11-.08.22.22 0 0 0-.13 0 .43.43 0 0 0-.26.08.4.4 0 0 0-.08.11.7.7 0 0 0 0 .13.3.3 0 0 0 0 .14 1.94 1.94 0 0 0 .74 1 1.9 1.9 0 0 0 1.2.35 3 3 0 0 0 .51 0 2.06 2.06 0 0 0 1.83-2.11.35.35 0 0 0-.1-.24.36.36 0 0 0-.27-.15M14.75 16.39a.35.35 0 0 0 .48-.14.4.4 0 0 0 0-.26 2.56 2.56 0 0 0-2.6-1.38 3.14 3.14 0 0 0-2.32 2.1.33.33 0 0 0 0 .26.36.36 0 0 0 .22.16h.08a.4.4 0 0 0 .21-.07.4.4 0 0 0 .12-.19 2.49 2.49 0 0 1 1.76-1.57 1.87 1.87 0 0 1 1.81.89.37.37 0 0 0 .24.2M21.66 15.39h.13a.3.3 0 0 0 .12-.08.4.4 0 0 0 .07-.11.7.7 0 0 0 .02-.2.3.3 0 0 0 0-.13 2.88 2.88 0 0 0-2.76-1.34 2.71 2.71 0 0 0-2 2 .2.2 0 0 0 0 .13.3.3 0 0 0 0 .13.3.3 0 0 0 .09.11.23.23 0 0 0 .12.06h.1a.37.37 0 0 0 .2-.07.4.4 0 0 0 .12-.19 2.06 2.06 0 0 1 1.48-1.46 2.17 2.17 0 0 1 2 .94.4.4 0 0 0 .08.11.4.4 0 0 0 .12.07.4.4 0 0 0 .11.03" style="fill:#181818"/><path d="M22.83 12.92a.34.34 0 0 0-.12-.12.33.33 0 0 0-.16-.07h-.17l-.66.12a4 4 0 0 0-.32-.38 2.78 2.78 0 0 0-3.92 0 2.7 2.7 0 0 0-.67 1.11 4 4 0 0 0-.46 0 2.77 2.77 0 0 0-1.41.39 2.3 2.3 0 0 0-.24-.29 2.75 2.75 0 0 0-2-.82 2.8 2.8 0 0 0-2 .82A2.7 2.7 0 0 0 10 15l-.78.14a.5.5 0 0 0-.28.19.46.46 0 0 0-.07.33.54.54 0 0 0 .15.25.5.5 0 0 0 .28.1h.08l.56-.11a2.86 2.86 0 0 0 .79 1.7 2.79 2.79 0 0 0 4.75-2 3 3 0 0 0-.16-.9 1.87 1.87 0 0 1 1-.28 1.7 1.7 0 0 1 .31.05 2.87 2.87 0 0 0 .82 1.93 2.78 2.78 0 0 0 3.92 0 2.8 2.8 0 0 0 .82-2 2.9 2.9 0 0 0-.12-.78l.47-.08a.42.42 0 0 0 .28-.18.46.46 0 0 0 0-.49Zm-8.78 4a1.9 1.9 0 0 1-1.34.55 1.93 1.93 0 0 1-1.35-.47 1.9 1.9 0 1 1 2.69-2.69 1.88 1.88 0 0 1 .56 1.34 1.9 1.9 0 0 1-.56 1.35Zm6.7-1.17a1.9 1.9 0 0 1-3.24-1.34 2 2 0 0 1 .14-.73 1.9 1.9 0 0 1 .41-.62 2 2 0 0 1 .62-.42 1.85 1.85 0 0 1 1.46 0 2 2 0 0 1 .62.42 1.9 1.9 0 0 1 .41.62 1.8 1.8 0 0 1 .14.73 1.9 1.9 0 0 1-.56 1.38Z" style="fill:#b4bcf6"/></svg>