<svg xmlns="http://www.w3.org/2000/svg" viewBox="0 0 32 32"><path fill="#dbbd30" d="m12.03 13.98.08.07.2.13.04.03.1.06a1 1 0 0 1 .08.05l.05.04.03.02.15.12h.01l-.03.1q-.05.12-.05.2a1 1 0 0 0 .01.16v.03l.03.14.02.06v.06q.02.06.01.14v.07a22 22 0 0 1-.67.41q-.54.31-.99.53-.72.35-1.39.6a27 27 0 0 1-1.38.48h-.01q-.5.16-1.1.4a37 37 0 0 0-.57.21q.3.18.74.33a6 6 0 0 0 .27.09 18 18 0 0 1 1.24.4q.61.23 1.12.57a1.8 1.8 0 0 1 .45.42 1.6 1.6 0 0 1 .23.46q.22.02.4.24l.02.04a.83.83 0 0 1 .15.48 1 1 0 0 1 0 .1 2 2 0 0 0-.32.24.9.9 0 0 1-.2.13 1 1 0 0 1-.17.06 1 1 0 0 1-.08.01q-.16.01-.4-.04-.3-.07-.64-.19l-.36-.12-.37-.13q-.39-.14-.73-.22a9 9 0 0 0-.42-.1 11 11 0 0 0-.31-.05 4 4 0 0 1-.52-.13 3 3 0 0 1-.22-.08 1 1 0 0 1-.16-.08 1 1 0 0 1-.1-.08.6.6 0 0 0-.23-.12H6a3 3 0 0 1-.33-.09 4 4 0 0 1-.32-.11l-.7-.32-.71-.34-.34-.16-.31-.14q.01-.1-.22-.26a1.05 1.05 0 0 0-.51-.17.5.5 0 0 0-.12-.3l-.04-.06q-.16-.16-.25-.37a1 1 0 0 1-.06-.2q-.04-.28.1-.54a1 1 0 0 1 .1-.15 1.24 1.24 0 0 1 .57-.42 2 2 0 0 1 .4-.1l.09.04q.13.03.21.03.12-.01.3.07.31-.2.74-.4t.84-.1a.2.2 0 0 1 .04-.08q.05-.05.12-.06h.04q.14 0 .18-.16a7 7 0 0 0 1.35-.37q.67-.25 1.3-.55a49 49 0 0 0 1.17-.58l.04-.01a23 23 0 0 1 .82-.4l.3-.14a1 1 0 0 0 .15.03h.07a.6.6 0 0 0 .23-.04 1 1 0 0 1 .34-.06h.08q-.05.05-.02.07l.03.01.07.02h.07l.08.01a.2.2 0 0 1 .08.03.2.2 0 0 1 .05.03m17.4 2.75a.5.5 0 0 0 .12.31 1 1 0 0 0 .05.06q.16.16.25.36.07.17.07.34a1 1 0 0 1-.02.14.9.9 0 0 1-.19.42 1.2 1.2 0 0 1-.23.22 2 2 0 0 1-.17.1 1.6 1.6 0 0 1-.34.14 2 2 0 0 1-.23.05l-.09-.03q-.13-.05-.21-.04h-.04q-.1 0-.25-.06h-.02q-.3.2-.74.4-.43.19-.84.1a.2.2 0 0 1-.04.07q-.04.06-.12.07h-.03q-.15 0-.18.15a7 7 0 0 0-1.36.38q-.66.25-1.29.55t-1.21.6a14 14 0 0 1-.72.35 12 12 0 0 1-.4.18 1 1 0 0 0-.15-.03h-.08a.6.6 0 0 0-.22.03 1 1 0 0 1-.35.07h-.07q.04-.05.02-.07l-.03-.01-.08-.02h-.07l-.07-.02a.2.2 0 0 1-.08-.02.2.2 0 0 1-.05-.04l-.28-.18-.15-.1-.07-.04-.06-.05-.04-.03-.15-.12q.07-.17.08-.28v-.21l-.04-.13-.01-.06-.01-.06v-.21a23 23 0 0 1 .67-.41q.53-.32.98-.53.7-.35 1.39-.6a29 29 0 0 1 1.4-.5q.5-.15 1.1-.37a37 37 0 0 0 .57-.22q-.4-.22-1.01-.41-.62-.19-1.24-.42t-1.13-.56a1.8 1.8 0 0 1-.44-.42 1.6 1.6 0 0 1-.24-.47q-.22-.01-.39-.23l-.02-.04a.83.83 0 0 1-.15-.49 1 1 0 0 1 0-.1 2 2 0 0 0 .32-.23.9.9 0 0 1 .2-.13 1 1 0 0 1 .16-.07 1 1 0 0 1 .08 0q.17-.02.4.04.3.07.65.18l.36.13.37.13q.38.13.72.22a9 9 0 0 0 .43.1 11 11 0 0 0 .3.05 4 4 0 0 1 .53.13 3 3 0 0 1 .22.08 1 1 0 0 1 .16.08 1 1 0 0 1 .1.08.6.6 0 0 0 .23.11l.03.01a3 3 0 0 1 .34.08 4 4 0 0 1 .32.12l.7.31.7.35q.35.18.66.3-.02.1.22.25a1.05 1.05 0 0 0 .5.17m-10.91-4.87a20 20 0 0 1 .76-1 8 8 0 0 1 .5-.55 6 6 0 0 1 .32-.3 1.6 1.6 0 0 1 .25-.19q.24-.14.48-.14a1 1 0 0 1 .1.01 3.4 3.4 0 0 1 .25.76 3 3 0 0 1 .04.45v.14q0 .55-.11 1.23l-.09.1-.23.26-.13.15-.3.34-.33.38-.63.72-.1.1-.36.42-.34.4a22 22 0 0 0-.29.35l-.28.36-.13.17-.17.27-.04.07-.12.14-.33.37-.18.2a57 57 0 0 0-.61.72l-.21.25-.8.96-.03.03-.65.8q-.01.07.02.13a.2.2 0 0 0 .03.03q.07.07.1.15a1 1 0 0 0-.1.1q-.08.1-.11.2v.02a1 1 0 0 0-.03.2 1 1 0 0 0 0 .1l.06.3a1 1 0 0 1 .02.15v.15q-.13.1-.2.24a11 11 0 0 1-.16.27 1.4 1.4 0 0 1-.14.19l-.04.05a1 1 0 0 1-.16.14 1 1 0 0 1-.12.07q-.36-.04-.58-.1l-.39-.08-.13-.03a1.17 1.17 0 0 1-.4-.58 2.3 2.3 0 0 1-.09-.66v-.06a4 4 0 0 1 .09-.73 9 9 0 0 1 .06-.3l.1-.33.03-.03q.14-.1-.02-.14a.9.9 0 0 1 .17-.32 1 1 0 0 1 .07-.08 1 1 0 0 0 .07-.08q.1-.11.1-.2.12-.19.46-.57l.35-.4.39-.42.68-.76.1-.1.17-.2.4-.45q.08-.23.35-.57l.11-.14a73 73 0 0 1 .57-.66l.2-.23.73-.86q.26-.32.32-.55a.5.5 0 0 0 .03-.12q.3-.21.65-.7z"/></svg>