<svg xmlns="http://www.w3.org/2000/svg" viewBox="0 0 32 32"><rect width="27.566" height="27.566" x="2.096" y="2.096" rx="6.169" style="fill:#f722b1"/><path d="M18.771 21.759h6.554v1.928h-6.554z" style="fill:#fff06c"/><path d="M18.771 24.651h3.084v1.928h-3.084z" style="fill:#bcfe25"/><path d="M22.434 24.651h1.157v1.928h-1.157z" style="fill:#fff"/><path d="M8.169 2h15.614a6.17 6.17 0 0 1 6.169 6.169v7.807L15.976 29.952H8.169A6.17 6.17 0 0 1 2 23.783V8.169A6.17 6.17 0 0 1 8.169 2" style="fill:#c9c9c9;fill-rule:evenodd"/><path d="M16.169 30v-7.663a6.167 6.167 0 0 1 6.168-6.168H30Z" style="fill:#fff;fill-rule:evenodd"/><path d="M9.133 6.819h9.446v1.928H9.133zM19.542 6.819h3.373v1.928h-3.373zM6.434 6.819h1.735v1.928H6.434zM9.133 21.759h6.747v1.928H9.133zM6.434 21.759h1.735v1.928H6.434zM12.024 24.651h3.855v1.928h-3.855zM6.434 24.651h4.627v1.928H6.434zM11.735 10h5.301v1.928h-5.301zM6.434 10h4.241v1.928H6.434zM6.434 13.277h6.458v1.928H6.434z" style="fill:#e0e0e0"/></svg>