<svg xmlns="http://www.w3.org/2000/svg" viewBox="0 0 32 32"><g fill="#a80030" stroke-width="1.333"><path d="M18.2 16.79c-.464 0 .088.239.693.332.167-.133.319-.267.455-.392a3.5 3.5 0 0 1-1.148.059m2.49-.62a2.95 2.95 0 0 0 .548-1.23 3 3 0 0 1-.387.853c-.866.546-.081-.324 0-.655-.933 1.173-.133.704-.161 1.032m.913-2.391c.056-.836-.164-.572-.239-.252.087.045.155.59.239.252M16.442 2.361c.248.044.533.079.495.134.266-.06.331-.115-.495-.134m.496.138-.175.036.163-.015z"/><path d="M24.654 14.094a4.1 4.1 0 0 1-.443 1.758l-.4.2c-.327.637.033.4-.202.912a11 11 0 0 1-1.888 1.513c-.244 0 .166-.288.219-.4-.685.47-.55.707-1.6.993l-.03-.068c-2.586 1.217-6.179-1.2-6.132-4.484-.028.21-.079.157-.133.241a4.14 4.14 0 0 1 2.324-4.087 3.92 3.92 0 0 1 4.36.567 3.89 3.89 0 0 0-3.177-1.525 3.59 3.59 0 0 0-3.085 1.84c-.702.443-.785 1.707-1.091 1.939-.412 3.03.775 4.339 2.784 5.878.316.214.09.246.133.408a5.45 5.45 0 0 1-1.78-1.362 4.8 4.8 0 0 0 .926 1.066c-.63-.213-1.466-1.525-1.716-1.578 1.086 1.942 4.4 3.406 6.132 2.68a7.25 7.25 0 0 1-2.727-.316c-.379-.195-.895-.6-.8-.675a6.77 6.77 0 0 0 6.87-.973c.52-.4 1.09-1.097 1.255-1.108-.248.374.042.18-.148.51.52-.839-.225-.342.533-1.448l.281.388c-.105-.696.864-1.541.767-2.642.222-.337.248.362.012 1.137.328-.859.086-.997.17-1.706a6 6 0 0 1 .267.742 3.27 3.27 0 0 1 .325-1.88c-.105-.047-.329.366-.38-.614.008-.426.119-.223.162-.328a1.9 1.9 0 0 1-.436-1c.097-.148.258.38.39.399a10 10 0 0 1-.236-1.26c-.385-.8-.133.107-.448-.345-.409-1.277.34-.296.391-.877a10.3 10.3 0 0 1 1.137 2.87 12 12 0 0 0-.569-2.045c.188.079-.304-1.447.245-.436a9.12 9.12 0 0 0-4.267-5.112c.216.199.49.447.392.485-.88-.524-.725-.564-.85-.785-.716-.292-.764.024-1.239 0A14.7 14.7 0 0 0 18.1 2.477l.056.267c-.895-.298-1.043.113-2.01 0-.058-.046.31-.167.614-.21-.865.114-.824-.172-1.67.031a7 7 0 0 1 .652-.368c-.706.043-1.684.41-1.381.076a16.3 16.3 0 0 0-4.34 2.309l-.035-.241c-.526.63-2.29 1.883-2.432 2.699l-.14.033a15 15 0 0 0-.666 1.467c-.357.609-.524.234-.473.329a22 22 0 0 0-1.355 3.606 21 21 0 0 1 .087 3.226c-.353 6.377 4.475 12.568 9.754 13.997a10.6 10.6 0 0 0 2.9.295c-1.154-.33-1.304-.174-2.429-.566-.811-.383-.989-.819-1.563-1.317l.228.4c-1.127-.4-.656-.493-1.572-.784l.243-.317a2.1 2.1 0 0 1-1.132-.941l-.4.016c-.48-.592-.736-1.02-.717-1.35l-.133.23c-.147-.25-1.766-2.222-.927-1.764a1.9 1.9 0 0 1-.586-.64l.17-.195a3.26 3.26 0 0 1-.718-1.41.9.9 0 0 0 .513.4c-1.021-2.532-1.078-.133-1.853-2.579l.164-.013a5 5 0 0 1-.302-.596l.07-.71c-.736-.851-.205-3.616-.1-5.133a15 15 0 0 1 1.025-2.302l-.25-.042c.478-.835 2.732-3.353 3.776-3.224.505-.635-.1 0-.198-.162 1.11-1.15 1.466-.812 2.21-1.019.807-.48-.695.187-.31-.182 1.396-.358.99-.812 2.813-.993.192.109-.446.169-.606.31a7.5 7.5 0 0 1 5.32.316 7.79 7.79 0 0 1 4.119 5.981l.096.026a11.5 11.5 0 0 1-.195 3.159l.235-.493"/><path d="m13.137 17.427-.065.325a6.3 6.3 0 0 0 .933 1.187c-.28-.547-.488-.773-.87-1.512m.723-.029a2.6 2.6 0 0 1-.364-.607 4.2 4.2 0 0 0 .507 1.028zm12.752-2.772-.068.17a8.3 8.3 0 0 1-.808 2.58 8.1 8.1 0 0 0 .876-2.75M16.538 2.133A10 10 0 0 1 17.642 2c-.434.036-.865.059-1.292.113l.188.026M5.523 7.998c.072.667-.504.934.134.488.338-.76-.134-.21-.134-.488M4.78 11.09a7 7 0 0 0 .227-.972c-.4.513-.185.623-.226.972"/></g></svg>