<svg xmlns="http://www.w3.org/2000/svg" viewBox="0 0 32 32"><path d="m2 2.273 23.979 25.4a1.12 1.12 0 0 0 1.442-.1 1.064 1.064 0 0 0 .144-1.344zM9.593 4.674l18.26 19.686a1.12 1.12 0 0 0 1.442-.1 1.064 1.064 0 0 0 .144-1.344zM4.259 9.811 22.519 29.5a1.12 1.12 0 0 0 1.442-.1 1.064 1.064 0 0 0 .144-1.344zM16.011 6.738l12.758 13.754a.78.78 0 0 0 1.007-.067.74.74 0 0 0 .1-.939zM6.016 15.765l12.757 13.753a.78.78 0 0 0 1.007-.067.74.74 0 0 0 .1-.939zM22.567 9.715l5.782 6.252a.4.4 0 0 0 .5-.031.335.335 0 0 0 .05-.44l-6.33-5.781ZM9.208 22.1l5.782 6.252a.4.4 0 0 0 .5-.031.335.335 0 0 0 .05-.44z" style="fill:#df4f4f"/></svg>