<svg xmlns="http://www.w3.org/2000/svg" viewBox="0 0 32 32"><g stroke-width=".092"><g fill="#77e1ff"><path d="M4.03 2.034H2.033V23.98h1.995zM8.02 2.034H6.024V23.98H8.02zM12.01 2.034h-1.996V23.98h1.996zM16 2.034h-1.996V23.98H16zM19.99 2.034h-1.995V23.98h1.996zM23.98 2.034h-1.995V23.98h1.996z"/></g><g fill="#161ede"><path d="M10.015 8.02H8.02v21.946h1.995zM14.005 8.02H12.01v21.946h1.995zM17.995 8.02H16v21.946h1.995zM21.985 8.02H19.99v21.946h1.995zM25.976 8.02h-1.995v21.946h1.995zM29.966 8.02h-1.995v21.946h1.995z"/></g></g></svg>